Fleuron-Regular.ufo
<glyph name="exclam" format="1">
  <advance width="241"/>
  <unicode hex="0021"/>
  <note>
    exclam
  </note>
  <outline>
    <contour>
      <point x="120" y="113" type="curve" smooth="yes"/>
      <point x="86" y="113"/>
      <point x="59" y="85"/>
      <point x="59" y="52" type="curve" smooth="yes"/>
      <point x="59" y="18"/>
      <point x="86" y="-10"/>
      <point x="120" y="-10" type="curve" smooth="yes"/>
      <point x="154" y="-10"/>
      <point x="182" y="18"/>
      <point x="182" y="52" type="curve" smooth="yes"/>
      <point x="182" y="85"/>
      <point x="154" y="113"/>
    </contour>
    <contour>
      <point x="61" y="458" type="curve" smooth="yes"/>
      <point x="80" y="182" type="line" smooth="yes"/>
      <point x="81" y="175"/>
      <point x="86" y="171"/>
      <point x="92" y="171" type="curve" smooth="yes"/>
      <point x="149" y="171" type="line" smooth="yes"/>
      <point x="155" y="171"/>
      <point x="160" y="175"/>
      <point x="160" y="182" type="curve" smooth="yes"/>
      <point x="179" y="458" type="line"/>
      <point x="179" y="458"/>
      <point x="179" y="458"/>
      <point x="179" y="459" type="curve" smooth="yes"/>
      <point x="179" y="684" type="line" smooth="yes"/>
      <point x="179" y="691"/>
      <point x="174" y="696"/>
      <point x="168" y="696" type="curve" smooth="yes"/>
      <point x="73" y="696" type="line" smooth="yes"/>
      <point x="67" y="696"/>
      <point x="61" y="691"/>
      <point x="61" y="684" type="curve" smooth="yes"/>
      <point x="61" y="459" type="line" smooth="yes"/>
      <point x="61" y="458"/>
      <point x="61" y="458"/>
    </contour>
  </outline>
</glyph>
<glyph name="quotedbl" format="1">
  <advance width="307"/>
  <unicode hex="0022"/>
  <note>
    quotedbl
  </note>
  <outline>
    <contour>
      <point x="126" y="698" type="curve" smooth="yes"/>
      <point x="49" y="698" type="line" smooth="yes"/>
      <point x="42" y="698"/>
      <point x="37" y="693"/>
      <point x="37" y="687" type="curve" smooth="yes"/>
      <point x="37" y="605" type="line" smooth="yes"/>
      <point x="37" y="602"/>
      <point x="37" y="600"/>
      <point x="38" y="598" type="curve" smooth="yes"/>
      <point x="66" y="447" type="line" smooth="yes"/>
      <point x="67" y="442"/>
      <point x="71" y="438"/>
      <point x="77" y="438" type="curve" smooth="yes"/>
      <point x="91" y="438" type="line" smooth="yes"/>
      <point x="97" y="438"/>
      <point x="102" y="441"/>
      <point x="103" y="447" type="curve" smooth="yes"/>
      <point x="136" y="598" type="line" smooth="yes"/>
      <point x="137" y="600"/>
      <point x="137" y="603"/>
      <point x="137" y="605" type="curve" smooth="yes"/>
      <point x="137" y="687" type="line" smooth="yes"/>
      <point x="137" y="693"/>
      <point x="132" y="698"/>
    </contour>
    <contour>
      <point x="259" y="698" type="curve" smooth="yes"/>
      <point x="182" y="698" type="line" smooth="yes"/>
      <point x="175" y="698"/>
      <point x="170" y="693"/>
      <point x="170" y="687" type="curve" smooth="yes"/>
      <point x="170" y="605" type="line" smooth="yes"/>
      <point x="170" y="602"/>
      <point x="170" y="600"/>
      <point x="171" y="598" type="curve" smooth="yes"/>
      <point x="199" y="447" type="line" smooth="yes"/>
      <point x="200" y="442"/>
      <point x="205" y="438"/>
      <point x="210" y="438" type="curve" smooth="yes"/>
      <point x="225" y="438" type="line" smooth="yes"/>
      <point x="230" y="438"/>
      <point x="235" y="441"/>
      <point x="236" y="447" type="curve" smooth="yes"/>
      <point x="270" y="598" type="line" smooth="yes"/>
      <point x="270" y="600"/>
      <point x="270" y="603"/>
      <point x="270" y="605" type="curve" smooth="yes"/>
      <point x="270" y="687" type="line" smooth="yes"/>
      <point x="270" y="693"/>
      <point x="265" y="698"/>
    </contour>
  </outline>
</glyph>
<glyph name="numbersign" format="1">
  <advance width="694"/>
  <unicode hex="0023"/>
  <note>
    numbersign
  </note>
  <outline>
    <contour>
      <point x="641" y="526" type="curve" smooth="yes"/>
      <point x="562" y="526" type="line" smooth="yes"/>
      <point x="555" y="526"/>
      <point x="549" y="532"/>
      <point x="551" y="540" type="curve" smooth="yes"/>
      <point x="581" y="687" type="line" smooth="yes"/>
      <point x="582" y="694"/>
      <point x="577" y="701"/>
      <point x="569" y="701" type="curve" smooth="yes"/>
      <point x="503" y="701" type="line" smooth="yes"/>
      <point x="498" y="701"/>
      <point x="493" y="697"/>
      <point x="492" y="691" type="curve" smooth="yes"/>
      <point x="459" y="535" type="line" smooth="yes"/>
      <point x="458" y="530"/>
      <point x="453" y="526"/>
      <point x="448" y="526" type="curve" smooth="yes"/>
      <point x="326" y="526" type="line" smooth="yes"/>
      <point x="318" y="526"/>
      <point x="313" y="533"/>
      <point x="314" y="540" type="curve" smooth="yes"/>
      <point x="345" y="687" type="line" smooth="yes"/>
      <point x="347" y="694"/>
      <point x="341" y="701"/>
      <point x="334" y="701" type="curve" smooth="yes"/>
      <point x="268" y="701" type="line" smooth="yes"/>
      <point x="262" y="701"/>
      <point x="257" y="697"/>
      <point x="256" y="692" type="curve" smooth="yes"/>
      <point x="222" y="535" type="line" smooth="yes"/>
      <point x="221" y="529"/>
      <point x="216" y="526"/>
      <point x="211" y="526" type="curve" smooth="yes"/>
      <point x="96" y="526" type="line" smooth="yes"/>
      <point x="89" y="526"/>
      <point x="84" y="520"/>
      <point x="84" y="514" type="curve" smooth="yes"/>
      <point x="84" y="452" type="line" smooth="yes"/>
      <point x="84" y="446"/>
      <point x="89" y="441"/>
      <point x="96" y="441" type="curve" smooth="yes"/>
      <point x="188" y="441" type="line" smooth="yes"/>
      <point x="195" y="441"/>
      <point x="201" y="434"/>
      <point x="199" y="426" type="curve" smooth="yes"/>
      <point x="166" y="270" type="line" smooth="yes"/>
      <point x="165" y="264"/>
      <point x="160" y="260"/>
      <point x="155" y="260" type="curve" smooth="yes"/>
      <point x="53" y="260" type="line" smooth="yes"/>
      <point x="46" y="260"/>
      <point x="41" y="255"/>
      <point x="41" y="249" type="curve" smooth="yes"/>
      <point x="41" y="187" type="line" smooth="yes"/>
      <point x="41" y="180"/>
      <point x="46" y="175"/>
      <point x="53" y="175" type="curve" smooth="yes"/>
      <point x="132" y="175" type="line" smooth="yes"/>
      <point x="139" y="175"/>
      <point x="145" y="168"/>
      <point x="143" y="161" type="curve" smooth="yes"/>
      <point x="111" y="14" type="line" smooth="yes"/>
      <point x="110" y="7"/>
      <point x="115" y="0"/>
      <point x="123" y="0" type="curve" smooth="yes"/>
      <point x="189" y="0" type="line" smooth="yes"/>
      <point x="194" y="0"/>
      <point x="199" y="4"/>
      <point x="200" y="9" type="curve" smooth="yes"/>
      <point x="234" y="166" type="line" smooth="yes"/>
      <point x="235" y="171"/>
      <point x="240" y="175"/>
      <point x="246" y="175" type="curve" smooth="yes"/>
      <point x="370" y="175" type="line" smooth="yes"/>
      <point x="377" y="175"/>
      <point x="383" y="168"/>
      <point x="381" y="161" type="curve" smooth="yes"/>
      <point x="351" y="14" type="line" smooth="yes"/>
      <point x="350" y="7"/>
      <point x="355" y="0"/>
      <point x="363" y="0" type="curve" smooth="yes"/>
      <point x="429" y="0" type="line" smooth="yes"/>
      <point x="434" y="0"/>
      <point x="439" y="4"/>
      <point x="440" y="9" type="curve" smooth="yes"/>
      <point x="473" y="166" type="line" smooth="yes"/>
      <point x="474" y="171"/>
      <point x="479" y="175"/>
      <point x="484" y="175" type="curve" smooth="yes"/>
      <point x="599" y="175" type="line" smooth="yes"/>
      <point x="605" y="175"/>
      <point x="611" y="181"/>
      <point x="611" y="187" type="curve" smooth="yes"/>
      <point x="611" y="249" type="line" smooth="yes"/>
      <point x="611" y="255"/>
      <point x="605" y="260"/>
      <point x="599" y="260" type="curve" smooth="yes"/>
      <point x="507" y="260" type="line" smooth="yes"/>
      <point x="499" y="260"/>
      <point x="494" y="267"/>
      <point x="495" y="274" type="curve" smooth="yes"/>
      <point x="528" y="431" type="line" smooth="yes"/>
      <point x="529" y="437"/>
      <point x="534" y="441"/>
      <point x="539" y="441" type="curve" smooth="yes"/>
      <point x="641" y="441" type="line" smooth="yes"/>
      <point x="647" y="441"/>
      <point x="653" y="446"/>
      <point x="653" y="452" type="curve" smooth="yes"/>
      <point x="653" y="514" type="line"/>
      <point x="653" y="520"/>
      <point x="647" y="526"/>
    </contour>
    <contour>
      <point x="437" y="426" type="curve" smooth="yes"/>
      <point x="404" y="270" type="line" smooth="yes"/>
      <point x="403" y="264"/>
      <point x="398" y="260"/>
      <point x="393" y="260" type="curve" smooth="yes"/>
      <point x="269" y="260" type="line" smooth="yes"/>
      <point x="261" y="260"/>
      <point x="256" y="267"/>
      <point x="257" y="275" type="curve" smooth="yes"/>
      <point x="290" y="431" type="line" smooth="yes"/>
      <point x="291" y="437"/>
      <point x="296" y="441"/>
      <point x="302" y="441" type="curve" smooth="yes"/>
      <point x="425" y="441" type="line" smooth="yes"/>
      <point x="432" y="441"/>
      <point x="438" y="434"/>
    </contour>
  </outline>
</glyph>
<glyph name="dollar" format="1">
  <advance width="634"/>
  <unicode hex="0024"/>
  <note>
    dollar
  </note>
  <outline>
    <contour>
      <point x="584" y="184" type="curve" smooth="yes"/>
      <point x="584" y="295"/>
      <point x="520" y="362"/>
      <point x="392" y="387" type="curve" smooth="yes"/>
      <point x="366" y="392" type="line"/>
      <point x="366" y="611" type="line"/>
      <point x="423" y="596"/>
      <point x="463" y="555"/>
      <point x="471" y="498" type="curve" smooth="yes"/>
      <point x="472" y="491"/>
      <point x="478" y="486"/>
      <point x="485" y="486" type="curve" smooth="yes"/>
      <point x="557" y="486" type="line" smooth="yes"/>
      <point x="566" y="486"/>
      <point x="572" y="494"/>
      <point x="571" y="502" type="curve" smooth="yes"/>
      <point x="562" y="611"/>
      <point x="485" y="686"/>
      <point x="366" y="703" type="curve"/>
      <point x="366" y="764" type="line" smooth="yes"/>
      <point x="366" y="771"/>
      <point x="360" y="777"/>
      <point x="353" y="777" type="curve" smooth="yes"/>
      <point x="280" y="777" type="line" smooth="yes"/>
      <point x="273" y="777"/>
      <point x="267" y="771"/>
      <point x="267" y="764" type="curve" smooth="yes"/>
      <point x="267" y="704" type="line"/>
      <point x="142" y="687"/>
      <point x="62" y="605"/>
      <point x="62" y="506" type="curve" smooth="yes"/>
      <point x="62" y="397"/>
      <point x="145" y="333"/>
      <point x="261" y="309" type="curve" smooth="yes"/>
      <point x="267" y="308" type="line"/>
      <point x="267" y="82" type="line"/>
      <point x="199" y="97"/>
      <point x="154" y="140"/>
      <point x="149" y="208" type="curve" smooth="yes"/>
      <point x="148" y="215"/>
      <point x="142" y="221"/>
      <point x="135" y="221" type="curve" smooth="yes"/>
      <point x="63" y="221" type="line" smooth="yes"/>
      <point x="55" y="221"/>
      <point x="48" y="214"/>
      <point x="49" y="206" type="curve" smooth="yes"/>
      <point x="59" y="79"/>
      <point x="138" y="5"/>
      <point x="267" y="-12" type="curve"/>
      <point x="267" y="-71" type="line" smooth="yes"/>
      <point x="267" y="-79"/>
      <point x="273" y="-85"/>
      <point x="280" y="-85" type="curve" smooth="yes"/>
      <point x="353" y="-85" type="line" smooth="yes"/>
      <point x="360" y="-85"/>
      <point x="366" y="-79"/>
      <point x="366" y="-71" type="curve" smooth="yes"/>
      <point x="366" y="-13" type="line"/>
      <point x="497" y="0"/>
      <point x="584" y="75"/>
    </contour>
    <contour>
      <point x="162" y="507" type="curve" smooth="yes"/>
      <point x="162" y="560"/>
      <point x="204" y="601"/>
      <point x="267" y="613" type="curve"/>
      <point x="267" y="412" type="line"/>
      <point x="211" y="426"/>
      <point x="162" y="459"/>
    </contour>
    <contour>
      <point x="366" y="77" type="curve"/>
      <point x="366" y="287" type="line"/>
      <point x="373" y="286" type="line" smooth="yes"/>
      <point x="448" y="271"/>
      <point x="483" y="238"/>
      <point x="483" y="180" type="curve" smooth="yes"/>
      <point x="483" y="129"/>
      <point x="441" y="85"/>
    </contour>
  </outline>
</glyph>
<glyph name="percent" format="1">
  <advance width="922"/>
  <unicode hex="0025"/>
  <note>
    percent
  </note>
  <outline>
    <contour>
      <point x="681" y="698" type="curve" smooth="yes"/>
      <point x="624" y="698" type="line" smooth="yes"/>
      <point x="616" y="698"/>
      <point x="608" y="694"/>
      <point x="604" y="686" type="curve" smooth="yes"/>
      <point x="220" y="17" type="line" smooth="yes"/>
      <point x="216" y="9"/>
      <point x="221" y="-1"/>
      <point x="230" y="-1" type="curve" smooth="yes"/>
      <point x="287" y="-1" type="line" smooth="yes"/>
      <point x="296" y="-1"/>
      <point x="303" y="4"/>
      <point x="308" y="11" type="curve" smooth="yes"/>
      <point x="691" y="681" type="line" smooth="yes"/>
      <point x="696" y="688"/>
      <point x="690" y="698"/>
    </contour>
    <contour>
      <point x="388" y="532" type="curve" smooth="yes"/>
      <point x="388" y="629"/>
      <point x="309" y="708"/>
      <point x="212" y="708" type="curve" smooth="yes"/>
      <point x="114" y="708"/>
      <point x="35" y="629"/>
      <point x="35" y="532" type="curve" smooth="yes"/>
      <point x="35" y="434"/>
      <point x="114" y="355"/>
      <point x="212" y="355" type="curve" smooth="yes"/>
      <point x="309" y="355"/>
      <point x="388" y="434"/>
    </contour>
    <contour>
      <point x="212" y="436" type="curve" smooth="yes"/>
      <point x="159" y="436"/>
      <point x="116" y="479"/>
      <point x="116" y="532" type="curve" smooth="yes"/>
      <point x="116" y="585"/>
      <point x="159" y="628"/>
      <point x="212" y="628" type="curve" smooth="yes"/>
      <point x="265" y="628"/>
      <point x="308" y="585"/>
      <point x="308" y="532" type="curve" smooth="yes"/>
      <point x="308" y="479"/>
      <point x="265" y="436"/>
    </contour>
    <contour>
      <point x="705" y="353" type="curve" smooth="yes"/>
      <point x="604" y="353"/>
      <point x="523" y="271"/>
      <point x="523" y="171" type="curve" smooth="yes"/>
      <point x="523" y="71"/>
      <point x="604" y="-10"/>
      <point x="705" y="-10" type="curve" smooth="yes"/>
      <point x="805" y="-10"/>
      <point x="886" y="71"/>
      <point x="886" y="171" type="curve" smooth="yes"/>
      <point x="886" y="271"/>
      <point x="805" y="353"/>
    </contour>
    <contour>
      <point x="705" y="73" type="curve" smooth="yes"/>
      <point x="650" y="73"/>
      <point x="606" y="117"/>
      <point x="606" y="171" type="curve" smooth="yes"/>
      <point x="606" y="226"/>
      <point x="650" y="270"/>
      <point x="705" y="270" type="curve" smooth="yes"/>
      <point x="759" y="270"/>
      <point x="803" y="226"/>
      <point x="803" y="171" type="curve" smooth="yes"/>
      <point x="803" y="117"/>
      <point x="759" y="73"/>
    </contour>
  </outline>
</glyph>
<glyph name="ampersand" format="1">
  <advance width="638"/>
  <unicode hex="0026"/>
  <note>
    ampersand
  </note>
  <outline>
    <contour>
      <point x="590" y="466" type="curve" smooth="yes"/>
      <point x="581" y="466"/>
      <point x="556" y="466"/>
      <point x="540" y="466" type="curve" smooth="yes"/>
      <point x="533" y="466"/>
      <point x="528" y="471"/>
      <point x="528" y="477" type="curve" smooth="yes"/>
      <point x="528" y="540" type="line" smooth="yes"/>
      <point x="528" y="546"/>
      <point x="523" y="551"/>
      <point x="516" y="551" type="curve" smooth="yes"/>
      <point x="448" y="551" type="line" smooth="yes"/>
      <point x="441" y="551"/>
      <point x="436" y="546"/>
      <point x="436" y="540" type="curve" smooth="yes"/>
      <point x="436" y="526"/>
      <point x="436" y="503"/>
      <point x="436" y="477" type="curve" smooth="yes"/>
      <point x="436" y="471"/>
      <point x="431" y="466"/>
      <point x="425" y="465" type="curve" smooth="yes"/>
      <point x="302" y="465" type="line" smooth="yes"/>
      <point x="245" y="465"/>
      <point x="219" y="497"/>
      <point x="219" y="560" type="curve" smooth="yes"/>
      <point x="219" y="589"/>
      <point x="239" y="626"/>
      <point x="278" y="626" type="curve" smooth="yes"/>
      <point x="308" y="626"/>
      <point x="323" y="609"/>
      <point x="331" y="594" type="curve" smooth="yes"/>
      <point x="332" y="590"/>
      <point x="336" y="588"/>
      <point x="341" y="588" type="curve" smooth="yes"/>
      <point x="357" y="588"/>
      <point x="397" y="588"/>
      <point x="416" y="588" type="curve" smooth="yes"/>
      <point x="424" y="588"/>
      <point x="430" y="596"/>
      <point x="427" y="603" type="curve" smooth="yes"/>
      <point x="405" y="665"/>
      <point x="347" y="709"/>
      <point x="278" y="709" type="curve" smooth="yes"/>
      <point x="190" y="709"/>
      <point x="120" y="638"/>
      <point x="120" y="551" type="curve" smooth="yes"/>
      <point x="120" y="509"/>
      <point x="136" y="471"/>
      <point x="162" y="443" type="curve" smooth="yes"/>
      <point x="165" y="440"/>
      <point x="164" y="436"/>
      <point x="161" y="434" type="curve" smooth="yes"/>
      <point x="91" y="393"/>
      <point x="45" y="318"/>
      <point x="45" y="231" type="curve" smooth="yes"/>
      <point x="45" y="103"/>
      <point x="148" y="-10"/>
      <point x="275" y="-10" type="curve" smooth="yes"/>
      <point x="450" y="-10"/>
      <point x="528" y="126"/>
      <point x="528" y="232" type="curve" smooth="yes"/>
      <point x="528" y="366" type="line" smooth="yes"/>
      <point x="528" y="373"/>
      <point x="533" y="378"/>
      <point x="540" y="378" type="curve" smooth="yes"/>
      <point x="590" y="378" type="line" smooth="yes"/>
      <point x="597" y="378"/>
      <point x="602" y="383"/>
      <point x="602" y="390" type="curve" smooth="yes"/>
      <point x="602" y="454" type="line" smooth="yes"/>
      <point x="602" y="461"/>
      <point x="597" y="466"/>
    </contour>
    <contour>
      <point x="436" y="367" type="curve" smooth="yes"/>
      <point x="436" y="232" type="line" smooth="yes"/>
      <point x="436" y="154"/>
      <point x="377" y="86"/>
      <point x="291" y="86" type="curve" smooth="yes"/>
      <point x="211" y="86"/>
      <point x="144" y="157"/>
      <point x="144" y="224" type="curve" smooth="yes"/>
      <point x="144" y="313"/>
      <point x="208" y="378"/>
      <point x="290" y="378" type="curve" smooth="yes"/>
      <point x="425" y="378" type="line" smooth="yes"/>
      <point x="431" y="378"/>
      <point x="436" y="373"/>
    </contour>
  </outline>
</glyph>
<glyph name="quotesingle" format="1">
  <advance width="170"/>
  <unicode hex="0027"/>
  <unicode hex="2018"/>
  <unicode hex="2019"/>
  <note>
    quotesingle
  </note>
  <outline>
    <contour>
      <point x="130" y="702" type="curve" smooth="yes"/>
      <point x="75" y="702" type="line" smooth="yes"/>
      <point x="71" y="702"/>
      <point x="67" y="698"/>
      <point x="67" y="694" type="curve" smooth="yes"/>
      <point x="67" y="583" type="line" smooth="yes"/>
      <point x="67" y="579"/>
      <point x="64" y="575"/>
      <point x="59" y="575" type="curve" smooth="yes"/>
      <point x="35" y="575" type="line" smooth="yes"/>
      <point x="31" y="575"/>
      <point x="27" y="572"/>
      <point x="27" y="567" type="curve" smooth="yes"/>
      <point x="27" y="533" type="line" smooth="yes"/>
      <point x="27" y="529"/>
      <point x="31" y="525"/>
      <point x="35" y="525" type="curve" smooth="yes"/>
      <point x="114" y="525" type="line" smooth="yes"/>
      <point x="127" y="525"/>
      <point x="138" y="536"/>
      <point x="138" y="549" type="curve" smooth="yes"/>
      <point x="138" y="694" type="line"/>
      <point x="138" y="698"/>
      <point x="134" y="702"/>
    </contour>
  </outline>
</glyph>
<glyph name="parenleft" format="1">
  <advance width="269"/>
  <unicode hex="0028"/>
  <note>
    parenleft
  </note>
  <outline>
    <contour>
      <point x="256" y="-63" type="curve" smooth="yes"/>
      <point x="187" y="68"/>
      <point x="150" y="200"/>
      <point x="150" y="368" type="curve" smooth="yes"/>
      <point x="150" y="521"/>
      <point x="194" y="657"/>
      <point x="255" y="765" type="curve" smooth="yes"/>
      <point x="260" y="772"/>
      <point x="254" y="782"/>
      <point x="245" y="782" type="curve" smooth="yes"/>
      <point x="205" y="782" type="line" smooth="yes"/>
      <point x="201" y="782"/>
      <point x="198" y="780"/>
      <point x="196" y="777" type="curve" smooth="yes"/>
      <point x="121" y="673"/>
      <point x="53" y="537"/>
      <point x="53" y="368" type="curve" smooth="yes"/>
      <point x="53" y="184"/>
      <point x="115" y="47"/>
      <point x="196" y="-75" type="curve" smooth="yes"/>
      <point x="198" y="-78"/>
      <point x="202" y="-80"/>
      <point x="206" y="-80" type="curve" smooth="yes"/>
      <point x="246" y="-80" type="line" smooth="yes"/>
      <point x="255" y="-80"/>
      <point x="260" y="-71"/>
    </contour>
  </outline>
</glyph>
<glyph name="parenright" format="1">
  <advance width="269"/>
  <unicode hex="0029"/>
  <note>
    parenright
  </note>
  <outline>
    <contour>
      <point x="73" y="777" type="curve" smooth="yes"/>
      <point x="71" y="780"/>
      <point x="67" y="782"/>
      <point x="63" y="782" type="curve" smooth="yes"/>
      <point x="23" y="782" type="line" smooth="yes"/>
      <point x="14" y="782"/>
      <point x="9" y="772"/>
      <point x="13" y="765" type="curve" smooth="yes"/>
      <point x="74" y="657"/>
      <point x="119" y="521"/>
      <point x="119" y="368" type="curve" smooth="yes"/>
      <point x="119" y="200"/>
      <point x="82" y="68"/>
      <point x="12" y="-63" type="curve" smooth="yes"/>
      <point x="8" y="-71"/>
      <point x="14" y="-80"/>
      <point x="23" y="-80" type="curve" smooth="yes"/>
      <point x="63" y="-80" type="line" smooth="yes"/>
      <point x="67" y="-80"/>
      <point x="71" y="-78"/>
      <point x="73" y="-75" type="curve" smooth="yes"/>
      <point x="153" y="47"/>
      <point x="215" y="184"/>
      <point x="215" y="368" type="curve" smooth="yes"/>
      <point x="215" y="537"/>
      <point x="147" y="673"/>
    </contour>
  </outline>
</glyph>
<glyph name="asterisk" format="1">
  <advance width="400"/>
  <unicode hex="002A"/>
  <note>
    asterisk
  </note>
  <outline>
    <contour>
      <point x="368" y="566" type="curve" smooth="yes"/>
      <point x="368" y="603" type="line" smooth="yes"/>
      <point x="368" y="609"/>
      <point x="363" y="615"/>
      <point x="357" y="615" type="curve" smooth="yes"/>
      <point x="262" y="615" type="line" smooth="yes"/>
      <point x="258" y="615"/>
      <point x="255" y="620"/>
      <point x="257" y="624" type="curve" smooth="yes"/>
      <point x="304" y="706" type="line" smooth="yes"/>
      <point x="308" y="711"/>
      <point x="306" y="718"/>
      <point x="300" y="722" type="curve" smooth="yes"/>
      <point x="269" y="740" type="line" smooth="yes"/>
      <point x="263" y="743"/>
      <point x="256" y="741"/>
      <point x="252" y="736" type="curve" smooth="yes"/>
      <point x="205" y="654" type="line" smooth="yes"/>
      <point x="203" y="650"/>
      <point x="197" y="650"/>
      <point x="195" y="654" type="curve" smooth="yes"/>
      <point x="147" y="736" type="line" smooth="yes"/>
      <point x="144" y="741"/>
      <point x="137" y="743"/>
      <point x="131" y="740" type="curve" smooth="yes"/>
      <point x="99" y="722" type="line" smooth="yes"/>
      <point x="94" y="719"/>
      <point x="92" y="711"/>
      <point x="95" y="706" type="curve" smooth="yes"/>
      <point x="143" y="624" type="line" smooth="yes"/>
      <point x="145" y="620"/>
      <point x="142" y="615"/>
      <point x="138" y="615" type="curve" smooth="yes"/>
      <point x="43" y="615" type="line" smooth="yes"/>
      <point x="36" y="615"/>
      <point x="31" y="609"/>
      <point x="31" y="603" type="curve" smooth="yes"/>
      <point x="31" y="566" type="line" smooth="yes"/>
      <point x="31" y="560"/>
      <point x="36" y="555"/>
      <point x="43" y="555" type="curve" smooth="yes"/>
      <point x="138" y="555" type="line" smooth="yes"/>
      <point x="142" y="555"/>
      <point x="145" y="550"/>
      <point x="143" y="546" type="curve" smooth="yes"/>
      <point x="95" y="464" type="line" smooth="yes"/>
      <point x="92" y="458"/>
      <point x="94" y="451"/>
      <point x="99" y="448" type="curve" smooth="yes"/>
      <point x="131" y="429" type="line" smooth="yes"/>
      <point x="137" y="426"/>
      <point x="144" y="428"/>
      <point x="147" y="434" type="curve" smooth="yes"/>
      <point x="195" y="516" type="line" smooth="yes"/>
      <point x="197" y="520"/>
      <point x="203" y="520"/>
      <point x="205" y="516" type="curve" smooth="yes"/>
      <point x="252" y="434" type="line" smooth="yes"/>
      <point x="256" y="428"/>
      <point x="263" y="426"/>
      <point x="268" y="429" type="curve" smooth="yes"/>
      <point x="300" y="448" type="line" smooth="yes"/>
      <point x="306" y="451"/>
      <point x="308" y="458"/>
      <point x="304" y="464" type="curve" smooth="yes"/>
      <point x="257" y="546" type="line" smooth="yes"/>
      <point x="255" y="550"/>
      <point x="258" y="555"/>
      <point x="262" y="555" type="curve" smooth="yes"/>
      <point x="357" y="555" type="line" smooth="yes"/>
      <point x="363" y="555"/>
      <point x="368" y="560"/>
    </contour>
  </outline>
</glyph>
<glyph name="plus" format="1">
  <advance width="390"/>
  <unicode hex="002B"/>
  <note>
    plus
  </note>
  <outline>
    <contour>
      <point x="346" y="366" type="curve" smooth="yes"/>
      <point x="235" y="366" type="line"/>
      <point x="235" y="477" type="line" smooth="yes"/>
      <point x="235" y="483"/>
      <point x="230" y="489"/>
      <point x="224" y="489" type="curve" smooth="yes"/>
      <point x="166" y="489" type="line" smooth="yes"/>
      <point x="160" y="489"/>
      <point x="154" y="483"/>
      <point x="154" y="477" type="curve" smooth="yes"/>
      <point x="154" y="366" type="line"/>
      <point x="44" y="366" type="line" smooth="yes"/>
      <point x="37" y="366"/>
      <point x="32" y="361"/>
      <point x="32" y="354" type="curve" smooth="yes"/>
      <point x="32" y="297" type="line" smooth="yes"/>
      <point x="32" y="291"/>
      <point x="37" y="285"/>
      <point x="44" y="285" type="curve" smooth="yes"/>
      <point x="154" y="285" type="line"/>
      <point x="154" y="175" type="line" smooth="yes"/>
      <point x="154" y="168"/>
      <point x="160" y="163"/>
      <point x="166" y="163" type="curve" smooth="yes"/>
      <point x="224" y="163" type="line" smooth="yes"/>
      <point x="230" y="163"/>
      <point x="235" y="168"/>
      <point x="235" y="175" type="curve" smooth="yes"/>
      <point x="235" y="285" type="line"/>
      <point x="346" y="285" type="line" smooth="yes"/>
      <point x="352" y="285"/>
      <point x="358" y="291"/>
      <point x="358" y="297" type="curve" smooth="yes"/>
      <point x="358" y="354" type="line" smooth="yes"/>
      <point x="358" y="361"/>
      <point x="352" y="366"/>
    </contour>
  </outline>
</glyph>
<glyph name="comma" format="1">
  <advance width="173"/>
  <unicode hex="002C"/>
  <note>
    comma
  </note>
  <outline>
    <contour>
      <point x="85" y="113" type="curve" smooth="yes"/>
      <point x="51" y="113"/>
      <point x="24" y="85"/>
      <point x="25" y="52" type="curve" smooth="yes"/>
      <point x="25" y="18"/>
      <point x="53" y="-10"/>
      <point x="86" y="-9" type="curve" smooth="yes"/>
      <point x="91" y="-9"/>
      <point x="96" y="-9"/>
      <point x="101" y="-7" type="curve" smooth="yes"/>
      <point x="102" y="-7"/>
      <point x="101" y="-59"/>
      <point x="101" y="-59" type="curve"/>
      <point x="101" y="-65"/>
      <point x="96" y="-71"/>
      <point x="89" y="-71" type="curve" smooth="yes"/>
      <point x="22" y="-71" type="line" smooth="yes"/>
      <point x="15" y="-71"/>
      <point x="10" y="-76"/>
      <point x="10" y="-82" type="curve" smooth="yes"/>
      <point x="10" y="-105" type="line" smooth="yes"/>
      <point x="10" y="-111"/>
      <point x="15" y="-117"/>
      <point x="22" y="-117" type="curve" smooth="yes"/>
      <point x="112" y="-117" type="line" smooth="yes"/>
      <point x="131" y="-117"/>
      <point x="147" y="-101"/>
      <point x="147" y="-81" type="curve" smooth="yes"/>
      <point x="147" y="53" type="line"/>
      <point x="147" y="86"/>
      <point x="119" y="114"/>
    </contour>
  </outline>
</glyph>
<glyph name="hyphen" format="1">
  <advance width="370"/>
  <unicode hex="002D"/>
  <note>
    hyphen
  </note>
  <outline>
    <contour>
      <point x="336" y="366" type="curve" smooth="yes"/>
      <point x="34" y="366" type="line" smooth="yes"/>
      <point x="27" y="366"/>
      <point x="22" y="361"/>
      <point x="22" y="354" type="curve" smooth="yes"/>
      <point x="22" y="297" type="line" smooth="yes"/>
      <point x="22" y="290"/>
      <point x="27" y="285"/>
      <point x="34" y="285" type="curve" smooth="yes"/>
      <point x="336" y="285" type="line" smooth="yes"/>
      <point x="342" y="285"/>
      <point x="348" y="290"/>
      <point x="348" y="297" type="curve" smooth="yes"/>
      <point x="348" y="354" type="line" smooth="yes"/>
      <point x="348" y="361"/>
      <point x="342" y="366"/>
    </contour>
  </outline>
</glyph>
<glyph name="slash" format="1">
  <advance width="406"/>
  <unicode hex="002F"/>
  <note>
    slash
  </note>
  <outline>
    <contour>
      <point x="285" y="691" type="curve" smooth="yes"/>
      <point x="25" y="16" type="line" smooth="yes"/>
      <point x="22" y="8"/>
      <point x="28" y="0"/>
      <point x="36" y="0" type="curve" smooth="yes"/>
      <point x="110" y="0" type="line" smooth="yes"/>
      <point x="115" y="0"/>
      <point x="120" y="3"/>
      <point x="121" y="8" type="curve" smooth="yes"/>
      <point x="382" y="683" type="line" smooth="yes"/>
      <point x="385" y="691"/>
      <point x="379" y="699"/>
      <point x="371" y="699" type="curve" smooth="yes"/>
      <point x="296" y="699" type="line" smooth="yes"/>
      <point x="291" y="699"/>
      <point x="287" y="696"/>
    </contour>
  </outline>
</glyph>
<glyph name="zero" format="1">
  <advance width="697"/>
  <unicode hex="0030"/>
  <note>
    zero
  </note>
  <outline>
    <contour>
      <point x="349" y="708" type="curve" smooth="yes"/>
      <point x="184" y="708"/>
      <point x="50" y="581"/>
      <point x="50" y="349" type="curve" smooth="yes"/>
      <point x="50" y="116"/>
      <point x="184" y="-10"/>
      <point x="349" y="-10" type="curve" smooth="yes"/>
      <point x="513" y="-10"/>
      <point x="647" y="116"/>
      <point x="647" y="349" type="curve" smooth="yes"/>
      <point x="647" y="581"/>
      <point x="513" y="708"/>
    </contour>
    <contour>
      <point x="349" y="75" type="curve" smooth="yes"/>
      <point x="237" y="75"/>
      <point x="147" y="142"/>
      <point x="147" y="349" type="curve" smooth="yes"/>
      <point x="147" y="552"/>
      <point x="237" y="623"/>
      <point x="349" y="623" type="curve" smooth="yes"/>
      <point x="459" y="623"/>
      <point x="550" y="552"/>
      <point x="550" y="349" type="curve" smooth="yes"/>
      <point x="550" y="142"/>
      <point x="460" y="75"/>
    </contour>
  </outline>
</glyph>
<glyph name="one" format="1">
  <advance width="350"/>
  <unicode hex="0031"/>
  <note>
    one
  </note>
  <outline>
    <contour>
      <point x="284" y="11" type="curve"/>
      <point x="284" y="407" type="line"/>
      <point x="284" y="687" type="line" smooth="yes"/>
      <point x="284" y="693"/>
      <point x="279" y="699"/>
      <point x="273" y="699" type="curve" smooth="yes"/>
      <point x="200" y="699" type="line" smooth="yes"/>
      <point x="194" y="699"/>
      <point x="189" y="693"/>
      <point x="189" y="687" type="curve" smooth="yes"/>
      <point x="189" y="612" type="line" smooth="yes"/>
      <point x="189" y="586"/>
      <point x="167" y="565"/>
      <point x="142" y="565" type="curve" smooth="yes"/>
      <point x="42" y="565" type="line" smooth="yes"/>
      <point x="35" y="565"/>
      <point x="30" y="560"/>
      <point x="30" y="553" type="curve" smooth="yes"/>
      <point x="30" y="490" type="line" smooth="yes"/>
      <point x="30" y="484"/>
      <point x="35" y="478"/>
      <point x="42" y="478" type="curve" smooth="yes"/>
      <point x="162" y="478" type="line" smooth="yes"/>
      <point x="171" y="478"/>
      <point x="179" y="481"/>
      <point x="184" y="484" type="curve" smooth="yes"/>
      <point x="186" y="485"/>
      <point x="189" y="484"/>
      <point x="189" y="481" type="curve" smooth="yes"/>
      <point x="189" y="12" type="line" smooth="yes"/>
      <point x="189" y="5"/>
      <point x="194" y="0"/>
      <point x="200" y="0" type="curve" smooth="yes"/>
      <point x="273" y="0" type="line" smooth="yes"/>
      <point x="279" y="0"/>
      <point x="284" y="5"/>
    </contour>
  </outline>
</glyph>
<glyph name="two" format="1">
  <advance width="569"/>
  <unicode hex="0032"/>
  <note>
    two
  </note>
  <outline>
    <contour>
      <point x="510" y="86" type="curve" smooth="yes"/>
      <point x="510" y="86"/>
      <point x="157" y="86"/>
      <point x="152" y="86" type="curve" smooth="yes"/>
      <point x="148" y="86"/>
      <point x="146" y="90"/>
      <point x="146" y="93" type="curve" smooth="yes"/>
      <point x="146" y="289"/>
      <point x="511" y="254"/>
      <point x="511" y="498" type="curve"/>
      <point x="511" y="498"/>
      <point x="511" y="498"/>
      <point x="511" y="500" type="curve" smooth="yes"/>
      <point x="511" y="617"/>
      <point x="414" y="709"/>
      <point x="291" y="709" type="curve" smooth="yes"/>
      <point x="161" y="709"/>
      <point x="64" y="627"/>
      <point x="56" y="502" type="curve" smooth="yes"/>
      <point x="56" y="496"/>
      <point x="62" y="490"/>
      <point x="68" y="490" type="curve" smooth="yes"/>
      <point x="145" y="490" type="line" smooth="yes"/>
      <point x="151" y="490"/>
      <point x="156" y="495"/>
      <point x="156" y="501" type="curve" smooth="yes"/>
      <point x="161" y="572"/>
      <point x="214" y="624"/>
      <point x="286" y="624" type="curve" smooth="yes"/>
      <point x="296" y="624" type="line" smooth="yes"/>
      <point x="363" y="624"/>
      <point x="420" y="566"/>
      <point x="420" y="501" type="curve" smooth="yes"/>
      <point x="420" y="498"/>
      <point x="419" y="501"/>
      <point x="419" y="498" type="curve" smooth="yes"/>
      <point x="419" y="309"/>
      <point x="49" y="345"/>
      <point x="49" y="97" type="curve" smooth="yes"/>
      <point x="49" y="35" type="line" smooth="yes"/>
      <point x="49" y="16"/>
      <point x="65" y="0"/>
      <point x="82" y="0" type="curve" smooth="yes"/>
      <point x="507" y="0" type="line" smooth="yes"/>
      <point x="516" y="0"/>
      <point x="521" y="5"/>
      <point x="521" y="11" type="curve" smooth="yes"/>
      <point x="521" y="74" type="line" smooth="yes"/>
      <point x="521" y="81"/>
      <point x="516" y="86"/>
    </contour>
  </outline>
</glyph>
<glyph name="three" format="1">
  <advance width="574"/>
  <unicode hex="0033"/>
  <note>
    three
  </note>
  <outline>
    <contour>
      <point x="128" y="183" type="curve" smooth="yes"/>
      <point x="54" y="183" type="line" smooth="yes"/>
      <point x="46" y="183"/>
      <point x="41" y="176"/>
      <point x="42" y="169" type="curve" smooth="yes"/>
      <point x="60" y="60"/>
      <point x="153" y="-9"/>
      <point x="283" y="-9" type="curve" smooth="yes"/>
      <point x="417" y="-9"/>
      <point x="519" y="74"/>
      <point x="519" y="185" type="curve" smooth="yes"/>
      <point x="519" y="270"/>
      <point x="473" y="326"/>
      <point x="410" y="348" type="curve" smooth="yes"/>
      <point x="405" y="350"/>
      <point x="404" y="357"/>
      <point x="409" y="359" type="curve" smooth="yes"/>
      <point x="472" y="385"/>
      <point x="514" y="444"/>
      <point x="514" y="524" type="curve" smooth="yes"/>
      <point x="514" y="625"/>
      <point x="411" y="709"/>
      <point x="288" y="709" type="curve" smooth="yes"/>
      <point x="164" y="709"/>
      <point x="68" y="632"/>
      <point x="55" y="528" type="curve" smooth="yes"/>
      <point x="54" y="521"/>
      <point x="59" y="514"/>
      <point x="66" y="514" type="curve" smooth="yes"/>
      <point x="138" y="514" type="line" smooth="yes"/>
      <point x="143" y="514"/>
      <point x="148" y="518"/>
      <point x="149" y="523" type="curve" smooth="yes"/>
      <point x="160" y="581"/>
      <point x="214" y="624"/>
      <point x="278" y="624" type="curve" smooth="yes"/>
      <point x="287" y="624" type="line" smooth="yes"/>
      <point x="360" y="624"/>
      <point x="416" y="579"/>
      <point x="416" y="509" type="curve" smooth="yes"/>
      <point x="416" y="445"/>
      <point x="365" y="392"/>
      <point x="295" y="392" type="curve" smooth="yes"/>
      <point x="247" y="392" type="line" smooth="yes"/>
      <point x="240" y="392"/>
      <point x="235" y="386"/>
      <point x="235" y="380" type="curve" smooth="yes"/>
      <point x="235" y="320" type="line" smooth="yes"/>
      <point x="235" y="313"/>
      <point x="240" y="308"/>
      <point x="247" y="308" type="curve" smooth="yes"/>
      <point x="295" y="308" type="line" smooth="yes"/>
      <point x="368" y="308"/>
      <point x="421" y="262"/>
      <point x="421" y="190" type="curve" smooth="yes"/>
      <point x="421" y="122"/>
      <point x="361" y="75"/>
      <point x="287" y="75" type="curve" smooth="yes"/>
      <point x="278" y="75" type="line" smooth="yes"/>
      <point x="206" y="75"/>
      <point x="157" y="111"/>
      <point x="139" y="174" type="curve" smooth="yes"/>
      <point x="138" y="179"/>
      <point x="133" y="183"/>
    </contour>
  </outline>
</glyph>
<glyph name="four" format="1">
  <advance width="614"/>
  <unicode hex="0034"/>
  <note>
    four
  </note>
  <outline>
    <contour>
      <point x="569" y="244" type="curve" smooth="yes"/>
      <point x="483" y="244" type="line" smooth="yes"/>
      <point x="476" y="244"/>
      <point x="471" y="249"/>
      <point x="471" y="256" type="curve" smooth="yes"/>
      <point x="471" y="687" type="line" smooth="yes"/>
      <point x="471" y="693"/>
      <point x="466" y="699"/>
      <point x="459" y="699" type="curve" smooth="yes"/>
      <point x="382" y="699" type="line" smooth="yes"/>
      <point x="378" y="699"/>
      <point x="375" y="697"/>
      <point x="373" y="694" type="curve" smooth="yes"/>
      <point x="39" y="264" type="line" smooth="yes"/>
      <point x="35" y="258"/>
      <point x="32" y="251"/>
      <point x="32" y="243" type="curve" smooth="yes"/>
      <point x="32" y="194" type="line" smooth="yes"/>
      <point x="32" y="175"/>
      <point x="48" y="159"/>
      <point x="67" y="159" type="curve" smooth="yes"/>
      <point x="363" y="159" type="line" smooth="yes"/>
      <point x="370" y="159"/>
      <point x="375" y="154"/>
      <point x="375" y="147" type="curve" smooth="yes"/>
      <point x="375" y="11" type="line" smooth="yes"/>
      <point x="375" y="5"/>
      <point x="380" y="0"/>
      <point x="387" y="0" type="curve" smooth="yes"/>
      <point x="459" y="0" type="line" smooth="yes"/>
      <point x="466" y="0"/>
      <point x="471" y="5"/>
      <point x="471" y="11" type="curve" smooth="yes"/>
      <point x="471" y="147" type="line" smooth="yes"/>
      <point x="471" y="154"/>
      <point x="476" y="159"/>
      <point x="483" y="159" type="curve" smooth="yes"/>
      <point x="569" y="159" type="line" smooth="yes"/>
      <point x="575" y="159"/>
      <point x="581" y="164"/>
      <point x="581" y="171" type="curve" smooth="yes"/>
      <point x="581" y="232" type="line" smooth="yes"/>
      <point x="581" y="239"/>
      <point x="575" y="244"/>
    </contour>
    <contour>
      <point x="369" y="244" type="curve" smooth="yes"/>
      <point x="138" y="244" type="line" smooth="yes"/>
      <point x="133" y="244"/>
      <point x="130" y="250"/>
      <point x="133" y="253" type="curve" smooth="yes"/>
      <point x="365" y="551" type="line" smooth="yes"/>
      <point x="368" y="555"/>
      <point x="375" y="553"/>
      <point x="375" y="547" type="curve" smooth="yes"/>
      <point x="375" y="250" type="line" smooth="yes"/>
      <point x="375" y="247"/>
      <point x="372" y="244"/>
    </contour>
  </outline>
</glyph>
<glyph name="five" format="1">
  <advance width="583"/>
  <unicode hex="0035"/>
  <note>
    five
  </note>
  <outline>
    <contour>
      <point x="534" y="250" type="curve" smooth="yes"/>
      <point x="527" y="379"/>
      <point x="417" y="470"/>
      <point x="288" y="469" type="curve" smooth="yes"/>
      <point x="241" y="469"/>
      <point x="197" y="456"/>
      <point x="160" y="434" type="curve"/>
      <point x="158" y="432"/>
      <point x="156" y="434"/>
      <point x="156" y="436" type="curve" smooth="yes"/>
      <point x="179" y="599" type="line"/>
      <point x="179" y="605"/>
      <point x="184" y="610"/>
      <point x="190" y="610" type="curve" smooth="yes"/>
      <point x="492" y="610" type="line" smooth="yes"/>
      <point x="499" y="610"/>
      <point x="504" y="615"/>
      <point x="504" y="621" type="curve" smooth="yes"/>
      <point x="504" y="688" type="line" smooth="yes"/>
      <point x="504" y="695"/>
      <point x="499" y="700"/>
      <point x="492" y="700" type="curve" smooth="yes"/>
      <point x="137" y="700" type="line" smooth="yes"/>
      <point x="119" y="700"/>
      <point x="105" y="686"/>
      <point x="102" y="668" type="curve"/>
      <point x="51" y="309" type="line"/>
      <point x="50" y="302"/>
      <point x="56" y="296"/>
      <point x="63" y="296" type="curve" smooth="yes"/>
      <point x="132" y="296" type="line" smooth="yes"/>
      <point x="137" y="296"/>
      <point x="141" y="299"/>
      <point x="143" y="303" type="curve" smooth="yes"/>
      <point x="171" y="364"/>
      <point x="238" y="405"/>
      <point x="312" y="395" type="curve" smooth="yes"/>
      <point x="383" y="384"/>
      <point x="440" y="325"/>
      <point x="447" y="254" type="curve" smooth="yes"/>
      <point x="458" y="157"/>
      <point x="382" y="76"/>
      <point x="288" y="76" type="curve" smooth="yes"/>
      <point x="229" y="76"/>
      <point x="178" y="108"/>
      <point x="150" y="155" type="curve" smooth="yes"/>
      <point x="148" y="159"/>
      <point x="144" y="161"/>
      <point x="140" y="161" type="curve" smooth="yes"/>
      <point x="71" y="161" type="line" smooth="yes"/>
      <point x="62" y="161"/>
      <point x="57" y="153"/>
      <point x="60" y="145" type="curve" smooth="yes"/>
      <point x="96" y="55"/>
      <point x="185" y="-10"/>
      <point x="288" y="-10" type="curve" smooth="yes"/>
      <point x="429" y="-10"/>
      <point x="542" y="108"/>
    </contour>
  </outline>
</glyph>
<glyph name="six" format="1">
  <advance width="600"/>
  <unicode hex="0036"/>
  <note>
    six
  </note>
  <outline>
    <contour>
      <point x="327" y="470" type="curve" smooth="yes"/>
      <point x="261" y="475"/>
      <point x="199" y="454"/>
      <point x="152" y="415" type="curve" smooth="yes"/>
      <point x="150" y="414"/>
      <point x="147" y="415"/>
      <point x="147" y="418" type="curve"/>
      <point x="146" y="598" type="line"/>
      <point x="146" y="604"/>
      <point x="151" y="610"/>
      <point x="158" y="610" type="curve" smooth="yes"/>
      <point x="510" y="610" type="line" smooth="yes"/>
      <point x="516" y="610"/>
      <point x="522" y="615"/>
      <point x="522" y="621" type="curve" smooth="yes"/>
      <point x="522" y="688" type="line" smooth="yes"/>
      <point x="522" y="695"/>
      <point x="516" y="700"/>
      <point x="510" y="700" type="curve" smooth="yes"/>
      <point x="154" y="700" type="line" smooth="yes"/>
      <point x="102" y="700"/>
      <point x="60" y="658"/>
      <point x="60" y="606" type="curve" smooth="yes"/>
      <point x="60" y="242" type="line" smooth="yes"/>
      <point x="60" y="110"/>
      <point x="167" y="-6"/>
      <point x="299" y="-10" type="curve" smooth="yes"/>
      <point x="445" y="-14"/>
      <point x="563" y="109"/>
      <point x="551" y="257" type="curve" smooth="yes"/>
      <point x="541" y="376"/>
      <point x="446" y="461"/>
    </contour>
    <contour>
      <point x="306" y="76" type="curve" smooth="yes"/>
      <point x="217" y="76"/>
      <point x="146" y="148"/>
      <point x="146" y="236" type="curve" smooth="yes"/>
      <point x="146" y="325"/>
      <point x="217" y="396"/>
      <point x="306" y="396" type="curve" smooth="yes"/>
      <point x="394" y="396"/>
      <point x="466" y="325"/>
      <point x="466" y="236" type="curve" smooth="yes"/>
      <point x="466" y="148"/>
      <point x="394" y="76"/>
    </contour>
  </outline>
</glyph>
<glyph name="seven" format="1">
  <advance width="527"/>
  <unicode hex="0037"/>
  <note>
    seven
  </note>
  <outline>
    <contour>
      <point x="493" y="699" type="curve" smooth="yes"/>
      <point x="33" y="699" type="line" smooth="yes"/>
      <point x="26" y="699"/>
      <point x="21" y="693"/>
      <point x="21" y="687" type="curve" smooth="yes"/>
      <point x="21" y="621" type="line" smooth="yes"/>
      <point x="21" y="614"/>
      <point x="26" y="609"/>
      <point x="33" y="609" type="curve" smooth="yes"/>
      <point x="393" y="609" type="line" smooth="yes"/>
      <point x="396" y="609"/>
      <point x="397" y="605"/>
      <point x="395" y="604" type="curve" smooth="yes"/>
      <point x="236" y="499"/>
      <point x="144" y="303"/>
      <point x="144" y="29" type="curve" smooth="yes"/>
      <point x="144" y="12" type="line" smooth="yes"/>
      <point x="144" y="6"/>
      <point x="149" y="1"/>
      <point x="155" y="1" type="curve" smooth="yes"/>
      <point x="230" y="1" type="line" smooth="yes"/>
      <point x="236" y="1"/>
      <point x="241" y="6"/>
      <point x="241" y="12" type="curve" smooth="yes"/>
      <point x="241" y="21" type="line" smooth="yes"/>
      <point x="241" y="314"/>
      <point x="324" y="491"/>
      <point x="499" y="601" type="curve" smooth="yes"/>
      <point x="503" y="603"/>
      <point x="505" y="606"/>
      <point x="505" y="610" type="curve" smooth="yes"/>
      <point x="505" y="687" type="line" smooth="yes"/>
      <point x="505" y="693"/>
      <point x="499" y="699"/>
    </contour>
  </outline>
</glyph>
<glyph name="eight" format="1">
  <advance width="562"/>
  <unicode hex="0038"/>
  <note>
    eight
  </note>
  <outline>
    <contour>
      <point x="392" y="433" type="curve"/>
      <point x="422" y="463"/>
      <point x="441" y="503"/>
      <point x="441" y="549" type="curve" smooth="yes"/>
      <point x="441" y="637"/>
      <point x="369" y="709"/>
      <point x="281" y="709" type="curve" smooth="yes"/>
      <point x="192" y="709"/>
      <point x="120" y="637"/>
      <point x="120" y="549" type="curve" smooth="yes"/>
      <point x="120" y="503"/>
      <point x="139" y="463"/>
      <point x="169" y="433" type="curve"/>
      <point x="95" y="394"/>
      <point x="45" y="316"/>
      <point x="45" y="226" type="curve" smooth="yes"/>
      <point x="45" y="96"/>
      <point x="151" y="-10"/>
      <point x="281" y="-10" type="curve" smooth="yes"/>
      <point x="411" y="-10"/>
      <point x="516" y="96"/>
      <point x="516" y="226" type="curve" smooth="yes"/>
      <point x="516" y="316"/>
      <point x="466" y="394"/>
    </contour>
    <contour>
      <point x="281" y="467" type="curve" smooth="yes"/>
      <point x="236" y="467"/>
      <point x="202" y="502"/>
      <point x="202" y="546" type="curve" smooth="yes"/>
      <point x="202" y="589"/>
      <point x="237" y="625"/>
      <point x="281" y="625" type="curve" smooth="yes"/>
      <point x="324" y="625"/>
      <point x="360" y="589"/>
      <point x="360" y="546" type="curve" smooth="yes"/>
      <point x="360" y="502"/>
      <point x="325" y="467"/>
    </contour>
    <contour>
      <point x="281" y="75" type="curve" smooth="yes"/>
      <point x="196" y="75"/>
      <point x="127" y="144"/>
      <point x="127" y="229" type="curve" smooth="yes"/>
      <point x="127" y="313"/>
      <point x="196" y="382"/>
      <point x="281" y="382" type="curve" smooth="yes"/>
      <point x="366" y="382"/>
      <point x="434" y="313"/>
      <point x="434" y="229" type="curve" smooth="yes"/>
      <point x="434" y="144"/>
      <point x="366" y="75"/>
    </contour>
  </outline>
</glyph>
<glyph name="nine" format="1">
  <advance width="600"/>
  <unicode hex="0039"/>
  <note>
    nine
  </note>
  <outline>
    <contour>
      <point x="273" y="230" type="curve" smooth="yes"/>
      <point x="339" y="225"/>
      <point x="401" y="246"/>
      <point x="448" y="284" type="curve" smooth="yes"/>
      <point x="450" y="286"/>
      <point x="453" y="284"/>
      <point x="453" y="282" type="curve" smooth="yes"/>
      <point x="454" y="102" type="line" smooth="yes"/>
      <point x="454" y="95"/>
      <point x="449" y="90"/>
      <point x="442" y="90" type="curve" smooth="yes"/>
      <point x="90" y="90" type="line" smooth="yes"/>
      <point x="84" y="90"/>
      <point x="78" y="85"/>
      <point x="78" y="78" type="curve" smooth="yes"/>
      <point x="78" y="11" type="line" smooth="yes"/>
      <point x="78" y="5"/>
      <point x="84" y="0"/>
      <point x="90" y="0" type="curve" smooth="yes"/>
      <point x="446" y="0" type="line" smooth="yes"/>
      <point x="498" y="0"/>
      <point x="540" y="42"/>
      <point x="540" y="94" type="curve" smooth="yes"/>
      <point x="540" y="458" type="line" smooth="yes"/>
      <point x="540" y="589"/>
      <point x="432" y="706"/>
      <point x="301" y="709" type="curve" smooth="yes"/>
      <point x="155" y="713"/>
      <point x="37" y="590"/>
      <point x="49" y="443" type="curve" smooth="yes"/>
      <point x="58" y="324"/>
      <point x="154" y="239"/>
    </contour>
    <contour>
      <point x="294" y="624" type="curve" smooth="yes"/>
      <point x="382" y="624"/>
      <point x="454" y="552"/>
      <point x="454" y="463" type="curve" smooth="yes"/>
      <point x="454" y="375"/>
      <point x="382" y="303"/>
      <point x="294" y="303" type="curve" smooth="yes"/>
      <point x="205" y="303"/>
      <point x="134" y="375"/>
      <point x="134" y="463" type="curve" smooth="yes"/>
      <point x="134" y="552"/>
      <point x="205" y="624"/>
    </contour>
  </outline>
</glyph>
<glyph name="colon" format="1">
  <advance width="197"/>
  <unicode hex="003A"/>
  <note>
    colon
  </note>
  <outline>
    <contour>
      <point x="100" y="112" type="curve" smooth="yes"/>
      <point x="66" y="112"/>
      <point x="39" y="84"/>
      <point x="39" y="50" type="curve" smooth="yes"/>
      <point x="39" y="17"/>
      <point x="67" y="-11"/>
      <point x="101" y="-10" type="curve" smooth="yes"/>
      <point x="135" y="-10"/>
      <point x="162" y="18"/>
      <point x="162" y="51" type="curve" smooth="yes"/>
      <point x="162" y="85"/>
      <point x="134" y="113"/>
    </contour>
    <contour>
      <point x="97" y="332" type="curve" smooth="yes"/>
      <point x="131" y="332"/>
      <point x="158" y="360"/>
      <point x="158" y="394" type="curve" smooth="yes"/>
      <point x="157" y="428"/>
      <point x="130" y="455"/>
      <point x="96" y="455" type="curve" smooth="yes"/>
      <point x="62" y="454"/>
      <point x="35" y="427"/>
      <point x="35" y="393" type="curve" smooth="yes"/>
      <point x="35" y="359"/>
      <point x="63" y="332"/>
    </contour>
  </outline>
</glyph>
<glyph name="less" format="1">
  <advance width="500"/>
  <unicode hex="003C"/>
  <note>
    less
  </note>
  <outline>
    <contour>
      <point x="458" y="451" type="curve" smooth="yes"/>
      <point x="458" y="522" type="line" smooth="yes"/>
      <point x="458" y="531"/>
      <point x="449" y="536"/>
      <point x="441" y="533" type="curve" smooth="yes"/>
      <point x="39" y="368" type="line" smooth="yes"/>
      <point x="35" y="366"/>
      <point x="32" y="362"/>
      <point x="32" y="357" type="curve" smooth="yes"/>
      <point x="32" y="293" type="line" smooth="yes"/>
      <point x="32" y="288"/>
      <point x="35" y="283"/>
      <point x="39" y="282" type="curve" smooth="yes"/>
      <point x="441" y="116" type="line" smooth="yes"/>
      <point x="449" y="113"/>
      <point x="458" y="119"/>
      <point x="458" y="127" type="curve" smooth="yes"/>
      <point x="458" y="206" type="line" smooth="yes"/>
      <point x="458" y="210"/>
      <point x="455" y="215"/>
      <point x="450" y="217" type="curve" smooth="yes"/>
      <point x="181" y="321" type="line" smooth="yes"/>
      <point x="176" y="323"/>
      <point x="176" y="330"/>
      <point x="181" y="332" type="curve" smooth="yes"/>
      <point x="450" y="440" type="line" smooth="yes"/>
      <point x="455" y="442"/>
      <point x="458" y="446"/>
    </contour>
  </outline>
</glyph>
<glyph name="equal" format="1">
  <advance width="388"/>
  <unicode hex="003D"/>
  <note>
    equal
  </note>
  <outline>
    <contour>
      <point x="345" y="290" type="curve" smooth="yes"/>
      <point x="43" y="290" type="line" smooth="yes"/>
      <point x="36" y="290"/>
      <point x="31" y="284"/>
      <point x="31" y="278" type="curve" smooth="yes"/>
      <point x="31" y="220" type="line" smooth="yes"/>
      <point x="31" y="214"/>
      <point x="36" y="209"/>
      <point x="43" y="209" type="curve" smooth="yes"/>
      <point x="345" y="209" type="line" smooth="yes"/>
      <point x="351" y="209"/>
      <point x="357" y="214"/>
      <point x="357" y="220" type="curve" smooth="yes"/>
      <point x="357" y="278" type="line" smooth="yes"/>
      <point x="357" y="284"/>
      <point x="351" y="290"/>
    </contour>
    <contour>
      <point x="345" y="447" type="curve" smooth="yes"/>
      <point x="43" y="447" type="line" smooth="yes"/>
      <point x="36" y="447"/>
      <point x="31" y="442"/>
      <point x="31" y="436" type="curve" smooth="yes"/>
      <point x="31" y="378" type="line" smooth="yes"/>
      <point x="31" y="372"/>
      <point x="36" y="366"/>
      <point x="43" y="366" type="curve" smooth="yes"/>
      <point x="345" y="366" type="line" smooth="yes"/>
      <point x="351" y="366"/>
      <point x="357" y="372"/>
      <point x="357" y="378" type="curve" smooth="yes"/>
      <point x="357" y="436" type="line" smooth="yes"/>
      <point x="357" y="442"/>
      <point x="351" y="447"/>
    </contour>
  </outline>
</glyph>
<glyph name="greater" format="1">
  <advance width="500"/>
  <unicode hex="003E"/>
  <note>
    greater
  </note>
  <outline>
    <contour>
      <point x="460" y="368" type="curve" smooth="yes"/>
      <point x="58" y="533" type="line" smooth="yes"/>
      <point x="51" y="537"/>
      <point x="42" y="531"/>
      <point x="42" y="523" type="curve" smooth="yes"/>
      <point x="42" y="444" type="line" smooth="yes"/>
      <point x="42" y="439"/>
      <point x="45" y="435"/>
      <point x="50" y="433" type="curve" smooth="yes"/>
      <point x="318" y="328" type="line" smooth="yes"/>
      <point x="323" y="326"/>
      <point x="323" y="319"/>
      <point x="319" y="317" type="curve" smooth="yes"/>
      <point x="49" y="210" type="line" smooth="yes"/>
      <point x="45" y="208"/>
      <point x="42" y="204"/>
      <point x="42" y="199" type="curve" smooth="yes"/>
      <point x="42" y="127" type="line" smooth="yes"/>
      <point x="42" y="119"/>
      <point x="51" y="113"/>
      <point x="58" y="116" type="curve" smooth="yes"/>
      <point x="460" y="282" type="line" smooth="yes"/>
      <point x="465" y="284"/>
      <point x="467" y="288"/>
      <point x="467" y="293" type="curve" smooth="yes"/>
      <point x="467" y="357" type="line" smooth="yes"/>
      <point x="467" y="362"/>
      <point x="465" y="366"/>
    </contour>
  </outline>
</glyph>
<glyph name="question" format="1">
  <advance width="522"/>
  <unicode hex="003F"/>
  <note>
    question
  </note>
  <outline>
    <contour>
      <point x="263" y="706" type="curve" smooth="yes"/>
      <point x="134" y="706"/>
      <point x="37" y="624"/>
      <point x="29" y="500" type="curve" smooth="yes"/>
      <point x="29" y="493"/>
      <point x="34" y="488"/>
      <point x="41" y="488" type="curve" smooth="yes"/>
      <point x="117" y="488" type="line" smooth="yes"/>
      <point x="123" y="488"/>
      <point x="128" y="492"/>
      <point x="129" y="499" type="curve" smooth="yes"/>
      <point x="134" y="569"/>
      <point x="186" y="621"/>
      <point x="258" y="621" type="curve" smooth="yes"/>
      <point x="268" y="621" type="line" smooth="yes"/>
      <point x="335" y="621"/>
      <point x="392" y="563"/>
      <point x="392" y="498" type="curve" smooth="yes"/>
      <point x="392" y="495"/>
      <point x="392" y="499"/>
      <point x="392" y="496" type="curve" smooth="yes"/>
      <point x="392" y="434"/>
      <point x="352" y="396"/>
      <point x="298" y="364" type="curve" smooth="yes"/>
      <point x="275" y="351"/>
      <point x="250" y="338"/>
      <point x="224" y="326" type="curve" smooth="yes"/>
      <point x="212" y="320"/>
      <point x="204" y="307"/>
      <point x="204" y="294" type="curve" smooth="yes"/>
      <point x="204" y="181" type="line" smooth="yes"/>
      <point x="204" y="175"/>
      <point x="209" y="170"/>
      <point x="216" y="170" type="curve" smooth="yes"/>
      <point x="286" y="170" type="line" smooth="yes"/>
      <point x="293" y="170"/>
      <point x="298" y="175"/>
      <point x="298" y="181" type="curve" smooth="yes"/>
      <point x="298" y="267" type="line" smooth="yes"/>
      <point x="298" y="271"/>
      <point x="301" y="275"/>
      <point x="304" y="277" type="curve" smooth="yes"/>
      <point x="395" y="323"/>
      <point x="483" y="375"/>
      <point x="483" y="496" type="curve"/>
      <point x="483" y="496"/>
      <point x="483" y="496"/>
      <point x="483" y="497" type="curve" smooth="yes"/>
      <point x="483" y="614"/>
      <point x="386" y="706"/>
    </contour>
    <contour>
      <point x="255" y="112" type="curve" smooth="yes"/>
      <point x="221" y="112"/>
      <point x="194" y="85"/>
      <point x="194" y="51" type="curve" smooth="yes"/>
      <point x="194" y="17"/>
      <point x="221" y="-10"/>
      <point x="255" y="-10" type="curve" smooth="yes"/>
      <point x="289" y="-10"/>
      <point x="317" y="17"/>
      <point x="317" y="51" type="curve" smooth="yes"/>
      <point x="317" y="85"/>
      <point x="289" y="112"/>
    </contour>
  </outline>
</glyph>
<glyph name="B" format="1">
  <advance width="625"/>
  <unicode hex="0042"/>
  <note>
    B
  </note>
  <outline>
    <contour>
      <point x="465" y="352" type="curve" smooth="yes"/>
      <point x="462" y="353"/>
      <point x="462" y="357"/>
      <point x="465" y="359" type="curve" smooth="yes"/>
      <point x="528" y="387"/>
      <point x="568" y="442"/>
      <point x="568" y="514" type="curve" smooth="yes"/>
      <point x="568" y="627"/>
      <point x="479" y="699"/>
      <point x="369" y="699" type="curve" smooth="yes"/>
      <point x="106" y="699" type="line" smooth="yes"/>
      <point x="83" y="699"/>
      <point x="64" y="680"/>
      <point x="64" y="657" type="curve" smooth="yes"/>
      <point x="64" y="42" type="line" smooth="yes"/>
      <point x="64" y="19"/>
      <point x="83" y="0"/>
      <point x="106" y="0" type="curve" smooth="yes"/>
      <point x="379" y="0" type="line" smooth="yes"/>
      <point x="489" y="0"/>
      <point x="583" y="76"/>
      <point x="583" y="190" type="curve"/>
      <point x="583" y="274"/>
      <point x="539" y="336"/>
    </contour>
    <contour>
      <point x="164" y="595" type="line"/>
      <point x="164" y="603"/>
      <point x="170" y="609"/>
      <point x="178" y="609" type="curve" smooth="yes"/>
      <point x="354" y="609" type="line" smooth="yes"/>
      <point x="424" y="609"/>
      <point x="468" y="568"/>
      <point x="468" y="504" type="curve" smooth="yes"/>
      <point x="468" y="440"/>
      <point x="424" y="399"/>
      <point x="354" y="399" type="curve" smooth="yes"/>
      <point x="178" y="399" type="line" smooth="yes"/>
      <point x="170" y="399"/>
      <point x="164" y="406"/>
      <point x="164" y="413" type="curve" smooth="yes"/>
    </contour>
    <contour>
      <point x="359" y="90" type="curve" smooth="yes"/>
      <point x="178" y="90" type="line" smooth="yes"/>
      <point x="170" y="90"/>
      <point x="164" y="96"/>
      <point x="164" y="104" type="curve" smooth="yes"/>
      <point x="164" y="296" type="line" smooth="yes"/>
      <point x="164" y="303"/>
      <point x="170" y="310"/>
      <point x="178" y="310" type="curve" smooth="yes"/>
      <point x="359" y="310" type="line" smooth="yes"/>
      <point x="434" y="310"/>
      <point x="483" y="269"/>
      <point x="483" y="200" type="curve" smooth="yes"/>
      <point x="483" y="131"/>
      <point x="434" y="90"/>
    </contour>
  </outline>
</glyph>
<glyph name="C" format="1">
  <advance width="678"/>
  <unicode hex="0043"/>
  <note>
    C
  </note>
  <outline>
    <contour>
      <point x="630" y="220" type="curve" smooth="yes"/>
      <point x="558" y="220" type="line" smooth="yes"/>
      <point x="551" y="220"/>
      <point x="545" y="215"/>
      <point x="544" y="208" type="curve" smooth="yes"/>
      <point x="532" y="128"/>
      <point x="457" y="80"/>
      <point x="371" y="80" type="curve" smooth="yes"/>
      <point x="361" y="80" type="line" smooth="yes"/>
      <point x="220" y="80"/>
      <point x="136" y="197"/>
      <point x="136" y="350" type="curve" smooth="yes"/>
      <point x="136" y="502"/>
      <point x="220" y="619"/>
      <point x="361" y="619" type="curve" smooth="yes"/>
      <point x="371" y="619" type="line" smooth="yes"/>
      <point x="457" y="619"/>
      <point x="532" y="570"/>
      <point x="544" y="491" type="curve" smooth="yes"/>
      <point x="545" y="484"/>
      <point x="551" y="479"/>
      <point x="558" y="479" type="curve" smooth="yes"/>
      <point x="630" y="479" type="line" smooth="yes"/>
      <point x="639" y="479"/>
      <point x="645" y="487"/>
      <point x="644" y="495" type="curve" smooth="yes"/>
      <point x="630" y="626"/>
      <point x="511" y="709"/>
      <point x="366" y="709" type="curve" smooth="yes"/>
      <point x="166" y="712"/>
      <point x="33" y="554"/>
      <point x="36" y="350" type="curve" smooth="yes"/>
      <point x="33" y="147"/>
      <point x="166" y="-14"/>
      <point x="366" y="-10" type="curve" smooth="yes"/>
      <point x="511" y="-10"/>
      <point x="630" y="73"/>
      <point x="644" y="204" type="curve" smooth="yes"/>
      <point x="645" y="212"/>
      <point x="639" y="220"/>
    </contour>
  </outline>
</glyph>
<glyph name="D" format="1">
  <advance width="675"/>
  <unicode hex="0044"/>
  <note>
    D
  </note>
  <outline>
    <contour>
      <point x="314" y="699" type="curve" smooth="yes"/>
      <point x="106" y="699" type="line" smooth="yes"/>
      <point x="83" y="699"/>
      <point x="64" y="680"/>
      <point x="64" y="657" type="curve" smooth="yes"/>
      <point x="64" y="42" type="line" smooth="yes"/>
      <point x="64" y="19"/>
      <point x="83" y="0"/>
      <point x="106" y="0" type="curve" smooth="yes"/>
      <point x="314" y="0" type="line" smooth="yes"/>
      <point x="508" y="0"/>
      <point x="638" y="132"/>
      <point x="638" y="350" type="curve" smooth="yes"/>
      <point x="638" y="566"/>
      <point x="508" y="699"/>
    </contour>
    <contour>
      <point x="304" y="90" type="curve" smooth="yes"/>
      <point x="178" y="90" type="line" smooth="yes"/>
      <point x="170" y="90"/>
      <point x="164" y="96"/>
      <point x="164" y="104" type="curve" smooth="yes"/>
      <point x="164" y="595" type="line" smooth="yes"/>
      <point x="164" y="603"/>
      <point x="170" y="609"/>
      <point x="178" y="609" type="curve" smooth="yes"/>
      <point x="304" y="609" type="line" smooth="yes"/>
      <point x="454" y="609"/>
      <point x="538" y="518"/>
      <point x="538" y="350" type="curve" smooth="yes"/>
      <point x="538" y="181"/>
      <point x="454" y="90"/>
    </contour>
  </outline>
</glyph>
<glyph name="E" format="1">
  <advance width="611"/>
  <unicode hex="0045"/>
  <note>
    E
  </note>
  <outline>
    <contour>
      <point x="569" y="90" type="curve" smooth="yes"/>
      <point x="178" y="90" type="line" smooth="yes"/>
      <point x="170" y="90"/>
      <point x="164" y="96"/>
      <point x="164" y="104" type="curve" smooth="yes"/>
      <point x="164" y="301" type="line" smooth="yes"/>
      <point x="164" y="308"/>
      <point x="170" y="315"/>
      <point x="178" y="315" type="curve" smooth="yes"/>
      <point x="499" y="315" type="line" smooth="yes"/>
      <point x="507" y="315"/>
      <point x="513" y="321"/>
      <point x="513" y="328" type="curve" smooth="yes"/>
      <point x="513" y="391" type="line" smooth="yes"/>
      <point x="513" y="398"/>
      <point x="507" y="404"/>
      <point x="499" y="404" type="curve" smooth="yes"/>
      <point x="178" y="404" type="line" smooth="yes"/>
      <point x="170" y="404"/>
      <point x="164" y="411"/>
      <point x="164" y="418" type="curve" smooth="yes"/>
      <point x="164" y="595" type="line" smooth="yes"/>
      <point x="164" y="603"/>
      <point x="170" y="609"/>
      <point x="178" y="609" type="curve" smooth="yes"/>
      <point x="559" y="609" type="line" smooth="yes"/>
      <point x="567" y="609"/>
      <point x="573" y="615"/>
      <point x="573" y="623" type="curve" smooth="yes"/>
      <point x="573" y="685" type="line" smooth="yes"/>
      <point x="573" y="693"/>
      <point x="567" y="699"/>
      <point x="559" y="699" type="curve" smooth="yes"/>
      <point x="106" y="699" type="line" smooth="yes"/>
      <point x="83" y="699"/>
      <point x="64" y="680"/>
      <point x="64" y="657" type="curve" smooth="yes"/>
      <point x="64" y="42" type="line" smooth="yes"/>
      <point x="64" y="19"/>
      <point x="83" y="0"/>
      <point x="106" y="0" type="curve" smooth="yes"/>
      <point x="569" y="0" type="line" smooth="yes"/>
      <point x="577" y="0"/>
      <point x="583" y="6"/>
      <point x="583" y="14" type="curve" smooth="yes"/>
      <point x="583" y="76" type="line" smooth="yes"/>
      <point x="583" y="84"/>
      <point x="577" y="90"/>
    </contour>
  </outline>
</glyph>
<glyph name="F" format="1">
  <advance width="571"/>
  <unicode hex="0046"/>
  <note>
    F
  </note>
  <outline>
    <contour>
      <point x="539" y="699" type="curve" smooth="yes"/>
      <point x="106" y="699" type="line" smooth="yes"/>
      <point x="83" y="699"/>
      <point x="64" y="680"/>
      <point x="64" y="657" type="curve" smooth="yes"/>
      <point x="64" y="14" type="line" smooth="yes"/>
      <point x="64" y="6"/>
      <point x="70" y="0"/>
      <point x="78" y="0" type="curve" smooth="yes"/>
      <point x="150" y="0" type="line" smooth="yes"/>
      <point x="158" y="0"/>
      <point x="164" y="6"/>
      <point x="164" y="14" type="curve" smooth="yes"/>
      <point x="164" y="281" type="line" smooth="yes"/>
      <point x="164" y="288"/>
      <point x="170" y="295"/>
      <point x="178" y="295" type="curve" smooth="yes"/>
      <point x="489" y="295" type="line" smooth="yes"/>
      <point x="497" y="295"/>
      <point x="503" y="301"/>
      <point x="503" y="308" type="curve" smooth="yes"/>
      <point x="503" y="371" type="line" smooth="yes"/>
      <point x="503" y="378"/>
      <point x="497" y="384"/>
      <point x="489" y="384" type="curve" smooth="yes"/>
      <point x="178" y="384" type="line" smooth="yes"/>
      <point x="170" y="384"/>
      <point x="164" y="391"/>
      <point x="164" y="398" type="curve" smooth="yes"/>
      <point x="164" y="595" type="line" smooth="yes"/>
      <point x="164" y="603"/>
      <point x="170" y="609"/>
      <point x="178" y="609" type="curve" smooth="yes"/>
      <point x="539" y="609" type="line" smooth="yes"/>
      <point x="547" y="609"/>
      <point x="553" y="615"/>
      <point x="553" y="623" type="curve" smooth="yes"/>
      <point x="553" y="685" type="line" smooth="yes"/>
      <point x="553" y="693"/>
      <point x="547" y="699"/>
    </contour>
  </outline>
</glyph>
<glyph name="G" format="1">
  <advance width="713"/>
  <unicode hex="0047"/>
  <note>
    G
  </note>
  <outline>
    <contour>
      <point x="620" y="352" type="curve" smooth="yes"/>
      <point x="389" y="352" type="line" smooth="yes"/>
      <point x="382" y="352"/>
      <point x="375" y="346"/>
      <point x="375" y="338" type="curve" smooth="yes"/>
      <point x="375" y="280" type="line" smooth="yes"/>
      <point x="375" y="272"/>
      <point x="382" y="266"/>
      <point x="389" y="266" type="curve" smooth="yes"/>
      <point x="559" y="266" type="line" smooth="yes"/>
      <point x="572" y="266"/>
      <point x="575" y="262"/>
      <point x="575" y="251" type="curve" smooth="yes"/>
      <point x="575" y="145"/>
      <point x="503" y="80"/>
      <point x="380" y="80" type="curve" smooth="yes"/>
      <point x="370" y="80" type="line" smooth="yes"/>
      <point x="231" y="80"/>
      <point x="136" y="183"/>
      <point x="136" y="350" type="curve" smooth="yes"/>
      <point x="136" y="518"/>
      <point x="231" y="619"/>
      <point x="370" y="619" type="curve" smooth="yes"/>
      <point x="380" y="619" type="line" smooth="yes"/>
      <point x="481" y="619"/>
      <point x="544" y="570"/>
      <point x="559" y="481" type="curve" smooth="yes"/>
      <point x="560" y="475"/>
      <point x="565" y="469"/>
      <point x="572" y="469" type="curve" smooth="yes"/>
      <point x="645" y="469" type="line" smooth="yes"/>
      <point x="653" y="469"/>
      <point x="660" y="477"/>
      <point x="659" y="485" type="curve" smooth="yes"/>
      <point x="643" y="616"/>
      <point x="545" y="709"/>
      <point x="375" y="709" type="curve" smooth="yes"/>
      <point x="169" y="709"/>
      <point x="36" y="559"/>
      <point x="36" y="350" type="curve" smooth="yes"/>
      <point x="36" y="141"/>
      <point x="173" y="-10"/>
      <point x="375" y="-10" type="curve" smooth="yes"/>
      <point x="474" y="-10"/>
      <point x="541" y="36"/>
      <point x="569" y="71" type="curve" smooth="yes"/>
      <point x="571" y="73"/>
      <point x="575" y="72"/>
      <point x="575" y="68" type="curve" smooth="yes"/>
      <point x="575" y="14" type="line" smooth="yes"/>
      <point x="575" y="6"/>
      <point x="581" y="0"/>
      <point x="589" y="0" type="curve" smooth="yes"/>
      <point x="647" y="0" type="line" smooth="yes"/>
      <point x="655" y="0"/>
      <point x="661" y="6"/>
      <point x="661" y="14" type="curve" smooth="yes"/>
      <point x="661" y="310" type="line"/>
      <point x="661" y="333"/>
      <point x="643" y="352"/>
    </contour>
  </outline>
</glyph>
<glyph name="H" format="1">
  <advance width="683"/>
  <unicode hex="0048"/>
  <note>
    H
  </note>
  <outline>
    <contour>
      <point x="604" y="699" type="curve" smooth="yes"/>
      <point x="532" y="699" type="line" smooth="yes"/>
      <point x="525" y="699"/>
      <point x="518" y="693"/>
      <point x="518" y="686" type="curve" smooth="yes"/>
      <point x="518" y="409" type="line" smooth="yes"/>
      <point x="518" y="401"/>
      <point x="512" y="395"/>
      <point x="504" y="395" type="curve" smooth="yes"/>
      <point x="178" y="395" type="line" smooth="yes"/>
      <point x="170" y="395"/>
      <point x="164" y="401"/>
      <point x="164" y="409" type="curve" smooth="yes"/>
      <point x="164" y="686" type="line" smooth="yes"/>
      <point x="164" y="693"/>
      <point x="158" y="699"/>
      <point x="150" y="699" type="curve" smooth="yes"/>
      <point x="78" y="699" type="line" smooth="yes"/>
      <point x="70" y="699"/>
      <point x="64" y="693"/>
      <point x="64" y="686" type="curve" smooth="yes"/>
      <point x="64" y="14" type="line" smooth="yes"/>
      <point x="64" y="7"/>
      <point x="70" y="0"/>
      <point x="78" y="0" type="curve" smooth="yes"/>
      <point x="150" y="0" type="line" smooth="yes"/>
      <point x="158" y="0"/>
      <point x="164" y="7"/>
      <point x="164" y="14" type="curve" smooth="yes"/>
      <point x="164" y="291" type="line" smooth="yes"/>
      <point x="164" y="299"/>
      <point x="170" y="305"/>
      <point x="178" y="305" type="curve" smooth="yes"/>
      <point x="504" y="305" type="line" smooth="yes"/>
      <point x="512" y="305"/>
      <point x="518" y="299"/>
      <point x="518" y="291" type="curve" smooth="yes"/>
      <point x="518" y="14" type="line" smooth="yes"/>
      <point x="518" y="7"/>
      <point x="525" y="0"/>
      <point x="532" y="0" type="curve" smooth="yes"/>
      <point x="604" y="0" type="line" smooth="yes"/>
      <point x="612" y="0"/>
      <point x="618" y="7"/>
      <point x="618" y="14" type="curve" smooth="yes"/>
      <point x="618" y="686" type="line" smooth="yes"/>
      <point x="618" y="693"/>
      <point x="612" y="699"/>
    </contour>
  </outline>
</glyph>
<glyph name="I" format="1">
  <advance width="228"/>
  <unicode hex="0049"/>
  <note>
    I
  </note>
  <outline>
    <contour>
      <point x="150" y="699" type="curve" smooth="yes"/>
      <point x="78" y="699" type="line" smooth="yes"/>
      <point x="70" y="699"/>
      <point x="64" y="693"/>
      <point x="64" y="685" type="curve" smooth="yes"/>
      <point x="64" y="14" type="line" smooth="yes"/>
      <point x="64" y="6"/>
      <point x="70" y="0"/>
      <point x="78" y="0" type="curve" smooth="yes"/>
      <point x="150" y="0" type="line" smooth="yes"/>
      <point x="158" y="0"/>
      <point x="164" y="6"/>
      <point x="164" y="14" type="curve" smooth="yes"/>
      <point x="164" y="685" type="line" smooth="yes"/>
      <point x="164" y="693"/>
      <point x="158" y="699"/>
    </contour>
  </outline>
</glyph>
<glyph name="J" format="1">
  <advance width="365"/>
  <unicode hex="004A"/>
  <note>
    J
  </note>
  <outline>
    <contour>
      <point x="287" y="699" type="curve" smooth="yes"/>
      <point x="215" y="699" type="line" smooth="yes"/>
      <point x="207" y="699"/>
      <point x="201" y="693"/>
      <point x="201" y="685" type="curve" smooth="yes"/>
      <point x="201" y="109" type="line" smooth="yes"/>
      <point x="201" y="101"/>
      <point x="195" y="95"/>
      <point x="187" y="95" type="curve" smooth="yes"/>
      <point x="20" y="95" type="line" smooth="yes"/>
      <point x="12" y="95"/>
      <point x="6" y="89"/>
      <point x="6" y="81" type="curve" smooth="yes"/>
      <point x="6" y="14" type="line" smooth="yes"/>
      <point x="6" y="6"/>
      <point x="12" y="0"/>
      <point x="20" y="0" type="curve" smooth="yes"/>
      <point x="259" y="0" type="line" smooth="yes"/>
      <point x="282" y="0"/>
      <point x="301" y="19"/>
      <point x="301" y="42" type="curve" smooth="yes"/>
      <point x="301" y="685" type="line" smooth="yes"/>
      <point x="301" y="693"/>
      <point x="294" y="699"/>
    </contour>
  </outline>
</glyph>
<glyph name="K" format="1">
  <advance width="604"/>
  <unicode hex="004B"/>
  <note>
    K
  </note>
  <outline>
    <contour>
      <point x="312" y="382" type="curve"/>
      <point x="558" y="675" type="line"/>
      <point x="567" y="684"/>
      <point x="560" y="699"/>
      <point x="548" y="699" type="curve" smooth="yes"/>
      <point x="463" y="699" type="line" smooth="yes"/>
      <point x="455" y="699"/>
      <point x="448" y="696"/>
      <point x="443" y="691" type="curve"/>
      <point x="186" y="388" type="line"/>
      <point x="186" y="388"/>
      <point x="176" y="375"/>
      <point x="171" y="375" type="curve" smooth="yes"/>
      <point x="166" y="375"/>
      <point x="165" y="379"/>
      <point x="165" y="383" type="curve" smooth="yes"/>
      <point x="165" y="384"/>
      <point x="165" y="685"/>
      <point x="165" y="685" type="curve"/>
      <point x="165" y="691"/>
      <point x="161" y="696"/>
      <point x="156" y="698" type="curve" smooth="yes"/>
      <point x="154" y="699"/>
      <point x="153" y="699"/>
      <point x="151" y="699" type="curve" smooth="yes"/>
      <point x="79" y="699" type="line" smooth="yes"/>
      <point x="71" y="699"/>
      <point x="65" y="693"/>
      <point x="65" y="685" type="curve" smooth="yes"/>
      <point x="65" y="14" type="line" smooth="yes"/>
      <point x="65" y="6"/>
      <point x="71" y="0"/>
      <point x="79" y="0" type="curve" smooth="yes"/>
      <point x="150" y="0" type="line" smooth="yes"/>
      <point x="158" y="0"/>
      <point x="164" y="6"/>
      <point x="164" y="14" type="curve" smooth="yes"/>
      <point x="164" y="275" type="line" smooth="yes"/>
      <point x="164" y="283"/>
      <point x="170" y="289"/>
      <point x="178" y="289" type="curve" smooth="yes"/>
      <point x="445" y="289" type="line" smooth="yes"/>
      <point x="453" y="289"/>
      <point x="459" y="283"/>
      <point x="459" y="275" type="curve" smooth="yes"/>
      <point x="459" y="14" type="line" smooth="yes"/>
      <point x="459" y="6"/>
      <point x="465" y="0"/>
      <point x="473" y="0" type="curve" smooth="yes"/>
      <point x="540" y="0" type="line" smooth="yes"/>
      <point x="547" y="0"/>
      <point x="554" y="6"/>
      <point x="554" y="14" type="curve" smooth="yes"/>
      <point x="554" y="333" type="line" smooth="yes"/>
      <point x="554" y="356"/>
      <point x="535" y="375"/>
      <point x="512" y="375" type="curve" smooth="yes"/>
      <point x="315" y="376" type="line" smooth="yes"/>
      <point x="312" y="376"/>
      <point x="310" y="380"/>
    </contour>
  </outline>
</glyph>
<glyph name="L" format="1">
  <advance width="522"/>
  <unicode hex="004C"/>
  <note>
    L
  </note>
  <outline>
    <contour>
      <point x="502" y="90" type="curve" smooth="yes"/>
      <point x="178" y="90" type="line" smooth="yes"/>
      <point x="170" y="90"/>
      <point x="164" y="96"/>
      <point x="164" y="104" type="curve" smooth="yes"/>
      <point x="164" y="685" type="line" smooth="yes"/>
      <point x="164" y="693"/>
      <point x="158" y="699"/>
      <point x="150" y="699" type="curve" smooth="yes"/>
      <point x="78" y="699" type="line" smooth="yes"/>
      <point x="70" y="699"/>
      <point x="64" y="693"/>
      <point x="64" y="685" type="curve" smooth="yes"/>
      <point x="64" y="42" type="line" smooth="yes"/>
      <point x="64" y="19"/>
      <point x="83" y="0"/>
      <point x="106" y="0" type="curve" smooth="yes"/>
      <point x="502" y="0" type="line" smooth="yes"/>
      <point x="509" y="0"/>
      <point x="516" y="6"/>
      <point x="516" y="14" type="curve" smooth="yes"/>
      <point x="516" y="76" type="line" smooth="yes"/>
      <point x="516" y="84"/>
      <point x="509" y="90"/>
    </contour>
  </outline>
</glyph>
<glyph name="M" format="1">
  <advance width="872"/>
  <unicode hex="004D"/>
  <note>
    M
  </note>
  <outline>
    <contour>
      <point x="794" y="699" type="curve" smooth="yes"/>
      <point x="653" y="699" type="line" smooth="yes"/>
      <point x="647" y="699"/>
      <point x="642" y="695"/>
      <point x="640" y="690" type="curve" smooth="yes"/>
      <point x="445" y="113" type="line" smooth="yes"/>
      <point x="443" y="107"/>
      <point x="434" y="107"/>
      <point x="432" y="113" type="curve" smooth="yes"/>
      <point x="233" y="690" type="line" smooth="yes"/>
      <point x="231" y="695"/>
      <point x="226" y="699"/>
      <point x="220" y="699" type="curve" smooth="yes"/>
      <point x="78" y="699" type="line" smooth="yes"/>
      <point x="70" y="699"/>
      <point x="64" y="693"/>
      <point x="64" y="685" type="curve" smooth="yes"/>
      <point x="64" y="14" type="line" smooth="yes"/>
      <point x="64" y="6"/>
      <point x="70" y="0"/>
      <point x="78" y="0" type="curve" smooth="yes"/>
      <point x="150" y="0" type="line" smooth="yes"/>
      <point x="158" y="0"/>
      <point x="164" y="6"/>
      <point x="164" y="14" type="curve" smooth="yes"/>
      <point x="164" y="571" type="line" smooth="yes"/>
      <point x="164" y="579"/>
      <point x="175" y="580"/>
      <point x="177" y="573" type="curve" smooth="yes"/>
      <point x="371" y="9" type="line" smooth="yes"/>
      <point x="373" y="4"/>
      <point x="379" y="0"/>
      <point x="384" y="0" type="curve" smooth="yes"/>
      <point x="492" y="0" type="line" smooth="yes"/>
      <point x="498" y="0"/>
      <point x="504" y="4"/>
      <point x="506" y="9" type="curve" smooth="yes"/>
      <point x="695" y="573" type="line" smooth="yes"/>
      <point x="697" y="580"/>
      <point x="708" y="579"/>
      <point x="708" y="571" type="curve" smooth="yes"/>
      <point x="708" y="14" type="line" smooth="yes"/>
      <point x="708" y="6"/>
      <point x="714" y="0"/>
      <point x="722" y="0" type="curve" smooth="yes"/>
      <point x="794" y="0" type="line" smooth="yes"/>
      <point x="802" y="0"/>
      <point x="808" y="6"/>
      <point x="808" y="14" type="curve" smooth="yes"/>
      <point x="808" y="685" type="line" smooth="yes"/>
      <point x="808" y="693"/>
      <point x="802" y="699"/>
    </contour>
  </outline>
</glyph>
<glyph name="N" format="1">
  <advance width="693"/>
  <unicode hex="004E"/>
  <note>
    N
  </note>
  <outline>
    <contour>
      <point x="614" y="699" type="curve" smooth="yes"/>
      <point x="542" y="699" type="line" smooth="yes"/>
      <point x="535" y="699"/>
      <point x="528" y="693"/>
      <point x="528" y="685" type="curve" smooth="yes"/>
      <point x="528" y="146" type="line" smooth="yes"/>
      <point x="528" y="139"/>
      <point x="519" y="137"/>
      <point x="515" y="143" type="curve" smooth="yes"/>
      <point x="212" y="685" type="line" smooth="yes"/>
      <point x="207" y="694"/>
      <point x="198" y="699"/>
      <point x="188" y="699" type="curve" smooth="yes"/>
      <point x="78" y="699" type="line" smooth="yes"/>
      <point x="70" y="699"/>
      <point x="64" y="693"/>
      <point x="64" y="685" type="curve" smooth="yes"/>
      <point x="64" y="14" type="line" smooth="yes"/>
      <point x="64" y="6"/>
      <point x="70" y="0"/>
      <point x="78" y="0" type="curve" smooth="yes"/>
      <point x="150" y="0" type="line" smooth="yes"/>
      <point x="158" y="0"/>
      <point x="164" y="6"/>
      <point x="164" y="14" type="curve" smooth="yes"/>
      <point x="164" y="552" type="line" smooth="yes"/>
      <point x="164" y="559"/>
      <point x="173" y="561"/>
      <point x="177" y="555" type="curve" smooth="yes"/>
      <point x="480" y="14" type="line" smooth="yes"/>
      <point x="485" y="5"/>
      <point x="495" y="0"/>
      <point x="505" y="0" type="curve" smooth="yes"/>
      <point x="614" y="0" type="line" smooth="yes"/>
      <point x="622" y="0"/>
      <point x="628" y="6"/>
      <point x="628" y="14" type="curve" smooth="yes"/>
      <point x="628" y="685" type="line"/>
      <point x="628" y="693"/>
      <point x="622" y="699"/>
    </contour>
  </outline>
</glyph>
<glyph name="O" format="1">
  <advance width="783"/>
  <unicode hex="004F"/>
  <note>
    O
  </note>
  <outline>
    <contour>
      <point x="391" y="708" type="curve" smooth="yes"/>
      <point x="193" y="708"/>
      <point x="32" y="547"/>
      <point x="32" y="349" type="curve" smooth="yes"/>
      <point x="32" y="151"/>
      <point x="193" y="-10"/>
      <point x="391" y="-10" type="curve" smooth="yes"/>
      <point x="589" y="-10"/>
      <point x="750" y="151"/>
      <point x="750" y="349" type="curve" smooth="yes"/>
      <point x="750" y="547"/>
      <point x="589" y="708"/>
    </contour>
    <contour>
      <point x="391" y="90" type="curve" smooth="yes"/>
      <point x="248" y="90"/>
      <point x="132" y="206"/>
      <point x="132" y="349" type="curve" smooth="yes"/>
      <point x="132" y="492"/>
      <point x="248" y="608"/>
      <point x="391" y="608" type="curve" smooth="yes"/>
      <point x="534" y="608"/>
      <point x="650" y="492"/>
      <point x="650" y="349" type="curve" smooth="yes"/>
      <point x="650" y="206"/>
      <point x="534" y="90"/>
    </contour>
  </outline>
</glyph>
<glyph name="P" format="1">
  <advance width="608"/>
  <unicode hex="0050"/>
  <note>
    P
  </note>
  <outline>
    <contour>
      <point x="359" y="699" type="curve" smooth="yes"/>
      <point x="106" y="699" type="line" smooth="yes"/>
      <point x="83" y="699"/>
      <point x="64" y="680"/>
      <point x="64" y="657" type="curve" smooth="yes"/>
      <point x="64" y="14" type="line" smooth="yes"/>
      <point x="64" y="6"/>
      <point x="70" y="0"/>
      <point x="78" y="0" type="curve" smooth="yes"/>
      <point x="150" y="0" type="line" smooth="yes"/>
      <point x="158" y="0"/>
      <point x="164" y="6"/>
      <point x="164" y="14" type="curve" smooth="yes"/>
      <point x="164" y="262" type="line" smooth="yes"/>
      <point x="164" y="269"/>
      <point x="170" y="276"/>
      <point x="178" y="276" type="curve" smooth="yes"/>
      <point x="359" y="276" type="line" smooth="yes"/>
      <point x="488" y="276"/>
      <point x="583" y="354"/>
      <point x="583" y="487" type="curve" smooth="yes"/>
      <point x="583" y="620"/>
      <point x="488" y="699"/>
    </contour>
    <contour>
      <point x="344" y="365" type="curve" smooth="yes"/>
      <point x="178" y="365" type="line" smooth="yes"/>
      <point x="170" y="365"/>
      <point x="164" y="372"/>
      <point x="164" y="379" type="curve" smooth="yes"/>
      <point x="164" y="595" type="line" smooth="yes"/>
      <point x="164" y="603"/>
      <point x="170" y="609"/>
      <point x="178" y="609" type="curve" smooth="yes"/>
      <point x="344" y="609" type="line" smooth="yes"/>
      <point x="434" y="609"/>
      <point x="483" y="566"/>
      <point x="483" y="487" type="curve" smooth="yes"/>
      <point x="483" y="407"/>
      <point x="434" y="365"/>
    </contour>
  </outline>
</glyph>
<glyph name="Q" format="1">
  <advance width="802"/>
  <unicode hex="0051"/>
  <note>
    Q
  </note>
  <outline>
    <contour>
      <point x="753" y="85" type="curve" smooth="yes"/>
      <point x="671" y="85" type="line" smooth="yes"/>
      <point x="668" y="85"/>
      <point x="666" y="87"/>
      <point x="665" y="89" type="curve" smooth="yes"/>
      <point x="655" y="106" type="line"/>
      <point x="714" y="170"/>
      <point x="750" y="255"/>
      <point x="750" y="349" type="curve" smooth="yes"/>
      <point x="750" y="548"/>
      <point x="589" y="709"/>
      <point x="391" y="709" type="curve" smooth="yes"/>
      <point x="193" y="709"/>
      <point x="32" y="548"/>
      <point x="32" y="349" type="curve" smooth="yes"/>
      <point x="32" y="151"/>
      <point x="193" y="-10"/>
      <point x="391" y="-10" type="curve" smooth="yes"/>
      <point x="465" y="-10"/>
      <point x="533" y="13"/>
      <point x="591" y="51" type="curve"/>
      <point x="612" y="14" type="line" smooth="yes"/>
      <point x="617" y="5"/>
      <point x="626" y="0"/>
      <point x="636" y="0" type="curve" smooth="yes"/>
      <point x="753" y="0" type="line" smooth="yes"/>
      <point x="760" y="0"/>
      <point x="767" y="6"/>
      <point x="767" y="14" type="curve" smooth="yes"/>
      <point x="767" y="71" type="line" smooth="yes"/>
      <point x="767" y="79"/>
      <point x="760" y="85"/>
    </contour>
    <contour>
      <point x="601" y="197" type="curve"/>
      <point x="547" y="289" type="line" smooth="yes"/>
      <point x="542" y="297"/>
      <point x="533" y="302"/>
      <point x="523" y="302" type="curve" smooth="yes"/>
      <point x="405" y="302" type="line" smooth="yes"/>
      <point x="397" y="302"/>
      <point x="391" y="296"/>
      <point x="391" y="289" type="curve" smooth="yes"/>
      <point x="391" y="230" type="line" smooth="yes"/>
      <point x="391" y="223"/>
      <point x="397" y="216"/>
      <point x="405" y="216" type="curve" smooth="yes"/>
      <point x="491" y="216" type="line" smooth="yes"/>
      <point x="493" y="216"/>
      <point x="495" y="215"/>
      <point x="497" y="213" type="curve" smooth="yes"/>
      <point x="540" y="137" type="line"/>
      <point x="498" y="108"/>
      <point x="447" y="90"/>
      <point x="391" y="90" type="curve" smooth="yes"/>
      <point x="248" y="90"/>
      <point x="132" y="206"/>
      <point x="132" y="349" type="curve" smooth="yes"/>
      <point x="132" y="493"/>
      <point x="248" y="609"/>
      <point x="391" y="609" type="curve" smooth="yes"/>
      <point x="534" y="609"/>
      <point x="650" y="493"/>
      <point x="650" y="349" type="curve" smooth="yes"/>
      <point x="650" y="292"/>
      <point x="632" y="240"/>
    </contour>
  </outline>
</glyph>
<glyph name="R" format="1">
  <advance width="634"/>
  <unicode hex="0052"/>
  <note>
    R
  </note>
  <outline>
    <contour>
      <point x="532" y="332" type="curve" smooth="yes"/>
      <point x="489" y="332" type="line"/>
      <point x="483" y="332"/>
      <point x="476" y="332"/>
      <point x="468" y="332" type="curve"/>
      <point x="534" y="352"/>
      <point x="583" y="421"/>
      <point x="583" y="509" type="curve" smooth="yes"/>
      <point x="583" y="618"/>
      <point x="492" y="699"/>
      <point x="364" y="699" type="curve" smooth="yes"/>
      <point x="106" y="699" type="line" smooth="yes"/>
      <point x="83" y="699"/>
      <point x="64" y="680"/>
      <point x="64" y="657" type="curve" smooth="yes"/>
      <point x="64" y="14" type="line" smooth="yes"/>
      <point x="64" y="6"/>
      <point x="70" y="0"/>
      <point x="78" y="0" type="curve" smooth="yes"/>
      <point x="150" y="0" type="line" smooth="yes"/>
      <point x="158" y="0"/>
      <point x="164" y="6"/>
      <point x="164" y="14" type="curve" smooth="yes"/>
      <point x="164" y="266" type="line" smooth="yes"/>
      <point x="164" y="273"/>
      <point x="170" y="280"/>
      <point x="178" y="280" type="curve" smooth="yes"/>
      <point x="403" y="280" type="line" smooth="yes"/>
      <point x="407" y="280"/>
      <point x="410" y="280"/>
      <point x="413" y="279" type="curve"/>
      <point x="460" y="279" type="line" smooth="yes"/>
      <point x="467" y="279"/>
      <point x="473" y="273"/>
      <point x="473" y="266" type="curve" smooth="yes"/>
      <point x="473" y="14" type="line" smooth="yes"/>
      <point x="473" y="6"/>
      <point x="480" y="0"/>
      <point x="487" y="0" type="curve" smooth="yes"/>
      <point x="559" y="0" type="line" smooth="yes"/>
      <point x="567" y="0"/>
      <point x="573" y="6"/>
      <point x="573" y="14" type="curve" smooth="yes"/>
      <point x="573" y="290" type="line" smooth="yes"/>
      <point x="573" y="313"/>
      <point x="555" y="332"/>
    </contour>
    <contour>
      <point x="349" y="369" type="curve" smooth="yes"/>
      <point x="178" y="369" type="line" smooth="yes"/>
      <point x="170" y="369"/>
      <point x="164" y="376"/>
      <point x="164" y="383" type="curve" smooth="yes"/>
      <point x="164" y="595" type="line" smooth="yes"/>
      <point x="164" y="603"/>
      <point x="170" y="609"/>
      <point x="178" y="609" type="curve" smooth="yes"/>
      <point x="349" y="609" type="line" smooth="yes"/>
      <point x="433" y="609"/>
      <point x="483" y="569"/>
      <point x="483" y="494" type="curve" smooth="yes"/>
      <point x="483" y="423"/>
      <point x="433" y="369"/>
    </contour>
  </outline>
</glyph>
<glyph name="S" format="1">
  <advance width="609"/>
  <unicode hex="0053"/>
  <note>
    S
  </note>
  <outline>
    <contour>
      <point x="379" y="390" type="curve" smooth="yes"/>
      <point x="267" y="412" type="line" smooth="yes"/>
      <point x="207" y="424"/>
      <point x="149" y="458"/>
      <point x="149" y="510" type="curve" smooth="yes"/>
      <point x="149" y="573"/>
      <point x="209" y="619"/>
      <point x="294" y="619" type="curve" smooth="yes"/>
      <point x="304" y="619" type="line" smooth="yes"/>
      <point x="386" y="619"/>
      <point x="447" y="573"/>
      <point x="457" y="501" type="curve" smooth="yes"/>
      <point x="458" y="494"/>
      <point x="464" y="489"/>
      <point x="471" y="489" type="curve" smooth="yes"/>
      <point x="543" y="489" type="line" smooth="yes"/>
      <point x="551" y="489"/>
      <point x="557" y="496"/>
      <point x="557" y="504" type="curve" smooth="yes"/>
      <point x="546" y="629"/>
      <point x="447" y="709"/>
      <point x="299" y="709" type="curve" smooth="yes"/>
      <point x="149" y="709"/>
      <point x="50" y="619"/>
      <point x="50" y="509" type="curve" smooth="yes"/>
      <point x="50" y="400"/>
      <point x="133" y="336"/>
      <point x="248" y="312" type="curve" smooth="yes"/>
      <point x="360" y="289" type="line" smooth="yes"/>
      <point x="434" y="274"/>
      <point x="469" y="242"/>
      <point x="469" y="185" type="curve" smooth="yes"/>
      <point x="469" y="127"/>
      <point x="416" y="80"/>
      <point x="325" y="80" type="curve" smooth="yes"/>
      <point x="315" y="80" type="line" smooth="yes"/>
      <point x="214" y="80"/>
      <point x="143" y="126"/>
      <point x="136" y="212" type="curve" smooth="yes"/>
      <point x="136" y="219"/>
      <point x="130" y="225"/>
      <point x="123" y="225" type="curve" smooth="yes"/>
      <point x="51" y="225" type="line" smooth="yes"/>
      <point x="43" y="225"/>
      <point x="36" y="218"/>
      <point x="37" y="210" type="curve" smooth="yes"/>
      <point x="49" y="66"/>
      <point x="149" y="-10"/>
      <point x="311" y="-10" type="curve" smooth="yes"/>
      <point x="464" y="-10"/>
      <point x="569" y="68"/>
      <point x="569" y="189" type="curve" smooth="yes"/>
      <point x="569" y="298"/>
      <point x="505" y="365"/>
    </contour>
  </outline>
</glyph>
<glyph name="T" format="1">
  <advance width="610"/>
  <unicode hex="0054"/>
  <note>
    T
  </note>
  <outline>
    <contour>
      <point x="591" y="699" type="curve" smooth="yes"/>
      <point x="19" y="699" type="line" smooth="yes"/>
      <point x="11" y="699"/>
      <point x="5" y="693"/>
      <point x="5" y="685" type="curve" smooth="yes"/>
      <point x="5" y="623" type="line" smooth="yes"/>
      <point x="5" y="615"/>
      <point x="11" y="609"/>
      <point x="19" y="609" type="curve" smooth="yes"/>
      <point x="241" y="609" type="line" smooth="yes"/>
      <point x="249" y="609"/>
      <point x="255" y="603"/>
      <point x="255" y="595" type="curve" smooth="yes"/>
      <point x="255" y="13" type="line" smooth="yes"/>
      <point x="255" y="6"/>
      <point x="261" y="0"/>
      <point x="269" y="0" type="curve" smooth="yes"/>
      <point x="341" y="0" type="line" smooth="yes"/>
      <point x="349" y="0"/>
      <point x="355" y="6"/>
      <point x="355" y="13" type="curve" smooth="yes"/>
      <point x="355" y="595" type="line" smooth="yes"/>
      <point x="355" y="603"/>
      <point x="361" y="609"/>
      <point x="369" y="609" type="curve" smooth="yes"/>
      <point x="591" y="609" type="line" smooth="yes"/>
      <point x="598" y="609"/>
      <point x="605" y="615"/>
      <point x="605" y="623" type="curve" smooth="yes"/>
      <point x="605" y="685" type="line" smooth="yes"/>
      <point x="605" y="693"/>
      <point x="598" y="699"/>
    </contour>
  </outline>
</glyph>
<glyph name="U" format="1">
  <advance width="645"/>
  <unicode hex="0055"/>
  <note>
    U
  </note>
  <outline>
    <contour>
      <point x="574" y="699" type="curve" smooth="yes"/>
      <point x="501" y="699" type="line" smooth="yes"/>
      <point x="494" y="699"/>
      <point x="488" y="693"/>
      <point x="488" y="685" type="curve" smooth="yes"/>
      <point x="488" y="258" type="line" smooth="yes"/>
      <point x="488" y="142"/>
      <point x="431" y="78"/>
      <point x="327" y="78" type="curve" smooth="yes"/>
      <point x="317" y="78" type="line" smooth="yes"/>
      <point x="213" y="78"/>
      <point x="157" y="142"/>
      <point x="157" y="258" type="curve" smooth="yes"/>
      <point x="157" y="685" type="line" smooth="yes"/>
      <point x="157" y="693"/>
      <point x="151" y="699"/>
      <point x="143" y="699" type="curve" smooth="yes"/>
      <point x="71" y="699" type="line" smooth="yes"/>
      <point x="63" y="699"/>
      <point x="57" y="693"/>
      <point x="57" y="685" type="curve" smooth="yes"/>
      <point x="57" y="248" type="line" smooth="yes"/>
      <point x="57" y="91"/>
      <point x="146" y="-10"/>
      <point x="322" y="-10" type="curve" smooth="yes"/>
      <point x="496" y="-10"/>
      <point x="588" y="92"/>
      <point x="588" y="248" type="curve" smooth="yes"/>
      <point x="588" y="685" type="line" smooth="yes"/>
      <point x="588" y="693"/>
      <point x="581" y="699"/>
    </contour>
  </outline>
</glyph>
<glyph name="V" format="1">
  <advance width="687"/>
  <unicode hex="0056"/>
  <note>
    V
  </note>
  <outline>
    <contour>
      <point x="665" y="699" type="curve" smooth="yes"/>
      <point x="590" y="699" type="line" smooth="yes"/>
      <point x="584" y="699"/>
      <point x="579" y="695"/>
      <point x="577" y="690" type="curve" smooth="yes"/>
      <point x="352" y="98" type="line" smooth="yes"/>
      <point x="351" y="95"/>
      <point x="347" y="95"/>
      <point x="346" y="98" type="curve" smooth="yes"/>
      <point x="111" y="690" type="line" smooth="yes"/>
      <point x="109" y="695"/>
      <point x="103" y="699"/>
      <point x="98" y="699" type="curve" smooth="yes"/>
      <point x="22" y="699" type="line" smooth="yes"/>
      <point x="12" y="699"/>
      <point x="5" y="689"/>
      <point x="9" y="680" type="curve" smooth="yes"/>
      <point x="277" y="9" type="line" smooth="yes"/>
      <point x="280" y="3"/>
      <point x="285" y="0"/>
      <point x="290" y="0" type="curve" smooth="yes"/>
      <point x="401" y="0" type="line" smooth="yes"/>
      <point x="407" y="0"/>
      <point x="412" y="3"/>
      <point x="414" y="9" type="curve" smooth="yes"/>
      <point x="678" y="680" type="line" smooth="yes"/>
      <point x="681" y="689"/>
      <point x="675" y="699"/>
    </contour>
  </outline>
</glyph>
<glyph name="W" format="1">
  <advance width="918"/>
  <unicode hex="0057"/>
  <note>
    W
  </note>
  <outline>
    <contour>
      <point x="885" y="700" type="curve" smooth="yes"/>
      <point x="810" y="700" type="line" smooth="yes"/>
      <point x="804" y="700"/>
      <point x="798" y="695"/>
      <point x="797" y="689" type="curve" smooth="yes"/>
      <point x="671" y="119" type="line" smooth="yes"/>
      <point x="670" y="116"/>
      <point x="665" y="116"/>
      <point x="664" y="119" type="curve" smooth="yes"/>
      <point x="531" y="689" type="line" smooth="yes"/>
      <point x="529" y="695"/>
      <point x="524" y="700"/>
      <point x="517" y="700" type="curve" smooth="yes"/>
      <point x="409" y="700" type="line" smooth="yes"/>
      <point x="402" y="700"/>
      <point x="397" y="695"/>
      <point x="395" y="689" type="curve" smooth="yes"/>
      <point x="258" y="124" type="line" smooth="yes"/>
      <point x="257" y="120"/>
      <point x="252" y="120"/>
      <point x="252" y="124" type="curve" smooth="yes"/>
      <point x="121" y="689" type="line" smooth="yes"/>
      <point x="119" y="695"/>
      <point x="114" y="700"/>
      <point x="107" y="700" type="curve" smooth="yes"/>
      <point x="32" y="700" type="line" smooth="yes"/>
      <point x="23" y="700"/>
      <point x="16" y="691"/>
      <point x="18" y="682" type="curve" smooth="yes"/>
      <point x="181" y="11" type="line" smooth="yes"/>
      <point x="183" y="5"/>
      <point x="188" y="1"/>
      <point x="195" y="1" type="curve" smooth="yes"/>
      <point x="308" y="1" type="line" smooth="yes"/>
      <point x="314" y="1"/>
      <point x="320" y="5"/>
      <point x="321" y="11" type="curve" smooth="yes"/>
      <point x="455" y="570" type="line" smooth="yes"/>
      <point x="456" y="573"/>
      <point x="461" y="573"/>
      <point x="462" y="570" type="curve" smooth="yes"/>
      <point x="596" y="11" type="line" smooth="yes"/>
      <point x="597" y="5"/>
      <point x="603" y="1"/>
      <point x="609" y="1" type="curve" smooth="yes"/>
      <point x="722" y="1" type="line" smooth="yes"/>
      <point x="729" y="1"/>
      <point x="734" y="5"/>
      <point x="736" y="11" type="curve" smooth="yes"/>
      <point x="899" y="682" type="line" smooth="yes"/>
      <point x="901" y="691"/>
      <point x="894" y="700"/>
    </contour>
  </outline>
</glyph>
<glyph name="X" format="1">
  <advance width="621"/>
  <unicode hex="0058"/>
  <note>
    X
  </note>
  <outline>
    <contour>
      <point x="605" y="22" type="curve" smooth="yes"/>
      <point x="372" y="355" type="line" smooth="yes"/>
      <point x="370" y="357"/>
      <point x="370" y="360"/>
      <point x="372" y="363" type="curve" smooth="yes"/>
      <point x="593" y="676" type="line" smooth="yes"/>
      <point x="599" y="685"/>
      <point x="593" y="698"/>
      <point x="582" y="698" type="curve" smooth="yes"/>
      <point x="501" y="698" type="line" smooth="yes"/>
      <point x="496" y="698"/>
      <point x="492" y="696"/>
      <point x="490" y="692" type="curve" smooth="yes"/>
      <point x="317" y="449" type="line" smooth="yes"/>
      <point x="314" y="445"/>
      <point x="308" y="445"/>
      <point x="306" y="449" type="curve" smooth="yes"/>
      <point x="136" y="692" type="line" smooth="yes"/>
      <point x="133" y="696"/>
      <point x="129" y="698"/>
      <point x="125" y="698" type="curve" smooth="yes"/>
      <point x="42" y="698" type="line" smooth="yes"/>
      <point x="30" y="698"/>
      <point x="24" y="685"/>
      <point x="30" y="676" type="curve" smooth="yes"/>
      <point x="251" y="362" type="line" smooth="yes"/>
      <point x="252" y="359"/>
      <point x="252" y="356"/>
      <point x="251" y="354" type="curve" smooth="yes"/>
      <point x="16" y="22" type="line" smooth="yes"/>
      <point x="9" y="13"/>
      <point x="16" y="0"/>
      <point x="27" y="0" type="curve" smooth="yes"/>
      <point x="108" y="0" type="line" smooth="yes"/>
      <point x="112" y="0"/>
      <point x="116" y="2"/>
      <point x="119" y="6" type="curve" smooth="yes"/>
      <point x="305" y="268" type="line" smooth="yes"/>
      <point x="307" y="272"/>
      <point x="313" y="272"/>
      <point x="316" y="268" type="curve" smooth="yes"/>
      <point x="499" y="6" type="line" smooth="yes"/>
      <point x="502" y="2"/>
      <point x="506" y="0"/>
      <point x="511" y="0" type="curve" smooth="yes"/>
      <point x="594" y="0" type="line" smooth="yes"/>
      <point x="605" y="0"/>
      <point x="611" y="12"/>
    </contour>
  </outline>
</glyph>
<glyph name="Y" format="1">
  <advance width="586"/>
  <unicode hex="0059"/>
  <unicode hex="00DD"/>
  <unicode hex="0178"/>
  <note>
    Y
  </note>
  <outline>
    <contour>
      <point x="568" y="700" type="curve" smooth="yes"/>
      <point x="488" y="700" type="line" smooth="yes"/>
      <point x="483" y="700"/>
      <point x="479" y="697"/>
      <point x="476" y="693" type="curve" smooth="yes"/>
      <point x="302" y="402" type="line" smooth="yes"/>
      <point x="299" y="397"/>
      <point x="293" y="397"/>
      <point x="290" y="402" type="curve" smooth="yes"/>
      <point x="113" y="693" type="line" smooth="yes"/>
      <point x="111" y="697"/>
      <point x="106" y="700"/>
      <point x="101" y="700" type="curve" smooth="yes"/>
      <point x="18" y="700" type="line" smooth="yes"/>
      <point x="7" y="700"/>
      <point x="0" y="688"/>
      <point x="6" y="678" type="curve" smooth="yes"/>
      <point x="241" y="294" type="line" smooth="yes"/>
      <point x="242" y="291"/>
      <point x="243" y="289"/>
      <point x="243" y="286" type="curve" smooth="yes"/>
      <point x="243" y="14" type="line" smooth="yes"/>
      <point x="243" y="7"/>
      <point x="249" y="1"/>
      <point x="257" y="1" type="curve" smooth="yes"/>
      <point x="329" y="1" type="line" smooth="yes"/>
      <point x="336" y="1"/>
      <point x="343" y="7"/>
      <point x="343" y="14" type="curve" smooth="yes"/>
      <point x="343" y="286" type="line" smooth="yes"/>
      <point x="343" y="289"/>
      <point x="343" y="291"/>
      <point x="345" y="293" type="curve" smooth="yes"/>
      <point x="579" y="678" type="line" smooth="yes"/>
      <point x="585" y="688"/>
      <point x="578" y="700"/>
    </contour>
  </outline>
</glyph>
<glyph name="Z" format="1">
  <advance width="580"/>
  <unicode hex="005A"/>
  <note>
    Z
  </note>
  <outline>
    <contour>
      <point x="543" y="90" type="curve" smooth="yes"/>
      <point x="145" y="90" type="line" smooth="yes"/>
      <point x="142" y="90"/>
      <point x="140" y="94"/>
      <point x="142" y="96" type="curve" smooth="yes"/>
      <point x="538" y="599" type="line" smooth="yes"/>
      <point x="544" y="607"/>
      <point x="547" y="616"/>
      <point x="547" y="625" type="curve" smooth="yes"/>
      <point x="547" y="686" type="line" smooth="yes"/>
      <point x="547" y="693"/>
      <point x="541" y="700"/>
      <point x="533" y="700" type="curve" smooth="yes"/>
      <point x="47" y="700" type="line" smooth="yes"/>
      <point x="39" y="700"/>
      <point x="33" y="693"/>
      <point x="33" y="686" type="curve" smooth="yes"/>
      <point x="33" y="624" type="line" smooth="yes"/>
      <point x="33" y="616"/>
      <point x="39" y="610"/>
      <point x="47" y="610" type="curve" smooth="yes"/>
      <point x="425" y="610" type="line" smooth="yes"/>
      <point x="428" y="610"/>
      <point x="430" y="606"/>
      <point x="428" y="604" type="curve" smooth="yes"/>
      <point x="32" y="101" type="line" smooth="yes"/>
      <point x="26" y="93"/>
      <point x="23" y="84"/>
      <point x="23" y="75" type="curve" smooth="yes"/>
      <point x="23" y="14" type="line" smooth="yes"/>
      <point x="23" y="7"/>
      <point x="29" y="1"/>
      <point x="37" y="1" type="curve" smooth="yes"/>
      <point x="543" y="1" type="line" smooth="yes"/>
      <point x="551" y="1"/>
      <point x="557" y="7"/>
      <point x="557" y="14" type="curve" smooth="yes"/>
      <point x="557" y="77" type="line" smooth="yes"/>
      <point x="557" y="84"/>
      <point x="551" y="90"/>
    </contour>
  </outline>
</glyph>
<glyph name="bracketleft" format="1">
  <advance width="218"/>
  <unicode hex="005B"/>
  <note>
    bracketleft
  </note>
  <outline>
    <contour>
      <point x="65" y="786" type="curve" smooth="yes"/>
      <point x="65" y="-86" type="line" smooth="yes"/>
      <point x="65" y="-106"/>
      <point x="81" y="-122"/>
      <point x="100" y="-122" type="curve" smooth="yes"/>
      <point x="229" y="-122" type="line" smooth="yes"/>
      <point x="235" y="-122"/>
      <point x="240" y="-116"/>
      <point x="240" y="-110" type="curve" smooth="yes"/>
      <point x="240" y="-52" type="line" smooth="yes"/>
      <point x="240" y="-46"/>
      <point x="235" y="-41"/>
      <point x="229" y="-41" type="curve" smooth="yes"/>
      <point x="164" y="-41" type="line" smooth="yes"/>
      <point x="158" y="-41"/>
      <point x="152" y="-35"/>
      <point x="152" y="-29" type="curve" smooth="yes"/>
      <point x="152" y="728" type="line" smooth="yes"/>
      <point x="152" y="735"/>
      <point x="158" y="740"/>
      <point x="164" y="740" type="curve" smooth="yes"/>
      <point x="229" y="740" type="line" smooth="yes"/>
      <point x="235" y="740"/>
      <point x="240" y="745"/>
      <point x="240" y="752" type="curve" smooth="yes"/>
      <point x="240" y="809" type="line" smooth="yes"/>
      <point x="240" y="816"/>
      <point x="235" y="821"/>
      <point x="229" y="821" type="curve" smooth="yes"/>
      <point x="100" y="821" type="line" smooth="yes"/>
      <point x="81" y="821"/>
      <point x="65" y="805"/>
    </contour>
  </outline>
</glyph>
<glyph name="backslash" format="1">
  <advance width="406"/>
  <unicode hex="005C"/>
  <note>
    backslash
  </note>
  <outline>
    <contour>
      <point x="109" y="699" type="curve" smooth="yes"/>
      <point x="35" y="699" type="line" smooth="yes"/>
      <point x="27" y="699"/>
      <point x="21" y="691"/>
      <point x="24" y="683" type="curve" smooth="yes"/>
      <point x="284" y="8" type="line" smooth="yes"/>
      <point x="286" y="3"/>
      <point x="290" y="0"/>
      <point x="295" y="0" type="curve" smooth="yes"/>
      <point x="370" y="0" type="line" smooth="yes"/>
      <point x="378" y="0"/>
      <point x="384" y="8"/>
      <point x="381" y="16" type="curve" smooth="yes"/>
      <point x="120" y="691" type="line" smooth="yes"/>
      <point x="119" y="696"/>
      <point x="114" y="699"/>
    </contour>
  </outline>
</glyph>
<glyph name="bracketright" format="1">
  <advance width="218"/>
  <unicode hex="005D"/>
  <note>
    bracketright
  </note>
  <outline>
    <contour>
      <point x="152" y="786" type="line" smooth="yes"/>
      <point x="152" y="805"/>
      <point x="137" y="821"/>
      <point x="117" y="821" type="curve" smooth="yes"/>
      <point x="-11" y="821" type="line" smooth="yes"/>
      <point x="-18" y="821"/>
      <point x="-23" y="816"/>
      <point x="-23" y="809" type="curve" smooth="yes"/>
      <point x="-23" y="752" type="line" smooth="yes"/>
      <point x="-23" y="745"/>
      <point x="-18" y="740"/>
      <point x="-11" y="740" type="curve" smooth="yes"/>
      <point x="53" y="740" type="line" smooth="yes"/>
      <point x="60" y="740"/>
      <point x="65" y="735"/>
      <point x="65" y="728" type="curve" smooth="yes"/>
      <point x="65" y="-29" type="line" smooth="yes"/>
      <point x="65" y="-35"/>
      <point x="60" y="-41"/>
      <point x="53" y="-41" type="curve" smooth="yes"/>
      <point x="-11" y="-41" type="line" smooth="yes"/>
      <point x="-18" y="-41"/>
      <point x="-23" y="-46"/>
      <point x="-23" y="-52" type="curve" smooth="yes"/>
      <point x="-23" y="-110" type="line" smooth="yes"/>
      <point x="-23" y="-116"/>
      <point x="-18" y="-122"/>
      <point x="-11" y="-122" type="curve" smooth="yes"/>
      <point x="117" y="-122" type="line" smooth="yes"/>
      <point x="137" y="-122"/>
      <point x="152" y="-106"/>
      <point x="152" y="-86" type="curve" smooth="yes"/>
    </contour>
  </outline>
</glyph>
<glyph name="asciicircum" format="1">
  <advance width="280"/>
  <unicode hex="005E"/>
  <note>
    asciicircum
  </note>
  <outline>
    <contour>
      <point x="255" y="587" type="curve"/>
      <point x="213" y="690" type="line" smooth="yes"/>
      <point x="211" y="696"/>
      <point x="206" y="699"/>
      <point x="200" y="699" type="curve" smooth="yes"/>
      <point x="80" y="699" type="line" smooth="yes"/>
      <point x="74" y="699"/>
      <point x="69" y="696"/>
      <point x="66" y="690" type="curve" smooth="yes"/>
      <point x="25" y="587" type="line"/>
      <point x="22" y="578"/>
      <point x="28" y="569"/>
      <point x="38" y="569" type="curve" smooth="yes"/>
      <point x="91" y="569" type="line" smooth="yes"/>
      <point x="95" y="569"/>
      <point x="100" y="570"/>
      <point x="102" y="575" type="curve"/>
      <point x="137" y="658" type="line" smooth="yes"/>
      <point x="138" y="661"/>
      <point x="142" y="661"/>
      <point x="144" y="658" type="curve" smooth="yes"/>
      <point x="178" y="575" type="line"/>
      <point x="181" y="570"/>
      <point x="185" y="569"/>
      <point x="190" y="569" type="curve" smooth="yes"/>
      <point x="242" y="569" type="line" smooth="yes"/>
      <point x="252" y="569"/>
      <point x="258" y="578"/>
    </contour>
  </outline>
</glyph>
<glyph name="a" format="1">
  <advance width="534"/>
  <unicode hex="0061"/>
  <unicode hex="00E5"/>
  <note>
    a
  </note>
  <outline>
    <contour>
      <point x="493" y="86" type="curve" smooth="yes"/>
      <point x="466" y="86" type="line" smooth="yes"/>
      <point x="458" y="86"/>
      <point x="452" y="93"/>
      <point x="452" y="100" type="curve" smooth="yes"/>
      <point x="452" y="320" type="line" smooth="yes"/>
      <point x="452" y="422"/>
      <point x="378" y="509"/>
      <point x="249" y="509" type="curve" smooth="yes"/>
      <point x="144" y="509"/>
      <point x="64" y="453"/>
      <point x="50" y="371" type="curve" smooth="yes"/>
      <point x="48" y="362"/>
      <point x="55" y="355"/>
      <point x="64" y="355" type="curve" smooth="yes"/>
      <point x="131" y="355" type="line" smooth="yes"/>
      <point x="137" y="355"/>
      <point x="143" y="359"/>
      <point x="144" y="365" type="curve" smooth="yes"/>
      <point x="154" y="406"/>
      <point x="195" y="430"/>
      <point x="249" y="430" type="curve" smooth="yes"/>
      <point x="329" y="430"/>
      <point x="357" y="394"/>
      <point x="357" y="364" type="curve" smooth="yes"/>
      <point x="357" y="298"/>
      <point x="245" y="293"/>
      <point x="245" y="293" type="curve"/>
      <point x="195" y="289"/>
      <point x="38" y="272"/>
      <point x="38" y="138" type="curve" smooth="yes"/>
      <point x="38" y="54"/>
      <point x="109" y="-10"/>
      <point x="203" y="-10" type="curve" smooth="yes"/>
      <point x="268" y="-10"/>
      <point x="324" y="23"/>
      <point x="351" y="61" type="curve" smooth="yes"/>
      <point x="353" y="64"/>
      <point x="357" y="62"/>
      <point x="357" y="59" type="curve" smooth="yes"/>
      <point x="357" y="42" type="line" smooth="yes"/>
      <point x="357" y="19"/>
      <point x="376" y="0"/>
      <point x="399" y="0" type="curve" smooth="yes"/>
      <point x="493" y="0" type="line" smooth="yes"/>
      <point x="501" y="0"/>
      <point x="507" y="7"/>
      <point x="507" y="14" type="curve" smooth="yes"/>
      <point x="507" y="73" type="line" smooth="yes"/>
      <point x="507" y="80"/>
      <point x="501" y="86"/>
    </contour>
    <contour>
      <point x="357" y="275" type="curve" smooth="yes"/>
      <point x="357" y="180" type="line" smooth="yes"/>
      <point x="357" y="122"/>
      <point x="297" y="70"/>
      <point x="218" y="70" type="curve" smooth="yes"/>
      <point x="155" y="70"/>
      <point x="133" y="102"/>
      <point x="133" y="142" type="curve" smooth="yes"/>
      <point x="133" y="248"/>
      <point x="325" y="232"/>
      <point x="351" y="277" type="curve" smooth="yes"/>
      <point x="353" y="280"/>
      <point x="357" y="279"/>
    </contour>
  </outline>
</glyph>
<glyph name="b" format="1">
  <advance width="571"/>
  <unicode hex="0062"/>
  <note>
    b
  </note>
  <outline>
    <contour>
      <point x="308" y="508" type="curve" smooth="yes"/>
      <point x="245" y="508"/>
      <point x="188" y="480"/>
      <point x="160" y="439" type="curve" smooth="yes"/>
      <point x="158" y="436"/>
      <point x="154" y="437"/>
      <point x="154" y="441" type="curve" smooth="yes"/>
      <point x="154" y="684" type="line" smooth="yes"/>
      <point x="154" y="692"/>
      <point x="147" y="698"/>
      <point x="140" y="698" type="curve" smooth="yes"/>
      <point x="73" y="698" type="line" smooth="yes"/>
      <point x="65" y="698"/>
      <point x="59" y="692"/>
      <point x="59" y="684" type="curve" smooth="yes"/>
      <point x="59" y="14" type="line" smooth="yes"/>
      <point x="59" y="6"/>
      <point x="65" y="0"/>
      <point x="73" y="0" type="curve" smooth="yes"/>
      <point x="140" y="0" type="line" smooth="yes"/>
      <point x="147" y="0"/>
      <point x="154" y="6"/>
      <point x="154" y="14" type="curve" smooth="yes"/>
      <point x="154" y="58" type="line" smooth="yes"/>
      <point x="154" y="61"/>
      <point x="158" y="63"/>
      <point x="160" y="60" type="curve" smooth="yes"/>
      <point x="188" y="20"/>
      <point x="255" y="-10"/>
      <point x="318" y="-10" type="curve" smooth="yes"/>
      <point x="443" y="-10"/>
      <point x="532" y="87"/>
      <point x="532" y="249" type="curve"/>
      <point x="532" y="410"/>
      <point x="434" y="508"/>
    </contour>
    <contour>
      <point x="302" y="70" type="curve" smooth="yes"/>
      <point x="294" y="70" type="line" smooth="yes"/>
      <point x="221" y="70"/>
      <point x="154" y="133"/>
      <point x="154" y="249" type="curve" smooth="yes"/>
      <point x="154" y="366"/>
      <point x="221" y="428"/>
      <point x="294" y="428" type="curve" smooth="yes"/>
      <point x="302" y="428" type="line" smooth="yes"/>
      <point x="379" y="428"/>
      <point x="437" y="366"/>
      <point x="437" y="249" type="curve" smooth="yes"/>
      <point x="437" y="133"/>
      <point x="379" y="70"/>
    </contour>
  </outline>
</glyph>
<glyph name="c" format="1">
  <advance width="516"/>
  <unicode hex="0063"/>
  <note>
    c
  </note>
  <outline>
    <contour>
      <point x="465" y="164" type="curve" smooth="yes"/>
      <point x="398" y="164" type="line" smooth="yes"/>
      <point x="391" y="164"/>
      <point x="386" y="160"/>
      <point x="384" y="154" type="curve" smooth="yes"/>
      <point x="372" y="104"/>
      <point x="333" y="70"/>
      <point x="281" y="70" type="curve" smooth="yes"/>
      <point x="273" y="70" type="line" smooth="yes"/>
      <point x="179" y="70"/>
      <point x="132" y="151"/>
      <point x="132" y="249" type="curve" smooth="yes"/>
      <point x="132" y="347"/>
      <point x="179" y="429"/>
      <point x="273" y="429" type="curve" smooth="yes"/>
      <point x="281" y="429" type="line" smooth="yes"/>
      <point x="333" y="429"/>
      <point x="372" y="395"/>
      <point x="384" y="344" type="curve" smooth="yes"/>
      <point x="386" y="338"/>
      <point x="391" y="334"/>
      <point x="398" y="334" type="curve" smooth="yes"/>
      <point x="465" y="334" type="line" smooth="yes"/>
      <point x="474" y="334"/>
      <point x="480" y="342"/>
      <point x="479" y="350" type="curve" smooth="yes"/>
      <point x="462" y="447"/>
      <point x="384" y="509"/>
      <point x="277" y="509" type="curve" smooth="yes"/>
      <point x="126" y="509"/>
      <point x="37" y="397"/>
      <point x="37" y="249" type="curve" smooth="yes"/>
      <point x="37" y="102"/>
      <point x="126" y="-10"/>
      <point x="277" y="-10" type="curve" smooth="yes"/>
      <point x="384" y="-10"/>
      <point x="462" y="52"/>
      <point x="479" y="148" type="curve" smooth="yes"/>
      <point x="480" y="156"/>
      <point x="474" y="164"/>
    </contour>
  </outline>
</glyph>
<glyph name="d" format="1">
  <advance width="573"/>
  <unicode hex="0064"/>
  <note>
    d
  </note>
  <outline>
    <contour>
      <point x="499" y="698" type="curve" smooth="yes"/>
      <point x="432" y="698" type="line" smooth="yes"/>
      <point x="424" y="698"/>
      <point x="418" y="692"/>
      <point x="418" y="684" type="curve" smooth="yes"/>
      <point x="418" y="441" type="line" smooth="yes"/>
      <point x="418" y="438"/>
      <point x="414" y="436"/>
      <point x="412" y="439" type="curve" smooth="yes"/>
      <point x="384" y="480"/>
      <point x="326" y="509"/>
      <point x="264" y="509" type="curve" smooth="yes"/>
      <point x="137" y="509"/>
      <point x="39" y="411"/>
      <point x="39" y="249" type="curve" smooth="yes"/>
      <point x="39" y="87"/>
      <point x="128" y="-10"/>
      <point x="254" y="-10" type="curve" smooth="yes"/>
      <point x="316" y="-10"/>
      <point x="383" y="20"/>
      <point x="412" y="60" type="curve" smooth="yes"/>
      <point x="414" y="62"/>
      <point x="418" y="61"/>
      <point x="418" y="58" type="curve" smooth="yes"/>
      <point x="418" y="14" type="line" smooth="yes"/>
      <point x="418" y="6"/>
      <point x="424" y="0"/>
      <point x="432" y="0" type="curve" smooth="yes"/>
      <point x="499" y="0" type="line" smooth="yes"/>
      <point x="507" y="0"/>
      <point x="513" y="6"/>
      <point x="513" y="14" type="curve" smooth="yes"/>
      <point x="513" y="684" type="line"/>
      <point x="513" y="692"/>
      <point x="507" y="698"/>
    </contour>
    <contour>
      <point x="277" y="70" type="curve" smooth="yes"/>
      <point x="270" y="70" type="line" smooth="yes"/>
      <point x="193" y="70"/>
      <point x="134" y="132"/>
      <point x="134" y="249" type="curve" smooth="yes"/>
      <point x="134" y="366"/>
      <point x="193" y="429"/>
      <point x="270" y="429" type="curve" smooth="yes"/>
      <point x="277" y="429" type="line" smooth="yes"/>
      <point x="350" y="429"/>
      <point x="418" y="366"/>
      <point x="418" y="249" type="curve" smooth="yes"/>
      <point x="418" y="132"/>
      <point x="350" y="70"/>
    </contour>
  </outline>
</glyph>
<glyph name="e" format="1">
  <advance width="515"/>
  <unicode hex="0065"/>
  <note>
    e
  </note>
  <outline>
    <contour>
      <point x="464" y="147" type="curve" smooth="yes"/>
      <point x="397" y="147" type="line" smooth="yes"/>
      <point x="391" y="147"/>
      <point x="386" y="144"/>
      <point x="384" y="138" type="curve" smooth="yes"/>
      <point x="372" y="93"/>
      <point x="329" y="70"/>
      <point x="281" y="70" type="curve" smooth="yes"/>
      <point x="273" y="70" type="line" smooth="yes"/>
      <point x="224" y="70"/>
      <point x="148" y="103"/>
      <point x="148" y="163" type="curve" smooth="yes"/>
      <point x="148" y="281"/>
      <point x="463" y="190"/>
      <point x="473" y="349" type="curve" smooth="yes"/>
      <point x="478" y="436"/>
      <point x="399" y="509"/>
      <point x="271" y="509" type="curve" smooth="yes"/>
      <point x="149" y="509"/>
      <point x="38" y="417"/>
      <point x="38" y="250" type="curve" smooth="yes"/>
      <point x="38" y="81"/>
      <point x="145" y="-10"/>
      <point x="274" y="-10" type="curve" smooth="yes"/>
      <point x="371" y="-10"/>
      <point x="453" y="42"/>
      <point x="477" y="130" type="curve" smooth="yes"/>
      <point x="480" y="139"/>
      <point x="473" y="147"/>
    </contour>
    <contour>
      <point x="139" y="249" type="curve" smooth="yes"/>
      <point x="139" y="382"/>
      <point x="206" y="429"/>
      <point x="268" y="429" type="curve" smooth="yes"/>
      <point x="338" y="429"/>
      <point x="385" y="404"/>
      <point x="378" y="353" type="curve" smooth="yes"/>
      <point x="368" y="285"/>
      <point x="192" y="312"/>
      <point x="145" y="247" type="curve" smooth="yes"/>
      <point x="143" y="244"/>
      <point x="139" y="246"/>
    </contour>
  </outline>
</glyph>
<glyph name="f" format="1">
  <advance width="358"/>
  <unicode hex="0066"/>
  <note>
    f
  </note>
  <outline>
    <contour>
      <point x="355" y="699" type="curve" smooth="yes"/>
      <point x="165" y="699" type="line" smooth="yes"/>
      <point x="142" y="699"/>
      <point x="124" y="680"/>
      <point x="124" y="657" type="curve" smooth="yes"/>
      <point x="124" y="513" type="line" smooth="yes"/>
      <point x="124" y="505"/>
      <point x="118" y="499"/>
      <point x="110" y="499" type="curve" smooth="yes"/>
      <point x="28" y="499" type="line" smooth="yes"/>
      <point x="20" y="499"/>
      <point x="14" y="493"/>
      <point x="14" y="485" type="curve" smooth="yes"/>
      <point x="14" y="431" type="line" smooth="yes"/>
      <point x="14" y="423"/>
      <point x="20" y="417"/>
      <point x="28" y="417" type="curve" smooth="yes"/>
      <point x="110" y="417" type="line" smooth="yes"/>
      <point x="118" y="417"/>
      <point x="124" y="411"/>
      <point x="124" y="404" type="curve" smooth="yes"/>
      <point x="124" y="14" type="line" smooth="yes"/>
      <point x="124" y="6"/>
      <point x="130" y="0"/>
      <point x="138" y="0" type="curve" smooth="yes"/>
      <point x="205" y="0" type="line" smooth="yes"/>
      <point x="212" y="0"/>
      <point x="219" y="6"/>
      <point x="219" y="14" type="curve" smooth="yes"/>
      <point x="219" y="404" type="line" smooth="yes"/>
      <point x="219" y="411"/>
      <point x="225" y="417"/>
      <point x="233" y="417" type="curve" smooth="yes"/>
      <point x="330" y="417" type="line" smooth="yes"/>
      <point x="337" y="417"/>
      <point x="343" y="423"/>
      <point x="343" y="431" type="curve" smooth="yes"/>
      <point x="343" y="485" type="line" smooth="yes"/>
      <point x="343" y="493"/>
      <point x="337" y="499"/>
      <point x="330" y="499" type="curve" smooth="yes"/>
      <point x="233" y="499" type="line" smooth="yes"/>
      <point x="225" y="499"/>
      <point x="219" y="505"/>
      <point x="219" y="513" type="curve" smooth="yes"/>
      <point x="219" y="599" type="line" smooth="yes"/>
      <point x="219" y="607"/>
      <point x="225" y="613"/>
      <point x="233" y="613" type="curve" smooth="yes"/>
      <point x="355" y="613" type="line" smooth="yes"/>
      <point x="362" y="613"/>
      <point x="368" y="619"/>
      <point x="368" y="627" type="curve" smooth="yes"/>
      <point x="368" y="685" type="line" smooth="yes"/>
      <point x="368" y="693"/>
      <point x="362" y="699"/>
    </contour>
  </outline>
</glyph>
<glyph name="g" format="1">
  <advance width="564"/>
  <unicode hex="0067"/>
  <note>
    g
  </note>
  <outline>
    <contour>
      <point x="409" y="486" type="curve" smooth="yes"/>
      <point x="409" y="443" type="line" smooth="yes"/>
      <point x="409" y="439"/>
      <point x="405" y="438"/>
      <point x="403" y="441" type="curve" smooth="yes"/>
      <point x="379" y="477"/>
      <point x="325" y="510"/>
      <point x="259" y="510" type="curve" smooth="yes"/>
      <point x="138" y="510"/>
      <point x="38" y="425"/>
      <point x="38" y="255" type="curve" smooth="yes"/>
      <point x="38" y="85"/>
      <point x="140" y="-9"/>
      <point x="259" y="-9" type="curve" smooth="yes"/>
      <point x="324" y="-9"/>
      <point x="374" y="21"/>
      <point x="403" y="61" type="curve" smooth="yes"/>
      <point x="405" y="64"/>
      <point x="409" y="62"/>
      <point x="409" y="59" type="curve" smooth="yes"/>
      <point x="409" y="-101" type="line" smooth="yes"/>
      <point x="409" y="-108"/>
      <point x="403" y="-115"/>
      <point x="395" y="-115" type="curve" smooth="yes"/>
      <point x="118" y="-115" type="line" smooth="yes"/>
      <point x="111" y="-115"/>
      <point x="106" y="-120"/>
      <point x="106" y="-126" type="curve" smooth="yes"/>
      <point x="106" y="-185" type="line" smooth="yes"/>
      <point x="106" y="-193"/>
      <point x="112" y="-199"/>
      <point x="120" y="-199" type="curve" smooth="yes"/>
      <point x="463" y="-199" type="line" smooth="yes"/>
      <point x="485" y="-199"/>
      <point x="504" y="-181"/>
      <point x="504" y="-158" type="curve" smooth="yes"/>
      <point x="504" y="486" type="line" smooth="yes"/>
      <point x="504" y="493"/>
      <point x="498" y="500"/>
      <point x="490" y="500" type="curve" smooth="yes"/>
      <point x="423" y="500" type="line" smooth="yes"/>
      <point x="415" y="500"/>
      <point x="409" y="493"/>
    </contour>
    <contour>
      <point x="272" y="70" type="curve" smooth="yes"/>
      <point x="263" y="70" type="line" smooth="yes"/>
      <point x="191" y="70"/>
      <point x="133" y="134"/>
      <point x="133" y="255" type="curve" smooth="yes"/>
      <point x="133" y="375"/>
      <point x="195" y="430"/>
      <point x="268" y="430" type="curve" smooth="yes"/>
      <point x="277" y="430" type="line" smooth="yes"/>
      <point x="346" y="430"/>
      <point x="409" y="363"/>
      <point x="409" y="255" type="curve" smooth="yes"/>
      <point x="409" y="149"/>
      <point x="342" y="70"/>
    </contour>
  </outline>
</glyph>
<glyph name="h" format="1">
  <advance width="553"/>
  <unicode hex="0068"/>
  <note>
    h
  </note>
  <outline>
    <contour>
      <point x="452" y="498" type="curve" smooth="yes"/>
      <point x="168" y="498" type="line" smooth="yes"/>
      <point x="160" y="498"/>
      <point x="154" y="504"/>
      <point x="154" y="512" type="curve" smooth="yes"/>
      <point x="154" y="684" type="line" smooth="yes"/>
      <point x="154" y="692"/>
      <point x="148" y="698"/>
      <point x="140" y="698" type="curve" smooth="yes"/>
      <point x="73" y="698" type="line" smooth="yes"/>
      <point x="65" y="698"/>
      <point x="59" y="692"/>
      <point x="59" y="684" type="curve" smooth="yes"/>
      <point x="59" y="13" type="line" smooth="yes"/>
      <point x="59" y="6"/>
      <point x="65" y="0"/>
      <point x="73" y="0" type="curve" smooth="yes"/>
      <point x="140" y="0" type="line" smooth="yes"/>
      <point x="148" y="0"/>
      <point x="154" y="6"/>
      <point x="154" y="13" type="curve" smooth="yes"/>
      <point x="154" y="398" type="line" smooth="yes"/>
      <point x="154" y="406"/>
      <point x="160" y="412"/>
      <point x="168" y="412" type="curve" smooth="yes"/>
      <point x="384" y="412" type="line" smooth="yes"/>
      <point x="392" y="412"/>
      <point x="398" y="406"/>
      <point x="398" y="398" type="curve" smooth="yes"/>
      <point x="398" y="13" type="line" smooth="yes"/>
      <point x="398" y="6"/>
      <point x="405" y="0"/>
      <point x="412" y="0" type="curve" smooth="yes"/>
      <point x="479" y="0" type="line" smooth="yes"/>
      <point x="487" y="0"/>
      <point x="493" y="6"/>
      <point x="493" y="13" type="curve" smooth="yes"/>
      <point x="493" y="456" type="line" smooth="yes"/>
      <point x="493" y="479"/>
      <point x="474" y="498"/>
    </contour>
  </outline>
</glyph>
<glyph name="i" format="1">
  <advance width="211"/>
  <unicode hex="0069"/>
  <note>
    i
  </note>
  <outline>
    <contour>
      <point x="139" y="499" type="curve" smooth="yes"/>
      <point x="72" y="499" type="line" smooth="yes"/>
      <point x="64" y="499"/>
      <point x="58" y="493"/>
      <point x="58" y="485" type="curve" smooth="yes"/>
      <point x="58" y="14" type="line" smooth="yes"/>
      <point x="58" y="6"/>
      <point x="64" y="0"/>
      <point x="72" y="0" type="curve" smooth="yes"/>
      <point x="139" y="0" type="line" smooth="yes"/>
      <point x="147" y="0"/>
      <point x="153" y="6"/>
      <point x="153" y="14" type="curve" smooth="yes"/>
      <point x="153" y="485" type="line" smooth="yes"/>
      <point x="153" y="493"/>
      <point x="147" y="499"/>
    </contour>
    <contour>
      <point x="106" y="600" type="curve" smooth="yes"/>
      <point x="136" y="600"/>
      <point x="161" y="624"/>
      <point x="161" y="655" type="curve" smooth="yes"/>
      <point x="161" y="685"/>
      <point x="136" y="709"/>
      <point x="106" y="709" type="curve" smooth="yes"/>
      <point x="76" y="709"/>
      <point x="51" y="685"/>
      <point x="51" y="655" type="curve" smooth="yes"/>
      <point x="51" y="624"/>
      <point x="76" y="600"/>
    </contour>
  </outline>
</glyph>
<glyph name="j" format="1">
  <advance width="213"/>
  <unicode hex="006A"/>
  <note>
    j
  </note>
  <outline>
    <contour>
      <point x="107" y="600" type="curve" smooth="yes"/>
      <point x="137" y="600"/>
      <point x="161" y="624"/>
      <point x="161" y="655" type="curve" smooth="yes"/>
      <point x="161" y="685"/>
      <point x="137" y="709"/>
      <point x="107" y="709" type="curve" smooth="yes"/>
      <point x="76" y="709"/>
      <point x="52" y="685"/>
      <point x="52" y="655" type="curve" smooth="yes"/>
      <point x="52" y="624"/>
      <point x="76" y="600"/>
    </contour>
    <contour>
      <point x="140" y="499" type="curve" smooth="yes"/>
      <point x="73" y="499" type="line" smooth="yes"/>
      <point x="65" y="499"/>
      <point x="59" y="493"/>
      <point x="59" y="485" type="curve" smooth="yes"/>
      <point x="59" y="-101" type="line" smooth="yes"/>
      <point x="59" y="-109"/>
      <point x="52" y="-115"/>
      <point x="45" y="-115" type="curve" smooth="yes"/>
      <point x="-92" y="-115" type="line" smooth="yes"/>
      <point x="-100" y="-115"/>
      <point x="-106" y="-121"/>
      <point x="-106" y="-129" type="curve" smooth="yes"/>
      <point x="-106" y="-186" type="line" smooth="yes"/>
      <point x="-106" y="-193"/>
      <point x="-100" y="-200"/>
      <point x="-92" y="-200" type="curve" smooth="yes"/>
      <point x="116" y="-200" type="line" smooth="yes"/>
      <point x="137" y="-200"/>
      <point x="153" y="-183"/>
      <point x="153" y="-162" type="curve" smooth="yes"/>
      <point x="153" y="485" type="line"/>
      <point x="153" y="493"/>
      <point x="147" y="499"/>
    </contour>
  </outline>
</glyph>
<glyph name="k" format="1">
  <advance width="501"/>
  <unicode hex="006B"/>
  <note>
    k
  </note>
  <outline>
    <contour>
      <point x="411" y="301" type="curve" smooth="yes"/>
      <point x="308" y="301" type="line" smooth="yes"/>
      <point x="305" y="301"/>
      <point x="303" y="304"/>
      <point x="306" y="307" type="curve"/>
      <point x="448" y="475" type="line"/>
      <point x="458" y="483"/>
      <point x="451" y="499"/>
      <point x="439" y="499" type="curve" smooth="yes"/>
      <point x="350" y="499" type="line" smooth="yes"/>
      <point x="346" y="499"/>
      <point x="343" y="497"/>
      <point x="340" y="495" type="curve"/>
      <point x="179" y="306" type="line"/>
      <point x="179" y="306"/>
      <point x="175" y="301"/>
      <point x="169" y="301" type="curve" smooth="yes"/>
      <point x="167" y="301"/>
      <point x="162" y="301"/>
      <point x="160" y="301" type="curve" smooth="yes"/>
      <point x="156" y="301"/>
      <point x="154" y="303"/>
      <point x="154" y="308" type="curve" smooth="yes"/>
      <point x="154" y="684" type="line" smooth="yes"/>
      <point x="154" y="692"/>
      <point x="147" y="698"/>
      <point x="140" y="698" type="curve" smooth="yes"/>
      <point x="73" y="698" type="line" smooth="yes"/>
      <point x="66" y="698"/>
      <point x="60" y="693"/>
      <point x="59" y="687" type="curve"/>
      <point x="59" y="11" type="line"/>
      <point x="60" y="5"/>
      <point x="64" y="1"/>
      <point x="70" y="0" type="curve"/>
      <point x="142" y="0" type="line"/>
      <point x="149" y="1"/>
      <point x="154" y="7"/>
      <point x="154" y="13" type="curve" smooth="yes"/>
      <point x="154" y="201" type="line" smooth="yes"/>
      <point x="154" y="208"/>
      <point x="160" y="215"/>
      <point x="167" y="215" type="curve" smooth="yes"/>
      <point x="344" y="215" type="line" smooth="yes"/>
      <point x="352" y="215"/>
      <point x="358" y="208"/>
      <point x="358" y="201" type="curve" smooth="yes"/>
      <point x="358" y="13" type="line" smooth="yes"/>
      <point x="358" y="7"/>
      <point x="363" y="1"/>
      <point x="369" y="0" type="curve"/>
      <point x="442" y="0" type="line"/>
      <point x="448" y="1"/>
      <point x="453" y="7"/>
      <point x="453" y="13" type="curve" smooth="yes"/>
      <point x="453" y="259" type="line" smooth="yes"/>
      <point x="453" y="282"/>
      <point x="434" y="301"/>
    </contour>
  </outline>
</glyph>
<glyph name="l" format="1">
  <advance width="238"/>
  <unicode hex="006C"/>
  <note>
    l
  </note>
  <outline>
    <contour>
      <point x="195" y="85" type="curve" smooth="yes"/>
      <point x="168" y="85" type="line" smooth="yes"/>
      <point x="160" y="85"/>
      <point x="154" y="92"/>
      <point x="154" y="99" type="curve" smooth="yes"/>
      <point x="154" y="684" type="line" smooth="yes"/>
      <point x="154" y="692"/>
      <point x="148" y="698"/>
      <point x="140" y="698" type="curve" smooth="yes"/>
      <point x="73" y="698" type="line" smooth="yes"/>
      <point x="65" y="698"/>
      <point x="59" y="692"/>
      <point x="59" y="684" type="curve" smooth="yes"/>
      <point x="59" y="41" type="line" smooth="yes"/>
      <point x="59" y="18"/>
      <point x="78" y="0"/>
      <point x="101" y="0" type="curve" smooth="yes"/>
      <point x="195" y="0" type="line" smooth="yes"/>
      <point x="203" y="0"/>
      <point x="209" y="6"/>
      <point x="209" y="14" type="curve" smooth="yes"/>
      <point x="209" y="72" type="line"/>
      <point x="209" y="79"/>
      <point x="203" y="85"/>
    </contour>
  </outline>
</glyph>
<glyph name="m" format="1">
  <advance width="774"/>
  <unicode hex="006D"/>
  <note>
    m
  </note>
  <outline>
    <contour>
      <point x="674" y="499" type="curve" smooth="yes"/>
      <point x="100" y="499" type="line" smooth="yes"/>
      <point x="77" y="499"/>
      <point x="58" y="480"/>
      <point x="58" y="457" type="curve" smooth="yes"/>
      <point x="58" y="14" type="line" smooth="yes"/>
      <point x="58" y="6"/>
      <point x="64" y="0"/>
      <point x="72" y="0" type="curve" smooth="yes"/>
      <point x="140" y="0" type="line" smooth="yes"/>
      <point x="140" y="0"/>
      <point x="141" y="0"/>
      <point x="142" y="0" type="curve"/>
      <point x="148" y="1"/>
      <point x="153" y="7"/>
      <point x="153" y="14" type="curve" smooth="yes"/>
      <point x="153" y="397" type="line" smooth="yes"/>
      <point x="153" y="405"/>
      <point x="158" y="411"/>
      <point x="167" y="411" type="curve" smooth="yes"/>
      <point x="325" y="411" type="line" smooth="yes"/>
      <point x="333" y="411"/>
      <point x="339" y="405"/>
      <point x="339" y="398" type="curve" smooth="yes"/>
      <point x="339" y="14" type="line" smooth="yes"/>
      <point x="339" y="6"/>
      <point x="345" y="0"/>
      <point x="353" y="0" type="curve" smooth="yes"/>
      <point x="420" y="0" type="line" smooth="yes"/>
      <point x="428" y="0"/>
      <point x="434" y="6"/>
      <point x="434" y="14" type="curve" smooth="yes"/>
      <point x="434" y="398" type="line" smooth="yes"/>
      <point x="434" y="405"/>
      <point x="440" y="411"/>
      <point x="448" y="411" type="curve" smooth="yes"/>
      <point x="607" y="411" type="line" smooth="yes"/>
      <point x="615" y="411"/>
      <point x="621" y="405"/>
      <point x="621" y="398" type="curve" smooth="yes"/>
      <point x="621" y="14" type="line" smooth="yes"/>
      <point x="621" y="6"/>
      <point x="627" y="0"/>
      <point x="635" y="0" type="curve" smooth="yes"/>
      <point x="702" y="0" type="line" smooth="yes"/>
      <point x="710" y="0"/>
      <point x="716" y="6"/>
      <point x="716" y="14" type="curve" smooth="yes"/>
      <point x="716" y="457" type="line"/>
      <point x="716" y="480"/>
      <point x="697" y="499"/>
    </contour>
  </outline>
</glyph>
<glyph name="n" format="1">
  <advance width="551"/>
  <unicode hex="006E"/>
  <note>
    n
  </note>
  <outline>
    <contour>
      <point x="451" y="499" type="curve" smooth="yes"/>
      <point x="100" y="499" type="line" smooth="yes"/>
      <point x="77" y="499"/>
      <point x="58" y="480"/>
      <point x="58" y="457" type="curve" smooth="yes"/>
      <point x="58" y="14" type="line" smooth="yes"/>
      <point x="58" y="6"/>
      <point x="64" y="0"/>
      <point x="72" y="0" type="curve" smooth="yes"/>
      <point x="139" y="0" type="line" smooth="yes"/>
      <point x="140" y="0"/>
      <point x="141" y="0"/>
      <point x="142" y="0" type="curve"/>
      <point x="148" y="1"/>
      <point x="153" y="7"/>
      <point x="153" y="14" type="curve" smooth="yes"/>
      <point x="153" y="397" type="line" smooth="yes"/>
      <point x="153" y="405"/>
      <point x="158" y="411"/>
      <point x="167" y="411" type="curve" smooth="yes"/>
      <point x="383" y="411" type="line" smooth="yes"/>
      <point x="391" y="411"/>
      <point x="397" y="405"/>
      <point x="397" y="398" type="curve" smooth="yes"/>
      <point x="397" y="14" type="line" smooth="yes"/>
      <point x="397" y="6"/>
      <point x="404" y="0"/>
      <point x="411" y="0" type="curve" smooth="yes"/>
      <point x="478" y="0" type="line" smooth="yes"/>
      <point x="486" y="0"/>
      <point x="492" y="6"/>
      <point x="492" y="14" type="curve" smooth="yes"/>
      <point x="492" y="457" type="line"/>
      <point x="492" y="480"/>
      <point x="474" y="499"/>
    </contour>
  </outline>
</glyph>
<glyph name="o" format="1">
  <advance width="587"/>
  <unicode hex="006F"/>
  <note>
    o
  </note>
  <outline>
    <contour>
      <point x="293" y="509" type="curve" smooth="yes"/>
      <point x="150" y="509"/>
      <point x="34" y="393"/>
      <point x="34" y="250" type="curve" smooth="yes"/>
      <point x="34" y="106"/>
      <point x="150" y="-10"/>
      <point x="293" y="-10" type="curve" smooth="yes"/>
      <point x="437" y="-10"/>
      <point x="553" y="106"/>
      <point x="553" y="250" type="curve" smooth="yes"/>
      <point x="553" y="393"/>
      <point x="437" y="509"/>
    </contour>
    <contour>
      <point x="293" y="80" type="curve" smooth="yes"/>
      <point x="200" y="80"/>
      <point x="124" y="156"/>
      <point x="124" y="250" type="curve" smooth="yes"/>
      <point x="124" y="343"/>
      <point x="200" y="420"/>
      <point x="293" y="420" type="curve" smooth="yes"/>
      <point x="387" y="420"/>
      <point x="463" y="344"/>
      <point x="463" y="250" type="curve" smooth="yes"/>
      <point x="463" y="156"/>
      <point x="387" y="80"/>
    </contour>
  </outline>
</glyph>
<glyph name="p" format="1">
  <advance width="573"/>
  <unicode hex="0070"/>
  <note>
    p
  </note>
  <outline>
    <contour>
      <point x="318" y="509" type="curve" smooth="yes"/>
      <point x="256" y="509"/>
      <point x="189" y="479"/>
      <point x="160" y="439" type="curve" smooth="yes"/>
      <point x="158" y="437"/>
      <point x="154" y="438"/>
      <point x="154" y="441" type="curve" smooth="yes"/>
      <point x="154" y="485" type="line" smooth="yes"/>
      <point x="154" y="493"/>
      <point x="148" y="499"/>
      <point x="140" y="499" type="curve" smooth="yes"/>
      <point x="73" y="499" type="line" smooth="yes"/>
      <point x="65" y="499"/>
      <point x="59" y="493"/>
      <point x="59" y="485" type="curve" smooth="yes"/>
      <point x="59" y="-185" type="line" smooth="yes"/>
      <point x="59" y="-193"/>
      <point x="65" y="-199"/>
      <point x="73" y="-199" type="curve" smooth="yes"/>
      <point x="140" y="-199" type="line" smooth="yes"/>
      <point x="148" y="-199"/>
      <point x="154" y="-193"/>
      <point x="154" y="-185" type="curve" smooth="yes"/>
      <point x="154" y="58" type="line" smooth="yes"/>
      <point x="154" y="61"/>
      <point x="158" y="63"/>
      <point x="160" y="60" type="curve" smooth="yes"/>
      <point x="188" y="18"/>
      <point x="246" y="-10"/>
      <point x="308" y="-10" type="curve" smooth="yes"/>
      <point x="435" y="-10"/>
      <point x="533" y="88"/>
      <point x="533" y="250" type="curve" smooth="yes"/>
      <point x="533" y="412"/>
      <point x="444" y="509"/>
    </contour>
    <contour>
      <point x="303" y="70" type="curve" smooth="yes"/>
      <point x="295" y="70" type="line" smooth="yes"/>
      <point x="222" y="70"/>
      <point x="154" y="133"/>
      <point x="154" y="250" type="curve" smooth="yes"/>
      <point x="154" y="366"/>
      <point x="222" y="429"/>
      <point x="295" y="429" type="curve" smooth="yes"/>
      <point x="303" y="429" type="line" smooth="yes"/>
      <point x="379" y="429"/>
      <point x="438" y="366"/>
      <point x="438" y="250" type="curve" smooth="yes"/>
      <point x="438" y="133"/>
      <point x="379" y="70"/>
    </contour>
  </outline>
</glyph>
<glyph name="q" format="1">
  <advance width="573"/>
  <unicode hex="0071"/>
  <note>
    q
  </note>
  <outline>
    <contour>
      <point x="499" y="499" type="curve" smooth="yes"/>
      <point x="432" y="499" type="line" smooth="yes"/>
      <point x="424" y="499"/>
      <point x="418" y="493"/>
      <point x="418" y="485" type="curve" smooth="yes"/>
      <point x="418" y="441" type="line" smooth="yes"/>
      <point x="418" y="438"/>
      <point x="414" y="437"/>
      <point x="412" y="439" type="curve" smooth="yes"/>
      <point x="383" y="479"/>
      <point x="316" y="509"/>
      <point x="254" y="509" type="curve" smooth="yes"/>
      <point x="128" y="509"/>
      <point x="39" y="412"/>
      <point x="39" y="250" type="curve" smooth="yes"/>
      <point x="39" y="88"/>
      <point x="137" y="-10"/>
      <point x="264" y="-10" type="curve" smooth="yes"/>
      <point x="326" y="-10"/>
      <point x="384" y="18"/>
      <point x="412" y="60" type="curve" smooth="yes"/>
      <point x="414" y="63"/>
      <point x="418" y="61"/>
      <point x="418" y="58" type="curve" smooth="yes"/>
      <point x="418" y="-186" type="line" smooth="yes"/>
      <point x="418" y="-193"/>
      <point x="424" y="-199"/>
      <point x="432" y="-199" type="curve" smooth="yes"/>
      <point x="499" y="-199" type="line" smooth="yes"/>
      <point x="507" y="-199"/>
      <point x="513" y="-193"/>
      <point x="513" y="-186" type="curve" smooth="yes"/>
      <point x="513" y="485" type="line" smooth="yes"/>
      <point x="513" y="493"/>
      <point x="507" y="499"/>
    </contour>
    <contour>
      <point x="278" y="70" type="curve" smooth="yes"/>
      <point x="270" y="70" type="line" smooth="yes"/>
      <point x="193" y="70"/>
      <point x="134" y="133"/>
      <point x="134" y="250" type="curve" smooth="yes"/>
      <point x="134" y="366"/>
      <point x="193" y="429"/>
      <point x="270" y="429" type="curve" smooth="yes"/>
      <point x="278" y="429" type="line" smooth="yes"/>
      <point x="350" y="429"/>
      <point x="418" y="366"/>
      <point x="418" y="250" type="curve" smooth="yes"/>
      <point x="418" y="133"/>
      <point x="350" y="70"/>
    </contour>
  </outline>
</glyph>
<glyph name="r" format="1">
  <advance width="382"/>
  <unicode hex="0072"/>
  <note>
    r
  </note>
  <outline>
    <contour>
      <point x="352" y="500" type="curve" smooth="yes"/>
      <point x="100" y="500" type="line" smooth="yes"/>
      <point x="77" y="500"/>
      <point x="58" y="482"/>
      <point x="58" y="459" type="curve" smooth="yes"/>
      <point x="58" y="14" type="line" smooth="yes"/>
      <point x="58" y="7"/>
      <point x="64" y="1"/>
      <point x="72" y="1" type="curve" smooth="yes"/>
      <point x="139" y="1" type="line" smooth="yes"/>
      <point x="147" y="1"/>
      <point x="153" y="7"/>
      <point x="153" y="14" type="curve" smooth="yes"/>
      <point x="153" y="399" type="line" smooth="yes"/>
      <point x="153" y="407"/>
      <point x="159" y="413"/>
      <point x="167" y="413" type="curve" smooth="yes"/>
      <point x="352" y="413" type="line" smooth="yes"/>
      <point x="360" y="413"/>
      <point x="366" y="419"/>
      <point x="366" y="427" type="curve" smooth="yes"/>
      <point x="366" y="486" type="line"/>
      <point x="366" y="494"/>
      <point x="360" y="500"/>
    </contour>
  </outline>
</glyph>
<glyph name="s" format="1">
  <advance width="479"/>
  <unicode hex="0073"/>
  <note>
    s
  </note>
  <outline>
    <contour>
      <point x="301" y="286" type="curve" smooth="yes"/>
      <point x="222" y="302" type="line" smooth="yes"/>
      <point x="175" y="311"/>
      <point x="141" y="333"/>
      <point x="141" y="366" type="curve" smooth="yes"/>
      <point x="141" y="402"/>
      <point x="177" y="430"/>
      <point x="232" y="430" type="curve" smooth="yes"/>
      <point x="240" y="430" type="line" smooth="yes"/>
      <point x="292" y="430"/>
      <point x="327" y="398"/>
      <point x="336" y="355" type="curve" smooth="yes"/>
      <point x="337" y="349"/>
      <point x="343" y="345"/>
      <point x="349" y="345" type="curve" smooth="yes"/>
      <point x="418" y="345" type="line" smooth="yes"/>
      <point x="426" y="345"/>
      <point x="432" y="352"/>
      <point x="432" y="360" type="curve" smooth="yes"/>
      <point x="425" y="449"/>
      <point x="354" y="509"/>
      <point x="232" y="509" type="curve" smooth="yes"/>
      <point x="131" y="509"/>
      <point x="46" y="452"/>
      <point x="46" y="356" type="curve" smooth="yes"/>
      <point x="46" y="276"/>
      <point x="115" y="230"/>
      <point x="203" y="213" type="curve" smooth="yes"/>
      <point x="276" y="199" type="line" smooth="yes"/>
      <point x="325" y="190"/>
      <point x="344" y="168"/>
      <point x="344" y="135" type="curve" smooth="yes"/>
      <point x="344" y="95"/>
      <point x="304" y="70"/>
      <point x="251" y="70" type="curve" smooth="yes"/>
      <point x="243" y="70" type="line" smooth="yes"/>
      <point x="186" y="70"/>
      <point x="144" y="96"/>
      <point x="134" y="144" type="curve" smooth="yes"/>
      <point x="133" y="151"/>
      <point x="127" y="155"/>
      <point x="120" y="155" type="curve" smooth="yes"/>
      <point x="53" y="155" type="line" smooth="yes"/>
      <point x="44" y="155"/>
      <point x="38" y="147"/>
      <point x="39" y="139" type="curve" smooth="yes"/>
      <point x="51" y="51"/>
      <point x="119" y="-10"/>
      <point x="242" y="-10" type="curve" smooth="yes"/>
      <point x="358" y="-10"/>
      <point x="439" y="50"/>
      <point x="439" y="140" type="curve" smooth="yes"/>
      <point x="439" y="224"/>
      <point x="385" y="269"/>
    </contour>
  </outline>
</glyph>
<glyph name="t" format="1">
  <advance width="370"/>
  <unicode hex="0074"/>
  <note>
    t
  </note>
  <outline>
    <contour>
      <point x="340" y="14" type="curve" smooth="yes"/>
      <point x="340" y="73" type="line" smooth="yes"/>
      <point x="340" y="81"/>
      <point x="334" y="87"/>
      <point x="326" y="87" type="curve" smooth="yes"/>
      <point x="234" y="87" type="line" smooth="yes"/>
      <point x="227" y="87"/>
      <point x="220" y="93"/>
      <point x="220" y="101" type="curve"/>
      <point x="220" y="399" type="line" smooth="yes"/>
      <point x="220" y="407"/>
      <point x="226" y="413"/>
      <point x="234" y="413" type="curve" smooth="yes"/>
      <point x="326" y="413" type="line" smooth="yes"/>
      <point x="334" y="413"/>
      <point x="340" y="419"/>
      <point x="340" y="427" type="curve" smooth="yes"/>
      <point x="340" y="485" type="line" smooth="yes"/>
      <point x="340" y="493"/>
      <point x="333" y="499"/>
      <point x="326" y="499" type="curve" smooth="yes"/>
      <point x="234" y="499" type="line" smooth="yes"/>
      <point x="226" y="499"/>
      <point x="220" y="505"/>
      <point x="220" y="513" type="curve"/>
      <point x="220" y="648" type="line" smooth="yes"/>
      <point x="220" y="656"/>
      <point x="214" y="662"/>
      <point x="206" y="662" type="curve" smooth="yes"/>
      <point x="139" y="662" type="line" smooth="yes"/>
      <point x="131" y="662"/>
      <point x="125" y="656"/>
      <point x="125" y="648" type="curve" smooth="yes"/>
      <point x="125" y="513" type="line" smooth="yes"/>
      <point x="125" y="505"/>
      <point x="119" y="499"/>
      <point x="111" y="499" type="curve" smooth="yes"/>
      <point x="29" y="499" type="line" smooth="yes"/>
      <point x="21" y="499"/>
      <point x="15" y="493"/>
      <point x="15" y="485" type="curve" smooth="yes"/>
      <point x="15" y="426" type="line" smooth="yes"/>
      <point x="15" y="419"/>
      <point x="21" y="413"/>
      <point x="29" y="413" type="curve" smooth="yes"/>
      <point x="111" y="413" type="line" smooth="yes"/>
      <point x="119" y="413"/>
      <point x="125" y="406"/>
      <point x="125" y="399" type="curve" smooth="yes"/>
      <point x="125" y="87" type="line"/>
      <point x="125" y="42" type="line" smooth="yes"/>
      <point x="125" y="19"/>
      <point x="144" y="0"/>
      <point x="167" y="0" type="curve" smooth="yes"/>
      <point x="220" y="0" type="line"/>
      <point x="326" y="1" type="line" smooth="yes"/>
      <point x="334" y="1"/>
      <point x="340" y="7"/>
    </contour>
  </outline>
</glyph>
<glyph name="u" format="1">
  <advance width="542"/>
  <unicode hex="0075"/>
  <note>
    u
  </note>
  <outline>
    <contour>
      <point x="470" y="501" type="curve" smooth="yes"/>
      <point x="402" y="501" type="line" smooth="yes"/>
      <point x="401" y="501"/>
      <point x="400" y="501"/>
      <point x="400" y="501" type="curve"/>
      <point x="393" y="499"/>
      <point x="388" y="494"/>
      <point x="388" y="487" type="curve" smooth="yes"/>
      <point x="388" y="102" type="line" smooth="yes"/>
      <point x="388" y="95"/>
      <point x="383" y="88"/>
      <point x="374" y="88" type="curve" smooth="yes"/>
      <point x="167" y="88" type="line" smooth="yes"/>
      <point x="159" y="88"/>
      <point x="153" y="94"/>
      <point x="153" y="102" type="curve" smooth="yes"/>
      <point x="153" y="487" type="line" smooth="yes"/>
      <point x="153" y="495"/>
      <point x="147" y="501"/>
      <point x="139" y="501" type="curve" smooth="yes"/>
      <point x="72" y="501" type="line" smooth="yes"/>
      <point x="64" y="501"/>
      <point x="58" y="495"/>
      <point x="58" y="487" type="curve" smooth="yes"/>
      <point x="58" y="42" type="line" smooth="yes"/>
      <point x="58" y="19"/>
      <point x="77" y="0"/>
      <point x="100" y="0" type="curve" smooth="yes"/>
      <point x="442" y="0" type="line" smooth="yes"/>
      <point x="465" y="0"/>
      <point x="484" y="19"/>
      <point x="484" y="42" type="curve" smooth="yes"/>
      <point x="484" y="487" type="line" smooth="yes"/>
      <point x="484" y="495"/>
      <point x="477" y="501"/>
    </contour>
  </outline>
</glyph>
<glyph name="v" format="1">
  <advance width="505"/>
  <unicode hex="0076"/>
  <note>
    v
  </note>
  <outline>
    <contour>
      <point x="474" y="500" type="curve" smooth="yes"/>
      <point x="407" y="500" type="line" smooth="yes"/>
      <point x="401" y="500"/>
      <point x="396" y="496"/>
      <point x="394" y="490" type="curve" smooth="yes"/>
      <point x="256" y="102" type="line" smooth="yes"/>
      <point x="255" y="99"/>
      <point x="250" y="99"/>
      <point x="249" y="102" type="curve" smooth="yes"/>
      <point x="111" y="490" type="line" smooth="yes"/>
      <point x="109" y="496"/>
      <point x="104" y="500"/>
      <point x="98" y="500" type="curve" smooth="yes"/>
      <point x="30" y="500" type="line" smooth="yes"/>
      <point x="20" y="500"/>
      <point x="14" y="490"/>
      <point x="17" y="481" type="curve" smooth="yes"/>
      <point x="191" y="9" type="line" smooth="yes"/>
      <point x="193" y="4"/>
      <point x="199" y="0"/>
      <point x="204" y="0" type="curve" smooth="yes"/>
      <point x="300" y="0" type="line" smooth="yes"/>
      <point x="306" y="0"/>
      <point x="311" y="4"/>
      <point x="313" y="9" type="curve" smooth="yes"/>
      <point x="487" y="481" type="line" smooth="yes"/>
      <point x="491" y="490"/>
      <point x="484" y="500"/>
    </contour>
  </outline>
</glyph>
<glyph name="w" format="1">
  <advance width="775"/>
  <unicode hex="0077"/>
  <note>
    w
  </note>
  <outline>
    <contour>
      <point x="702" y="500" type="curve" smooth="yes"/>
      <point x="635" y="500" type="line" smooth="yes"/>
      <point x="634" y="500"/>
      <point x="633" y="500"/>
      <point x="632" y="499" type="curve"/>
      <point x="626" y="498"/>
      <point x="621" y="493"/>
      <point x="621" y="486" type="curve" smooth="yes"/>
      <point x="621" y="102" type="line" smooth="yes"/>
      <point x="621" y="94"/>
      <point x="616" y="88"/>
      <point x="607" y="88" type="curve" smooth="yes"/>
      <point x="449" y="88" type="line" smooth="yes"/>
      <point x="441" y="88"/>
      <point x="435" y="94"/>
      <point x="435" y="102" type="curve" smooth="yes"/>
      <point x="435" y="486" type="line" smooth="yes"/>
      <point x="435" y="494"/>
      <point x="429" y="500"/>
      <point x="421" y="500" type="curve" smooth="yes"/>
      <point x="354" y="500" type="line" smooth="yes"/>
      <point x="346" y="500"/>
      <point x="340" y="494"/>
      <point x="340" y="486" type="curve" smooth="yes"/>
      <point x="340" y="102" type="line" smooth="yes"/>
      <point x="340" y="94"/>
      <point x="334" y="88"/>
      <point x="326" y="88" type="curve" smooth="yes"/>
      <point x="167" y="88" type="line" smooth="yes"/>
      <point x="159" y="88"/>
      <point x="153" y="94"/>
      <point x="153" y="102" type="curve" smooth="yes"/>
      <point x="153" y="486" type="line" smooth="yes"/>
      <point x="153" y="494"/>
      <point x="147" y="500"/>
      <point x="139" y="500" type="curve" smooth="yes"/>
      <point x="72" y="500" type="line" smooth="yes"/>
      <point x="64" y="500"/>
      <point x="58" y="493"/>
      <point x="58" y="486" type="curve" smooth="yes"/>
      <point x="58" y="42" type="line" smooth="yes"/>
      <point x="58" y="19"/>
      <point x="77" y="0"/>
      <point x="100" y="0" type="curve" smooth="yes"/>
      <point x="674" y="0" type="line" smooth="yes"/>
      <point x="698" y="0"/>
      <point x="716" y="19"/>
      <point x="716" y="42" type="curve" smooth="yes"/>
      <point x="716" y="486" type="line"/>
      <point x="716" y="493"/>
      <point x="710" y="500"/>
    </contour>
  </outline>
</glyph>
<glyph name="x" format="1">
  <advance width="492"/>
  <unicode hex="0078"/>
  <note>
    x
  </note>
  <outline>
    <contour>
      <point x="469" y="22" type="curve" smooth="yes"/>
      <point x="304" y="250" type="line" smooth="yes"/>
      <point x="302" y="252"/>
      <point x="302" y="255"/>
      <point x="304" y="258" type="curve" smooth="yes"/>
      <point x="464" y="477" type="line" smooth="yes"/>
      <point x="471" y="486"/>
      <point x="464" y="499"/>
      <point x="453" y="499" type="curve" smooth="yes"/>
      <point x="379" y="499" type="line" smooth="yes"/>
      <point x="375" y="499"/>
      <point x="371" y="497"/>
      <point x="368" y="493" type="curve" smooth="yes"/>
      <point x="252" y="335" type="line" smooth="yes"/>
      <point x="250" y="331"/>
      <point x="244" y="331"/>
      <point x="241" y="335" type="curve" smooth="yes"/>
      <point x="126" y="493" type="line" smooth="yes"/>
      <point x="124" y="497"/>
      <point x="120" y="499"/>
      <point x="115" y="499" type="curve" smooth="yes"/>
      <point x="39" y="499" type="line" smooth="yes"/>
      <point x="27" y="499"/>
      <point x="21" y="486"/>
      <point x="27" y="477" type="curve" smooth="yes"/>
      <point x="188" y="256" type="line" smooth="yes"/>
      <point x="190" y="253"/>
      <point x="190" y="250"/>
      <point x="188" y="248" type="curve" smooth="yes"/>
      <point x="23" y="22" type="line" smooth="yes"/>
      <point x="16" y="13"/>
      <point x="23" y="0"/>
      <point x="34" y="0" type="curve" smooth="yes"/>
      <point x="107" y="0" type="line" smooth="yes"/>
      <point x="112" y="0"/>
      <point x="116" y="3"/>
      <point x="118" y="6" type="curve" smooth="yes"/>
      <point x="239" y="171" type="line" smooth="yes"/>
      <point x="242" y="175"/>
      <point x="248" y="175"/>
      <point x="250" y="171" type="curve" smooth="yes"/>
      <point x="370" y="6" type="line" smooth="yes"/>
      <point x="373" y="3"/>
      <point x="377" y="0"/>
      <point x="382" y="0" type="curve" smooth="yes"/>
      <point x="458" y="0" type="line" smooth="yes"/>
      <point x="469" y="0"/>
      <point x="476" y="13"/>
    </contour>
  </outline>
</glyph>
<glyph name="y" format="1">
  <advance width="520"/>
  <unicode hex="0079"/>
  <unicode hex="00FD"/>
  <unicode hex="00FF"/>
  <note>
    y
  </note>
  <outline>
    <contour>
      <point x="491" y="499" type="curve" smooth="yes"/>
      <point x="423" y="499" type="line" smooth="yes"/>
      <point x="418" y="499"/>
      <point x="413" y="496"/>
      <point x="410" y="490" type="curve" smooth="yes"/>
      <point x="271" y="146" type="line" smooth="yes"/>
      <point x="268" y="141"/>
      <point x="260" y="141"/>
      <point x="258" y="146" type="curve" smooth="yes"/>
      <point x="112" y="491" type="line" smooth="yes"/>
      <point x="110" y="496"/>
      <point x="105" y="499"/>
      <point x="100" y="499" type="curve" smooth="yes"/>
      <point x="29" y="499" type="line" smooth="yes"/>
      <point x="19" y="499"/>
      <point x="12" y="489"/>
      <point x="16" y="480" type="curve" smooth="yes"/>
      <point x="214" y="18" type="line" smooth="yes"/>
      <point x="215" y="15"/>
      <point x="215" y="11"/>
      <point x="214" y="7" type="curve" smooth="yes"/>
      <point x="163" y="-110" type="line" smooth="yes"/>
      <point x="162" y="-113"/>
      <point x="159" y="-115"/>
      <point x="156" y="-115" type="curve" smooth="yes"/>
      <point x="42" y="-115" type="line" smooth="yes"/>
      <point x="34" y="-115"/>
      <point x="28" y="-121"/>
      <point x="28" y="-129" type="curve" smooth="yes"/>
      <point x="28" y="-186" type="line" smooth="yes"/>
      <point x="28" y="-193"/>
      <point x="34" y="-200"/>
      <point x="42" y="-200" type="curve" smooth="yes"/>
      <point x="193" y="-200" type="line" smooth="yes"/>
      <point x="206" y="-200"/>
      <point x="219" y="-191"/>
      <point x="224" y="-179" type="curve" smooth="yes"/>
      <point x="504" y="480" type="line" smooth="yes"/>
      <point x="508" y="489"/>
      <point x="501" y="499"/>
    </contour>
  </outline>
</glyph>
<glyph name="z" format="1">
  <advance width="474"/>
  <unicode hex="007A"/>
  <note>
    z
  </note>
  <outline>
    <contour>
      <point x="432" y="82" type="curve" smooth="yes"/>
      <point x="150" y="82" type="line" smooth="yes"/>
      <point x="147" y="82"/>
      <point x="146" y="85"/>
      <point x="148" y="88" type="curve" smooth="yes"/>
      <point x="420" y="403" type="line" smooth="yes"/>
      <point x="427" y="410"/>
      <point x="430" y="420"/>
      <point x="430" y="430" type="curve" smooth="yes"/>
      <point x="430" y="485" type="line" smooth="yes"/>
      <point x="430" y="493"/>
      <point x="424" y="499"/>
      <point x="417" y="499" type="curve" smooth="yes"/>
      <point x="50" y="499" type="line" smooth="yes"/>
      <point x="42" y="499"/>
      <point x="36" y="493"/>
      <point x="36" y="485" type="curve" smooth="yes"/>
      <point x="36" y="431" type="line" smooth="yes"/>
      <point x="36" y="424"/>
      <point x="42" y="417"/>
      <point x="50" y="417" type="curve" smooth="yes"/>
      <point x="311" y="417" type="line" smooth="yes"/>
      <point x="314" y="417"/>
      <point x="316" y="414"/>
      <point x="314" y="412" type="curve" smooth="yes"/>
      <point x="41" y="97" type="line" smooth="yes"/>
      <point x="35" y="89"/>
      <point x="31" y="79"/>
      <point x="31" y="69" type="curve" smooth="yes"/>
      <point x="31" y="14" type="line" smooth="yes"/>
      <point x="31" y="6"/>
      <point x="37" y="0"/>
      <point x="45" y="0" type="curve" smooth="yes"/>
      <point x="432" y="0" type="line" smooth="yes"/>
      <point x="439" y="0"/>
      <point x="445" y="6"/>
      <point x="445" y="14" type="curve" smooth="yes"/>
      <point x="445" y="68" type="line" smooth="yes"/>
      <point x="445" y="76"/>
      <point x="439" y="82"/>
    </contour>
  </outline>
</glyph>
<glyph name="braceleft" format="1">
  <advance width="276"/>
  <unicode hex="007B"/>
  <note>
    braceleft
  </note>
  <outline>
    <contour>
      <point x="212" y="420" type="curve" smooth="yes"/>
      <point x="212" y="729" type="line" smooth="yes"/>
      <point x="212" y="735"/>
      <point x="217" y="740"/>
      <point x="224" y="740" type="curve" smooth="yes"/>
      <point x="288" y="740" type="line" smooth="yes"/>
      <point x="295" y="740"/>
      <point x="300" y="746"/>
      <point x="300" y="752" type="curve" smooth="yes"/>
      <point x="300" y="810" type="line" smooth="yes"/>
      <point x="300" y="816"/>
      <point x="295" y="821"/>
      <point x="288" y="821" type="curve" smooth="yes"/>
      <point x="160" y="821" type="line" smooth="yes"/>
      <point x="140" y="821"/>
      <point x="125" y="805"/>
      <point x="125" y="786" type="curve" smooth="yes"/>
      <point x="125" y="455" type="line" smooth="yes"/>
      <point x="125" y="436"/>
      <point x="109" y="420"/>
      <point x="89" y="420" type="curve" smooth="yes"/>
      <point x="55" y="420" type="line" smooth="yes"/>
      <point x="48" y="420"/>
      <point x="43" y="415"/>
      <point x="43" y="408" type="curve" smooth="yes"/>
      <point x="43" y="291" type="line" smooth="yes"/>
      <point x="43" y="285"/>
      <point x="48" y="279"/>
      <point x="55" y="279" type="curve" smooth="yes"/>
      <point x="89" y="279" type="line" smooth="yes"/>
      <point x="109" y="279"/>
      <point x="125" y="264"/>
      <point x="125" y="244" type="curve" smooth="yes"/>
      <point x="125" y="-86" type="line" smooth="yes"/>
      <point x="125" y="-106"/>
      <point x="140" y="-122"/>
      <point x="160" y="-122" type="curve" smooth="yes"/>
      <point x="288" y="-122" type="line" smooth="yes"/>
      <point x="295" y="-122"/>
      <point x="300" y="-116"/>
      <point x="300" y="-110" type="curve" smooth="yes"/>
      <point x="300" y="-52" type="line" smooth="yes"/>
      <point x="300" y="-46"/>
      <point x="295" y="-41"/>
      <point x="288" y="-41" type="curve" smooth="yes"/>
      <point x="224" y="-41" type="line" smooth="yes"/>
      <point x="217" y="-41"/>
      <point x="212" y="-35"/>
      <point x="212" y="-29" type="curve" smooth="yes"/>
      <point x="212" y="279" type="line" smooth="yes"/>
      <point x="212" y="311"/>
      <point x="190" y="338"/>
      <point x="161" y="347" type="curve" smooth="yes"/>
      <point x="158" y="348"/>
      <point x="158" y="352"/>
      <point x="161" y="352" type="curve" smooth="yes"/>
      <point x="190" y="361"/>
      <point x="212" y="388"/>
    </contour>
  </outline>
</glyph>
<glyph name="verticalbar" format="1">
  <advance width="218"/>
  <unicode hex="007C"/>
  <note>
    verticalbar
  </note>
  <outline>
    <contour>
      <point x="138" y="782" type="curve" smooth="yes"/>
      <point x="79" y="782" type="line" smooth="yes"/>
      <point x="71" y="782"/>
      <point x="65" y="775"/>
      <point x="65" y="768" type="curve" smooth="yes"/>
      <point x="65" y="-67" type="line" smooth="yes"/>
      <point x="65" y="-74"/>
      <point x="71" y="-81"/>
      <point x="79" y="-81" type="curve" smooth="yes"/>
      <point x="138" y="-81" type="line" smooth="yes"/>
      <point x="146" y="-81"/>
      <point x="152" y="-74"/>
      <point x="152" y="-67" type="curve" smooth="yes"/>
      <point x="152" y="768" type="line" smooth="yes"/>
      <point x="152" y="775"/>
      <point x="146" y="782"/>
    </contour>
  </outline>
</glyph>
<glyph name="braceright" format="1">
  <advance width="276"/>
  <unicode hex="007D"/>
  <note>
    braceright
  </note>
  <outline>
    <contour>
      <point x="115" y="352" type="curve" smooth="yes"/>
      <point x="118" y="352"/>
      <point x="118" y="348"/>
      <point x="115" y="347" type="curve" smooth="yes"/>
      <point x="86" y="338"/>
      <point x="64" y="311"/>
      <point x="64" y="279" type="curve" smooth="yes"/>
      <point x="64" y="-29" type="line" smooth="yes"/>
      <point x="64" y="-35"/>
      <point x="59" y="-41"/>
      <point x="52" y="-41" type="curve" smooth="yes"/>
      <point x="-12" y="-41" type="line" smooth="yes"/>
      <point x="-19" y="-41"/>
      <point x="-24" y="-46"/>
      <point x="-24" y="-52" type="curve" smooth="yes"/>
      <point x="-24" y="-110" type="line" smooth="yes"/>
      <point x="-24" y="-116"/>
      <point x="-19" y="-122"/>
      <point x="-12" y="-122" type="curve" smooth="yes"/>
      <point x="116" y="-122" type="line" smooth="yes"/>
      <point x="136" y="-122"/>
      <point x="151" y="-106"/>
      <point x="151" y="-86" type="curve" smooth="yes"/>
      <point x="151" y="244" type="line" smooth="yes"/>
      <point x="151" y="264"/>
      <point x="167" y="279"/>
      <point x="187" y="279" type="curve" smooth="yes"/>
      <point x="221" y="279" type="line" smooth="yes"/>
      <point x="228" y="279"/>
      <point x="233" y="285"/>
      <point x="233" y="291" type="curve" smooth="yes"/>
      <point x="233" y="408" type="line" smooth="yes"/>
      <point x="233" y="415"/>
      <point x="228" y="420"/>
      <point x="221" y="420" type="curve" smooth="yes"/>
      <point x="187" y="420" type="line" smooth="yes"/>
      <point x="167" y="420"/>
      <point x="151" y="436"/>
      <point x="151" y="455" type="curve" smooth="yes"/>
      <point x="151" y="786" type="line" smooth="yes"/>
      <point x="151" y="805"/>
      <point x="136" y="821"/>
      <point x="116" y="821" type="curve" smooth="yes"/>
      <point x="-12" y="821" type="line" smooth="yes"/>
      <point x="-19" y="821"/>
      <point x="-24" y="816"/>
      <point x="-24" y="810" type="curve" smooth="yes"/>
      <point x="-24" y="752" type="line" smooth="yes"/>
      <point x="-24" y="746"/>
      <point x="-19" y="740"/>
      <point x="-12" y="740" type="curve" smooth="yes"/>
      <point x="52" y="740" type="line" smooth="yes"/>
      <point x="59" y="740"/>
      <point x="64" y="735"/>
      <point x="64" y="729" type="curve" smooth="yes"/>
      <point x="64" y="420" type="line" smooth="yes"/>
      <point x="64" y="388"/>
      <point x="86" y="361"/>
    </contour>
  </outline>
</glyph>
<glyph name="exclamdown" format="1">
  <advance width="211"/>
  <unicode hex="00A1"/>
  <note>
    exclamdown
  </note>
  <outline>
    <contour>
      <point x="105" y="333" type="curve" smooth="yes"/>
      <point x="139" y="333"/>
      <point x="167" y="361"/>
      <point x="167" y="395" type="curve" smooth="yes"/>
      <point x="167" y="428"/>
      <point x="139" y="456"/>
      <point x="105" y="456" type="curve" smooth="yes"/>
      <point x="71" y="456"/>
      <point x="44" y="428"/>
      <point x="44" y="395" type="curve" smooth="yes"/>
      <point x="44" y="361"/>
      <point x="71" y="333"/>
    </contour>
    <contour>
      <point x="160" y="-12" type="curve" smooth="yes"/>
      <point x="145" y="265" type="line" smooth="yes"/>
      <point x="145" y="271"/>
      <point x="140" y="276"/>
      <point x="134" y="276" type="curve" smooth="yes"/>
      <point x="77" y="276" type="line" smooth="yes"/>
      <point x="71" y="276"/>
      <point x="66" y="271"/>
      <point x="65" y="265" type="curve" smooth="yes"/>
      <point x="51" y="-12" type="line" smooth="yes"/>
      <point x="51" y="-12"/>
      <point x="51" y="-12"/>
      <point x="51" y="-13" type="curve" smooth="yes"/>
      <point x="51" y="-238" type="line" smooth="yes"/>
      <point x="51" y="-245"/>
      <point x="56" y="-250"/>
      <point x="63" y="-250" type="curve" smooth="yes"/>
      <point x="149" y="-250" type="line" smooth="yes"/>
      <point x="155" y="-250"/>
      <point x="160" y="-245"/>
      <point x="160" y="-238" type="curve" smooth="yes"/>
      <point x="160" y="-13" type="line" smooth="yes"/>
      <point x="160" y="-12"/>
      <point x="160" y="-12"/>
    </contour>
  </outline>
</glyph>
<glyph name="sterling" format="1">
  <advance width="566"/>
  <unicode hex="00A3"/>
  <note>
    sterling
  </note>
  <outline>
    <contour>
      <point x="524" y="85" type="curve" smooth="yes"/>
      <point x="208" y="85" type="line" smooth="yes"/>
      <point x="202" y="85"/>
      <point x="200" y="92"/>
      <point x="204" y="95" type="curve" smooth="yes"/>
      <point x="226" y="112"/>
      <point x="236" y="131"/>
      <point x="239" y="164" type="curve" smooth="yes"/>
      <point x="247" y="268" type="line" smooth="yes"/>
      <point x="247" y="274"/>
      <point x="252" y="279"/>
      <point x="259" y="279" type="curve" smooth="yes"/>
      <point x="355" y="279" type="line" smooth="yes"/>
      <point x="361" y="279"/>
      <point x="367" y="284"/>
      <point x="367" y="291" type="curve" smooth="yes"/>
      <point x="367" y="352" type="line" smooth="yes"/>
      <point x="367" y="359"/>
      <point x="361" y="364"/>
      <point x="355" y="364" type="curve" smooth="yes"/>
      <point x="267" y="364" type="line" smooth="yes"/>
      <point x="260" y="364"/>
      <point x="255" y="370"/>
      <point x="255" y="377" type="curve" smooth="yes"/>
      <point x="264" y="484" type="line" smooth="yes"/>
      <point x="271" y="569"/>
      <point x="301" y="614"/>
      <point x="375" y="614" type="curve" smooth="yes"/>
      <point x="474" y="614" type="line" smooth="yes"/>
      <point x="480" y="614"/>
      <point x="485" y="619"/>
      <point x="485" y="626" type="curve" smooth="yes"/>
      <point x="485" y="687" type="line" smooth="yes"/>
      <point x="485" y="694"/>
      <point x="480" y="699"/>
      <point x="474" y="699" type="curve" smooth="yes"/>
      <point x="379" y="699" type="line" smooth="yes"/>
      <point x="243" y="699"/>
      <point x="178" y="628"/>
      <point x="167" y="489" type="curve" smooth="yes"/>
      <point x="158" y="375" type="line" smooth="yes"/>
      <point x="158" y="369"/>
      <point x="153" y="364"/>
      <point x="147" y="364" type="curve" smooth="yes"/>
      <point x="53" y="364" type="line" smooth="yes"/>
      <point x="46" y="364"/>
      <point x="41" y="359"/>
      <point x="41" y="352" type="curve" smooth="yes"/>
      <point x="41" y="291" type="line" smooth="yes"/>
      <point x="41" y="284"/>
      <point x="46" y="279"/>
      <point x="53" y="279" type="curve" smooth="yes"/>
      <point x="138" y="279" type="line" smooth="yes"/>
      <point x="145" y="279"/>
      <point x="151" y="273"/>
      <point x="150" y="266" type="curve" smooth="yes"/>
      <point x="142" y="155" type="line" smooth="yes"/>
      <point x="139" y="108"/>
      <point x="116" y="85"/>
      <point x="71" y="85" type="curve" smooth="yes"/>
      <point x="53" y="85" type="line" smooth="yes"/>
      <point x="46" y="85"/>
      <point x="41" y="80"/>
      <point x="41" y="73" type="curve" smooth="yes"/>
      <point x="41" y="12" type="line" smooth="yes"/>
      <point x="41" y="5"/>
      <point x="46" y="0"/>
      <point x="53" y="0" type="curve" smooth="yes"/>
      <point x="524" y="0" type="line" smooth="yes"/>
      <point x="530" y="0"/>
      <point x="535" y="5"/>
      <point x="535" y="12" type="curve" smooth="yes"/>
      <point x="535" y="73" type="line" smooth="yes"/>
      <point x="535" y="80"/>
      <point x="530" y="85"/>
    </contour>
  </outline>
</glyph>
<glyph name="yen" format="1">
  <advance width="652"/>
  <unicode hex="00A5"/>
  <note>
    yen
  </note>
  <outline>
    <contour>
      <point x="497" y="488" type="curve" smooth="yes"/>
      <point x="612" y="678" type="line" smooth="yes"/>
      <point x="618" y="687"/>
      <point x="611" y="699"/>
      <point x="601" y="699" type="curve" smooth="yes"/>
      <point x="521" y="699" type="line" smooth="yes"/>
      <point x="517" y="699"/>
      <point x="512" y="696"/>
      <point x="509" y="692" type="curve" smooth="yes"/>
      <point x="335" y="401" type="line" smooth="yes"/>
      <point x="334" y="400"/>
      <point x="333" y="399"/>
      <point x="331" y="399" type="curve"/>
      <point x="330" y="398"/>
      <point x="328" y="398"/>
      <point x="326" y="399" type="curve"/>
      <point x="325" y="399"/>
      <point x="324" y="400"/>
      <point x="323" y="401" type="curve" smooth="yes"/>
      <point x="146" y="692" type="line" smooth="yes"/>
      <point x="144" y="696"/>
      <point x="139" y="699"/>
      <point x="134" y="699" type="curve" smooth="yes"/>
      <point x="51" y="699" type="line" smooth="yes"/>
      <point x="40" y="699"/>
      <point x="33" y="687"/>
      <point x="39" y="678" type="curve" smooth="yes"/>
      <point x="155" y="488" type="line" smooth="yes"/>
      <point x="156" y="486"/>
      <point x="155" y="483"/>
      <point x="153" y="483" type="curve" smooth="yes"/>
      <point x="98" y="483" type="line" smooth="yes"/>
      <point x="91" y="483"/>
      <point x="86" y="478"/>
      <point x="86" y="472" type="curve" smooth="yes"/>
      <point x="86" y="410" type="line" smooth="yes"/>
      <point x="86" y="404"/>
      <point x="91" y="399"/>
      <point x="98" y="399" type="curve" smooth="yes"/>
      <point x="203" y="399" type="line" smooth="yes"/>
      <point x="207" y="399"/>
      <point x="211" y="396"/>
      <point x="213" y="393" type="curve" smooth="yes"/>
      <point x="256" y="323" type="line" smooth="yes"/>
      <point x="258" y="319"/>
      <point x="255" y="314"/>
      <point x="251" y="314" type="curve" smooth="yes"/>
      <point x="98" y="314" type="line" smooth="yes"/>
      <point x="91" y="314"/>
      <point x="86" y="308"/>
      <point x="86" y="302" type="curve" smooth="yes"/>
      <point x="86" y="240" type="line" smooth="yes"/>
      <point x="86" y="234"/>
      <point x="91" y="229"/>
      <point x="98" y="229" type="curve" smooth="yes"/>
      <point x="264" y="229" type="line" smooth="yes"/>
      <point x="271" y="229"/>
      <point x="276" y="223"/>
      <point x="276" y="217" type="curve" smooth="yes"/>
      <point x="276" y="14" type="line" smooth="yes"/>
      <point x="276" y="6"/>
      <point x="282" y="0"/>
      <point x="290" y="0" type="curve" smooth="yes"/>
      <point x="362" y="0" type="line" smooth="yes"/>
      <point x="369" y="0"/>
      <point x="376" y="6"/>
      <point x="376" y="14" type="curve" smooth="yes"/>
      <point x="376" y="217" type="line" smooth="yes"/>
      <point x="376" y="223"/>
      <point x="381" y="229"/>
      <point x="387" y="229" type="curve" smooth="yes"/>
      <point x="554" y="229" type="line" smooth="yes"/>
      <point x="560" y="229"/>
      <point x="565" y="234"/>
      <point x="565" y="240" type="curve" smooth="yes"/>
      <point x="565" y="302" type="line" smooth="yes"/>
      <point x="565" y="308"/>
      <point x="560" y="314"/>
      <point x="554" y="314" type="curve" smooth="yes"/>
      <point x="401" y="314" type="line" smooth="yes"/>
      <point x="396" y="314"/>
      <point x="393" y="319"/>
      <point x="396" y="323" type="curve" smooth="yes"/>
      <point x="439" y="393" type="line" smooth="yes"/>
      <point x="441" y="396"/>
      <point x="445" y="399"/>
      <point x="449" y="399" type="curve" smooth="yes"/>
      <point x="554" y="399" type="line" smooth="yes"/>
      <point x="560" y="399"/>
      <point x="565" y="404"/>
      <point x="565" y="410" type="curve" smooth="yes"/>
      <point x="565" y="472" type="line" smooth="yes"/>
      <point x="565" y="478"/>
      <point x="560" y="483"/>
      <point x="554" y="483" type="curve" smooth="yes"/>
      <point x="499" y="483" type="line" smooth="yes"/>
      <point x="497" y="483"/>
      <point x="495" y="486"/>
    </contour>
  </outline>
</glyph>
<glyph name="dieresis" format="1">
  <advance width="339"/>
  <unicode hex="00A8"/>
  <note>
    dieresis
  </note>
  <outline>
    <contour>
      <point x="259" y="595" type="curve" smooth="yes"/>
      <point x="290" y="595"/>
      <point x="315" y="620"/>
      <point x="315" y="651" type="curve" smooth="yes"/>
      <point x="315" y="681"/>
      <point x="290" y="706"/>
      <point x="259" y="706" type="curve" smooth="yes"/>
      <point x="228" y="706"/>
      <point x="203" y="681"/>
      <point x="203" y="651" type="curve" smooth="yes"/>
      <point x="203" y="620"/>
      <point x="228" y="595"/>
    </contour>
    <contour>
      <point x="93" y="596" type="curve" smooth="yes"/>
      <point x="123" y="603"/>
      <point x="141" y="633"/>
      <point x="134" y="663" type="curve" smooth="yes"/>
      <point x="127" y="693"/>
      <point x="97" y="712"/>
      <point x="67" y="705" type="curve" smooth="yes"/>
      <point x="37" y="698"/>
      <point x="18" y="668"/>
      <point x="26" y="638" type="curve" smooth="yes"/>
      <point x="33" y="608"/>
      <point x="63" y="589"/>
    </contour>
  </outline>
</glyph>
<glyph name="copyright" format="1">
  <advance width="234"/>
  <unicode hex="00A9"/>
  <note>
    copyright
  </note>
  <outline>
    <contour>
      <point x="120" y="656" type="curve" smooth="yes"/>
      <point x="121" y="656" type="line" smooth="yes"/>
      <point x="133" y="656"/>
      <point x="144" y="649"/>
      <point x="145" y="638" type="curve" smooth="yes"/>
      <point x="146" y="637"/>
      <point x="146" y="636"/>
      <point x="147" y="636" type="curve" smooth="yes"/>
      <point x="158" y="636" type="line" smooth="yes"/>
      <point x="159" y="636"/>
      <point x="160" y="637"/>
      <point x="160" y="638" type="curve" smooth="yes"/>
      <point x="158" y="657"/>
      <point x="141" y="668"/>
      <point x="120" y="668" type="curve" smooth="yes"/>
      <point x="92" y="669"/>
      <point x="74" y="647"/>
      <point x="74" y="618" type="curve" smooth="yes"/>
      <point x="74" y="589"/>
      <point x="92" y="567"/>
      <point x="120" y="567" type="curve" smooth="yes"/>
      <point x="141" y="567"/>
      <point x="158" y="579"/>
      <point x="160" y="597" type="curve" smooth="yes"/>
      <point x="160" y="598"/>
      <point x="159" y="600"/>
      <point x="158" y="600" type="curve" smooth="yes"/>
      <point x="147" y="600" type="line" smooth="yes"/>
      <point x="146" y="600"/>
      <point x="146" y="599"/>
      <point x="145" y="598" type="curve" smooth="yes"/>
      <point x="144" y="587"/>
      <point x="133" y="580"/>
      <point x="121" y="580" type="curve" smooth="yes"/>
      <point x="120" y="580" type="line" smooth="yes"/>
      <point x="100" y="580"/>
      <point x="88" y="596"/>
      <point x="88" y="618" type="curve"/>
      <point x="88" y="639"/>
      <point x="100" y="656"/>
    </contour>
    <contour>
      <point x="117" y="706" type="curve" smooth="yes"/>
      <point x="68" y="706"/>
      <point x="29" y="666"/>
      <point x="29" y="618" type="curve" smooth="yes"/>
      <point x="29" y="569"/>
      <point x="68" y="530"/>
      <point x="117" y="530" type="curve" smooth="yes"/>
      <point x="165" y="530"/>
      <point x="204" y="569"/>
      <point x="204" y="618" type="curve" smooth="yes"/>
      <point x="204" y="666"/>
      <point x="165" y="706"/>
    </contour>
    <contour>
      <point x="117" y="544" type="curve" smooth="yes"/>
      <point x="76" y="544"/>
      <point x="43" y="577"/>
      <point x="43" y="618" type="curve" smooth="yes"/>
      <point x="43" y="659"/>
      <point x="76" y="692"/>
      <point x="117" y="692" type="curve" smooth="yes"/>
      <point x="158" y="692"/>
      <point x="191" y="659"/>
      <point x="191" y="618" type="curve" smooth="yes"/>
      <point x="191" y="577"/>
      <point x="158" y="544"/>
    </contour>
  </outline>
</glyph>
<glyph name="registered" format="1">
  <advance width="234"/>
  <unicode hex="00AE"/>
  <note>
    registered
  </note>
  <outline>
    <contour>
      <point x="153" y="640" type="curve" smooth="yes"/>
      <point x="153" y="655"/>
      <point x="141" y="666"/>
      <point x="122" y="666" type="curve" smooth="yes"/>
      <point x="86" y="666" type="line" smooth="yes"/>
      <point x="83" y="666"/>
      <point x="80" y="664"/>
      <point x="80" y="661" type="curve" smooth="yes"/>
      <point x="80" y="570" type="line" smooth="yes"/>
      <point x="80" y="569"/>
      <point x="81" y="568"/>
      <point x="82" y="568" type="curve" smooth="yes"/>
      <point x="92" y="568" type="line" smooth="yes"/>
      <point x="93" y="568"/>
      <point x="94" y="569"/>
      <point x="94" y="570" type="curve" smooth="yes"/>
      <point x="94" y="605" type="line" smooth="yes"/>
      <point x="94" y="606"/>
      <point x="95" y="607"/>
      <point x="96" y="607" type="curve" smooth="yes"/>
      <point x="128" y="607" type="line" smooth="yes"/>
      <point x="129" y="607"/>
      <point x="129" y="607"/>
      <point x="129" y="607" type="curve"/>
      <point x="136" y="607" type="line" smooth="yes"/>
      <point x="137" y="607"/>
      <point x="138" y="606"/>
      <point x="138" y="605" type="curve" smooth="yes"/>
      <point x="138" y="570" type="line" smooth="yes"/>
      <point x="138" y="569"/>
      <point x="139" y="568"/>
      <point x="140" y="568" type="curve" smooth="yes"/>
      <point x="150" y="568" type="line" smooth="yes"/>
      <point x="151" y="568"/>
      <point x="152" y="569"/>
      <point x="152" y="570" type="curve" smooth="yes"/>
      <point x="152" y="609" type="line" smooth="yes"/>
      <point x="152" y="612"/>
      <point x="149" y="615"/>
      <point x="146" y="615" type="curve" smooth="yes"/>
      <point x="140" y="615" type="line"/>
      <point x="139" y="615"/>
      <point x="138" y="615"/>
      <point x="137" y="615" type="curve"/>
      <point x="146" y="618"/>
      <point x="153" y="627"/>
    </contour>
    <contour>
      <point x="120" y="620" type="curve" smooth="yes"/>
      <point x="96" y="620" type="line" smooth="yes"/>
      <point x="95" y="620"/>
      <point x="94" y="621"/>
      <point x="94" y="622" type="curve" smooth="yes"/>
      <point x="94" y="652" type="line" smooth="yes"/>
      <point x="94" y="653"/>
      <point x="95" y="654"/>
      <point x="96" y="654" type="curve" smooth="yes"/>
      <point x="120" y="654" type="line" smooth="yes"/>
      <point x="132" y="654"/>
      <point x="139" y="648"/>
      <point x="139" y="638" type="curve" smooth="yes"/>
      <point x="139" y="628"/>
      <point x="132" y="620"/>
    </contour>
    <contour>
      <point x="117" y="705" type="curve" smooth="yes"/>
      <point x="68" y="705"/>
      <point x="29" y="666"/>
      <point x="29" y="617" type="curve" smooth="yes"/>
      <point x="29" y="569"/>
      <point x="68" y="529"/>
      <point x="117" y="529" type="curve" smooth="yes"/>
      <point x="165" y="529"/>
      <point x="204" y="569"/>
      <point x="204" y="617" type="curve" smooth="yes"/>
      <point x="204" y="666"/>
      <point x="165" y="705"/>
    </contour>
    <contour>
      <point x="117" y="543" type="curve" smooth="yes"/>
      <point x="76" y="543"/>
      <point x="43" y="576"/>
      <point x="43" y="617" type="curve" smooth="yes"/>
      <point x="43" y="658"/>
      <point x="76" y="691"/>
      <point x="117" y="691" type="curve" smooth="yes"/>
      <point x="158" y="691"/>
      <point x="191" y="658"/>
      <point x="191" y="617" type="curve" smooth="yes"/>
      <point x="191" y="576"/>
      <point x="158" y="543"/>
    </contour>
  </outline>
</glyph>
<glyph name="plusminus" format="1">
  <advance width="404"/>
  <unicode hex="00B1"/>
  <note>
    plusminus
  </note>
  <outline>
    <contour>
      <point x="353" y="239" type="curve" smooth="yes"/>
      <point x="51" y="239" type="line" smooth="yes"/>
      <point x="44" y="239"/>
      <point x="39" y="234"/>
      <point x="39" y="227" type="curve" smooth="yes"/>
      <point x="39" y="170" type="line" smooth="yes"/>
      <point x="39" y="163"/>
      <point x="44" y="158"/>
      <point x="51" y="158" type="curve" smooth="yes"/>
      <point x="353" y="158" type="line" smooth="yes"/>
      <point x="359" y="158"/>
      <point x="365" y="163"/>
      <point x="365" y="170" type="curve" smooth="yes"/>
      <point x="365" y="227" type="line" smooth="yes"/>
      <point x="365" y="234"/>
      <point x="359" y="239"/>
    </contour>
    <contour>
      <point x="51" y="367" type="curve" smooth="yes"/>
      <point x="161" y="367" type="line"/>
      <point x="161" y="291" type="line" smooth="yes"/>
      <point x="161" y="285"/>
      <point x="167" y="280"/>
      <point x="173" y="280" type="curve" smooth="yes"/>
      <point x="231" y="280" type="line" smooth="yes"/>
      <point x="237" y="280"/>
      <point x="242" y="285"/>
      <point x="242" y="291" type="curve" smooth="yes"/>
      <point x="242" y="367" type="line"/>
      <point x="353" y="367" type="line" smooth="yes"/>
      <point x="359" y="367"/>
      <point x="365" y="372"/>
      <point x="365" y="379" type="curve" smooth="yes"/>
      <point x="365" y="436" type="line" smooth="yes"/>
      <point x="365" y="442"/>
      <point x="359" y="448"/>
      <point x="353" y="448" type="curve" smooth="yes"/>
      <point x="242" y="448" type="line"/>
      <point x="242" y="523" type="line" smooth="yes"/>
      <point x="242" y="529"/>
      <point x="237" y="535"/>
      <point x="231" y="535" type="curve" smooth="yes"/>
      <point x="173" y="535" type="line" smooth="yes"/>
      <point x="167" y="535"/>
      <point x="161" y="529"/>
      <point x="161" y="523" type="curve" smooth="yes"/>
      <point x="161" y="448" type="line"/>
      <point x="51" y="448" type="line" smooth="yes"/>
      <point x="44" y="448"/>
      <point x="39" y="442"/>
      <point x="39" y="436" type="curve" smooth="yes"/>
      <point x="39" y="379" type="line" smooth="yes"/>
      <point x="39" y="372"/>
      <point x="44" y="367"/>
    </contour>
  </outline>
</glyph>
<glyph name="questiondown" format="1">
  <advance width="346"/>
  <unicode hex="00BF"/>
  <note>
    questiondown
  </note>
  <outline>
    <contour>
      <point x="457" y="-43" type="curve" smooth="yes"/>
      <point x="381" y="-43" type="line" smooth="yes"/>
      <point x="375" y="-43"/>
      <point x="370" y="-48"/>
      <point x="370" y="-54" type="curve" smooth="yes"/>
      <point x="365" y="-124"/>
      <point x="313" y="-176"/>
      <point x="240" y="-176" type="curve" smooth="yes"/>
      <point x="230" y="-176" type="line" smooth="yes"/>
      <point x="164" y="-176"/>
      <point x="107" y="-118"/>
      <point x="107" y="-53" type="curve" smooth="yes"/>
      <point x="107" y="-50"/>
      <point x="107" y="-54"/>
      <point x="107" y="-51" type="curve" smooth="yes"/>
      <point x="107" y="11"/>
      <point x="147" y="49"/>
      <point x="200" y="81" type="curve" smooth="yes"/>
      <point x="223" y="94"/>
      <point x="249" y="107"/>
      <point x="275" y="119" type="curve" smooth="yes"/>
      <point x="287" y="125"/>
      <point x="295" y="137"/>
      <point x="295" y="151" type="curve" smooth="yes"/>
      <point x="295" y="263" type="line" smooth="yes"/>
      <point x="295" y="270"/>
      <point x="289" y="275"/>
      <point x="283" y="275" type="curve" smooth="yes"/>
      <point x="212" y="275" type="line" smooth="yes"/>
      <point x="206" y="275"/>
      <point x="200" y="270"/>
      <point x="200" y="263" type="curve" smooth="yes"/>
      <point x="200" y="178" type="line" smooth="yes"/>
      <point x="200" y="174"/>
      <point x="198" y="170"/>
      <point x="194" y="168" type="curve" smooth="yes"/>
      <point x="104" y="122"/>
      <point x="15" y="69"/>
      <point x="15" y="-51" type="curve"/>
      <point x="15" y="-51"/>
      <point x="15" y="-51"/>
      <point x="15" y="-53" type="curve" smooth="yes"/>
      <point x="15" y="-169"/>
      <point x="113" y="-261"/>
      <point x="235" y="-261" type="curve" smooth="yes"/>
      <point x="365" y="-261"/>
      <point x="462" y="-180"/>
      <point x="469" y="-55" type="curve" smooth="yes"/>
      <point x="470" y="-48"/>
      <point x="464" y="-43"/>
    </contour>
    <contour>
      <point x="243" y="333" type="curve" smooth="yes"/>
      <point x="277" y="333"/>
      <point x="304" y="360"/>
      <point x="304" y="394" type="curve" smooth="yes"/>
      <point x="304" y="428"/>
      <point x="277" y="455"/>
      <point x="243" y="455" type="curve" smooth="yes"/>
      <point x="209" y="455"/>
      <point x="182" y="428"/>
      <point x="182" y="394" type="curve" smooth="yes"/>
      <point x="182" y="360"/>
      <point x="209" y="333"/>
    </contour>
  </outline>
</glyph>
<glyph name="Agrave" format="1">
  <advance width="685"/>
  <unicode hex="00C0"/>
  <note>
    Agrave
  </note>
  <outline>
    <contour>
      <point x="245" y="867" type="curve"/>
      <point x="285" y="765" type="line"/>
      <point x="287" y="760"/>
      <point x="292" y="759"/>
      <point x="296" y="759" type="curve" smooth="yes"/>
      <point x="361" y="759" type="line" smooth="yes"/>
      <point x="370" y="759"/>
      <point x="377" y="768"/>
      <point x="374" y="777" type="curve"/>
      <point x="332" y="880" type="line" smooth="yes"/>
      <point x="330" y="886"/>
      <point x="325" y="889"/>
      <point x="319" y="889" type="curve" smooth="yes"/>
      <point x="256" y="889" type="line" smooth="yes"/>
      <point x="243" y="889"/>
      <point x="240" y="880"/>
    </contour>
    <contour>
      <point x="674" y="19" type="curve" smooth="yes"/>
      <point x="408" y="690" type="line" smooth="yes"/>
      <point x="406" y="696"/>
      <point x="401" y="699"/>
      <point x="396" y="699" type="curve" smooth="yes"/>
      <point x="287" y="699" type="line" smooth="yes"/>
      <point x="281" y="699"/>
      <point x="276" y="696"/>
      <point x="274" y="690" type="curve" smooth="yes"/>
      <point x="10" y="19" type="line" smooth="yes"/>
      <point x="6" y="10"/>
      <point x="13" y="0"/>
      <point x="23" y="0" type="curve" smooth="yes"/>
      <point x="97" y="0" type="line" smooth="yes"/>
      <point x="103" y="0"/>
      <point x="108" y="3"/>
      <point x="110" y="9" type="curve" smooth="yes"/>
      <point x="173" y="171" type="line" smooth="yes"/>
      <point x="175" y="176"/>
      <point x="180" y="180"/>
      <point x="186" y="180" type="curve" smooth="yes"/>
      <point x="500" y="180" type="line" smooth="yes"/>
      <point x="506" y="180"/>
      <point x="511" y="176"/>
      <point x="513" y="171" type="curve" smooth="yes"/>
      <point x="576" y="9" type="line" smooth="yes"/>
      <point x="578" y="3"/>
      <point x="584" y="0"/>
      <point x="589" y="0" type="curve" smooth="yes"/>
      <point x="661" y="0" type="line" smooth="yes"/>
      <point x="671" y="0"/>
      <point x="678" y="10"/>
    </contour>
    <contour>
      <point x="465" y="270" type="curve" smooth="yes"/>
      <point x="221" y="270" type="line" smooth="yes"/>
      <point x="217" y="270"/>
      <point x="213" y="274"/>
      <point x="215" y="279" type="curve" smooth="yes"/>
      <point x="337" y="591" type="line" smooth="yes"/>
      <point x="339" y="596"/>
      <point x="347" y="596"/>
      <point x="350" y="591" type="curve" smooth="yes"/>
      <point x="471" y="279" type="line" smooth="yes"/>
      <point x="473" y="274"/>
      <point x="470" y="270"/>
    </contour>
  </outline>
</glyph>
